<?xml version="1.0" standalone="no"?>
<!DOCTYPE svg PUBLIC "-//W3C//DTD SVG 1.1//EN" "http://www.w3.org/Graphics/SVG/1.1/DTD/svg11.dtd" >
<svg xmlns="http://www.w3.org/2000/svg" xmlns:xlink="http://www.w3.org/1999/xlink" version="1.1">
<metadata>
Created by FontForge 20141024 at Sun Apr 19 15:04:23 2015
 By System Administrator
Copyright (c) 2014 Monotype Imaging Inc. All rights reserved.
</metadata>
<defs>
<font id="DINNextSlabPro-Light" horiz-adv-x="532" >
  <font-face 
    font-family="DIN Next Slab Pro Light"
    font-weight="300"
    font-stretch="normal"
    units-per-em="1000"
    panose-1="2 8 3 4 2 2 5 2 2 4"
    ascent="750"
    descent="-250"
    x-height="477"
    cap-height="680"
    bbox="-146.177 -213 985 914"
    underline-thickness="50"
    underline-position="-75"
    stemh="50"
    stemv="54"
    unicode-range="U+000D-FB02"
  />
<missing-glyph horiz-adv-x="470" 
d="M10 680h450c6 0 10 -4 10 -10v-660c0 -6 -4 -10 -10 -10h-450c-6 0 -10 4 -10 10v660c0 6 4 10 10 10zM425 643h-380c-4 0 -6 -2 -6 -6v-594c0 -4 2 -6 6 -6h380c4 0 6 2 6 6v594c0 4 -2 6 -6 6zM226 562c75 0 116 -45 116 -107c0 -39 -11 -62 -38 -96l-37 -48
c-17 -21 -20 -31 -20 -55v-22c0 -6 -4 -10 -10 -10h-22c-6 0 -10 4 -10 10v24c0 30 6 47 22 67l37 47c30 37 37 54 37 81c0 43 -29 70 -75 70c-28 0 -46 -7 -59 -16c-4 -3 -5 -6 -5 -10v-45c0 -6 -4 -10 -10 -10h-20c-6 0 -10 4 -10 10v64c0 7 2 11 9 16c21 15 54 30 95 30z
M210 172h31c6 0 10 -4 10 -10v-39c0 -6 -4 -10 -10 -10h-31c-6 0 -10 4 -10 10v39c0 6 4 10 10 10z" />
    <glyph glyph-name="f_f" unicode="ff" horiz-adv-x="624" 
d="M246 680h28c6 0 10 -4 10 -10v-30c0 -6 -4 -10 -10 -10h-22c-72 0 -85 -15 -85 -88v-59c0 -4 2 -6 6 -6h101c6 0 10 -4 10 -10v-30c0 -6 -4 -10 -10 -10h-101c-4 0 -6 -2 -6 -6v-365c0 -4 2 -6 6 -6h61c6 0 10 -4 10 -10v-30c0 -6 -4 -10 -10 -10h-181c-6 0 -10 4 -10 10
v30c0 6 4 10 10 10h54c4 0 6 2 6 6v365c0 4 -2 6 -6 6h-51c-6 0 -10 4 -10 10v30c0 6 4 10 10 10h51c4 0 6 2 6 6v51c0 114 36 146 133 146zM558 680h28c6 0 10 -4 10 -10v-30c0 -6 -4 -10 -10 -10h-22c-72 0 -85 -15 -85 -88v-59c0 -4 2 -6 6 -6h101c6 0 10 -4 10 -10v-30
c0 -6 -4 -10 -10 -10h-101c-4 0 -6 -2 -6 -6v-365c0 -4 2 -6 6 -6h61c6 0 10 -4 10 -10v-30c0 -6 -4 -10 -10 -10h-181c-6 0 -10 4 -10 10v30c0 6 4 10 10 10h54c4 0 6 2 6 6v365c0 4 -2 6 -6 6h-51c-6 0 -10 4 -10 10v30c0 6 4 10 10 10h51c4 0 6 2 6 6v51
c0 114 36 146 133 146z" />
    <glyph glyph-name="f_f_i" unicode="ffi" horiz-adv-x="905" 
d="M246 680h28c6 0 10 -4 10 -10v-30c0 -6 -4 -10 -10 -10h-22c-72 0 -85 -15 -85 -88v-59c0 -4 2 -6 6 -6h101c6 0 10 -4 10 -10v-30c0 -6 -4 -10 -10 -10h-101c-4 0 -6 -2 -6 -6v-365c0 -4 2 -6 6 -6h61c6 0 10 -4 10 -10v-30c0 -6 -4 -10 -10 -10h-181c-6 0 -10 4 -10 10
v30c0 6 4 10 10 10h54c4 0 6 2 6 6v365c0 4 -2 6 -6 6h-51c-6 0 -10 4 -10 10v30c0 6 4 10 10 10h51c4 0 6 2 6 6v51c0 114 36 146 133 146zM558 680h28c6 0 10 -4 10 -10v-30c0 -6 -4 -10 -10 -10h-22c-72 0 -85 -15 -85 -88v-59c0 -4 2 -6 6 -6h101c6 0 10 -4 10 -10v-30
c0 -6 -4 -10 -10 -10h-101c-4 0 -6 -2 -6 -6v-365c0 -4 2 -6 6 -6h61c6 0 10 -4 10 -10v-30c0 -6 -4 -10 -10 -10h-181c-6 0 -10 4 -10 10v30c0 6 4 10 10 10h54c4 0 6 2 6 6v365c0 4 -2 6 -6 6h-51c-6 0 -10 4 -10 10v30c0 6 4 10 10 10h51c4 0 6 2 6 6v51
c0 114 36 146 133 146zM744 680h44c6 0 10 -4 10 -10v-56c0 -6 -4 -10 -10 -10h-44c-6 0 -10 4 -10 10v56c0 6 4 10 10 10zM677 477h106c6 0 10 -4 10 -10v-411c0 -4 2 -6 6 -6h56c6 0 10 -4 10 -10v-30c0 -6 -4 -10 -10 -10h-178c-6 0 -10 4 -10 10v30c0 6 4 10 10 10h56
c4 0 6 2 6 6v365c0 4 -2 6 -6 6h-56c-6 0 -10 4 -10 10v30c0 6 4 10 10 10z" />
    <glyph glyph-name="f_f_l" unicode="ffl" horiz-adv-x="899" 
d="M246 680h28c6 0 10 -4 10 -10v-30c0 -6 -4 -10 -10 -10h-22c-72 0 -85 -15 -85 -88v-59c0 -4 2 -6 6 -6h101c6 0 10 -4 10 -10v-30c0 -6 -4 -10 -10 -10h-101c-4 0 -6 -2 -6 -6v-365c0 -4 2 -6 6 -6h61c6 0 10 -4 10 -10v-30c0 -6 -4 -10 -10 -10h-181c-6 0 -10 4 -10 10
v30c0 6 4 10 10 10h54c4 0 6 2 6 6v365c0 4 -2 6 -6 6h-51c-6 0 -10 4 -10 10v30c0 6 4 10 10 10h51c4 0 6 2 6 6v51c0 114 36 146 133 146zM558 680h28c6 0 10 -4 10 -10v-30c0 -6 -4 -10 -10 -10h-22c-72 0 -85 -15 -85 -88v-59c0 -4 2 -6 6 -6h101c6 0 10 -4 10 -10v-30
c0 -6 -4 -10 -10 -10h-101c-4 0 -6 -2 -6 -6v-365c0 -4 2 -6 6 -6h61c6 0 10 -4 10 -10v-30c0 -6 -4 -10 -10 -10h-181c-6 0 -10 4 -10 10v30c0 6 4 10 10 10h54c4 0 6 2 6 6v365c0 4 -2 6 -6 6h-51c-6 0 -10 4 -10 10v30c0 6 4 10 10 10h51c4 0 6 2 6 6v51
c0 114 36 146 133 146zM662 680h106c6 0 10 -4 10 -10v-559c0 -47 14 -62 51 -62h17c6 0 10 -4 10 -10v-31c0 -6 -4 -10 -10 -10h-23c-72 0 -99 34 -99 112v514c0 4 -2 6 -6 6h-56c-6 0 -10 4 -10 10v30c0 6 4 10 10 10z" />
    <glyph glyph-name="fi" unicode="fi" horiz-adv-x="593" 
d="M246 680h28c6 0 10 -4 10 -10v-30c0 -6 -4 -10 -10 -10h-22c-72 0 -85 -15 -85 -88v-59c0 -4 2 -6 6 -6h101c6 0 10 -4 10 -10v-30c0 -6 -4 -10 -10 -10h-101c-4 0 -6 -2 -6 -6v-365c0 -4 2 -6 6 -6h61c6 0 10 -4 10 -10v-30c0 -6 -4 -10 -10 -10h-181c-6 0 -10 4 -10 10
v30c0 6 4 10 10 10h54c4 0 6 2 6 6v365c0 4 -2 6 -6 6h-51c-6 0 -10 4 -10 10v30c0 6 4 10 10 10h51c4 0 6 2 6 6v51c0 114 36 146 133 146zM432 680h44c6 0 10 -4 10 -10v-56c0 -6 -4 -10 -10 -10h-44c-6 0 -10 4 -10 10v56c0 6 4 10 10 10zM365 477h106c6 0 10 -4 10 -10
v-411c0 -4 2 -6 6 -6h56c6 0 10 -4 10 -10v-30c0 -6 -4 -10 -10 -10h-178c-6 0 -10 4 -10 10v30c0 6 4 10 10 10h56c4 0 6 2 6 6v365c0 4 -2 6 -6 6h-56c-6 0 -10 4 -10 10v30c0 6 4 10 10 10z" />
    <glyph glyph-name="fl" unicode="fl" horiz-adv-x="587" 
d="M246 680h28c6 0 10 -4 10 -10v-30c0 -6 -4 -10 -10 -10h-22c-72 0 -85 -15 -85 -88v-59c0 -4 2 -6 6 -6h101c6 0 10 -4 10 -10v-30c0 -6 -4 -10 -10 -10h-101c-4 0 -6 -2 -6 -6v-365c0 -4 2 -6 6 -6h61c6 0 10 -4 10 -10v-30c0 -6 -4 -10 -10 -10h-181c-6 0 -10 4 -10 10
v30c0 6 4 10 10 10h54c4 0 6 2 6 6v365c0 4 -2 6 -6 6h-51c-6 0 -10 4 -10 10v30c0 6 4 10 10 10h51c4 0 6 2 6 6v51c0 114 36 146 133 146zM350 680h106c6 0 10 -4 10 -10v-559c0 -47 14 -62 51 -62h17c6 0 10 -4 10 -10v-31c0 -6 -4 -10 -10 -10h-23c-72 0 -99 34 -99 112
v514c0 4 -2 6 -6 6h-56c-6 0 -10 4 -10 10v30c0 6 4 10 10 10z" />
    <glyph glyph-name=".notdef" horiz-adv-x="470" 
d="M10 680h450c6 0 10 -4 10 -10v-660c0 -6 -4 -10 -10 -10h-450c-6 0 -10 4 -10 10v660c0 6 4 10 10 10zM425 643h-380c-4 0 -6 -2 -6 -6v-594c0 -4 2 -6 6 -6h380c4 0 6 2 6 6v594c0 4 -2 6 -6 6zM226 562c75 0 116 -45 116 -107c0 -39 -11 -62 -38 -96l-37 -48
c-17 -21 -20 -31 -20 -55v-22c0 -6 -4 -10 -10 -10h-22c-6 0 -10 4 -10 10v24c0 30 6 47 22 67l37 47c30 37 37 54 37 81c0 43 -29 70 -75 70c-28 0 -46 -7 -59 -16c-4 -3 -5 -6 -5 -10v-45c0 -6 -4 -10 -10 -10h-20c-6 0 -10 4 -10 10v64c0 7 2 11 9 16c21 15 54 30 95 30z
M210 172h31c6 0 10 -4 10 -10v-39c0 -6 -4 -10 -10 -10h-31c-6 0 -10 4 -10 10v39c0 6 4 10 10 10z" />
    <glyph glyph-name="A" unicode="A" horiz-adv-x="618" 
d="M290 680h41c6 0 10 -4 12 -10l218 -614c1 -4 4 -6 8 -6h35c6 0 10 -4 10 -10v-30c0 -6 -4 -10 -10 -10h-165c-6 0 -10 4 -10 10v30c0 6 4 10 10 10h56c4 0 7 2 5 7l-52 147h-278l-52 -147c-2 -5 1 -7 5 -7h56c6 0 10 -4 10 -10v-30c0 -6 -4 -10 -10 -10h-165
c-6 0 -10 4 -10 10v30c0 6 4 10 10 10h36c4 0 6 1 8 6l220 614c2 6 6 10 12 10zM309 595l-120 -337h240l-118 337h-2z" />
    <glyph glyph-name="Aacute" unicode="&#xc1;" horiz-adv-x="618" 
d="M389 888h40c6 0 8 -5 4 -10l-96 -105c-7 -8 -10 -9 -18 -9h-26c-6 0 -9 4 -4 10l82 104c5 7 10 10 18 10zM290 680h41c6 0 10 -4 12 -10l218 -614c1 -4 4 -6 8 -6h35c6 0 10 -4 10 -10v-30c0 -6 -4 -10 -10 -10h-165c-6 0 -10 4 -10 10v30c0 6 4 10 10 10h56c4 0 7 2 5 7
l-52 147h-278l-52 -147c-2 -5 1 -7 5 -7h56c6 0 10 -4 10 -10v-30c0 -6 -4 -10 -10 -10h-165c-6 0 -10 4 -10 10v30c0 6 4 10 10 10h36c4 0 6 1 8 6l220 614c2 6 6 10 12 10zM309 595l-120 -337h240l-118 337h-2z" />
    <glyph glyph-name="Abreve" unicode="&#x102;" horiz-adv-x="618" 
d="M407 881h19c6 0 10 -4 9 -10c-9 -61 -56 -103 -125 -103c-68 0 -116 42 -124 103c-1 6 3 10 9 10h19c7 0 10 -3 12 -10c11 -39 40 -59 84 -59c45 0 74 20 86 59c2 7 4 10 11 10zM290 680h41c6 0 10 -4 12 -10l218 -614c1 -4 4 -6 8 -6h35c6 0 10 -4 10 -10v-30
c0 -6 -4 -10 -10 -10h-165c-6 0 -10 4 -10 10v30c0 6 4 10 10 10h56c4 0 7 2 5 7l-52 147h-278l-52 -147c-2 -5 1 -7 5 -7h56c6 0 10 -4 10 -10v-30c0 -6 -4 -10 -10 -10h-165c-6 0 -10 4 -10 10v30c0 6 4 10 10 10h36c4 0 6 1 8 6l220 614c2 6 6 10 12 10zM309 595
l-120 -337h240l-118 337h-2z" />
    <glyph glyph-name="Acircumflex" unicode="&#xc2;" horiz-adv-x="618" 
d="M299 896h23c7 0 10 -2 15 -9l91 -123c4 -5 2 -10 -4 -10h-25c-8 0 -11 2 -17 10l-71 85h-2l-70 -85c-7 -8 -10 -10 -17 -10h-25c-6 0 -8 5 -4 10l90 123c5 7 9 9 16 9zM290 680h41c6 0 10 -4 12 -10l218 -614c1 -4 4 -6 8 -6h35c6 0 10 -4 10 -10v-30
c0 -6 -4 -10 -10 -10h-165c-6 0 -10 4 -10 10v30c0 6 4 10 10 10h56c4 0 7 2 5 7l-52 147h-278l-52 -147c-2 -5 1 -7 5 -7h56c6 0 10 -4 10 -10v-30c0 -6 -4 -10 -10 -10h-165c-6 0 -10 4 -10 10v30c0 6 4 10 10 10h36c4 0 6 1 8 6l220 614c2 6 6 10 12 10zM309 595
l-120 -337h240l-118 337h-2z" />
    <glyph glyph-name="Adieresis" unicode="&#xc4;" horiz-adv-x="618" 
d="M191 862h39c6 0 10 -4 10 -10v-56c0 -6 -4 -10 -10 -10h-39c-6 0 -10 4 -10 10v56c0 6 4 10 10 10zM391 862h39c6 0 10 -4 10 -10v-56c0 -6 -4 -10 -10 -10h-39c-6 0 -10 4 -10 10v56c0 6 4 10 10 10zM290 680h41c6 0 10 -4 12 -10l218 -614c1 -4 4 -6 8 -6h35
c6 0 10 -4 10 -10v-30c0 -6 -4 -10 -10 -10h-165c-6 0 -10 4 -10 10v30c0 6 4 10 10 10h56c4 0 7 2 5 7l-52 147h-278l-52 -147c-2 -5 1 -7 5 -7h56c6 0 10 -4 10 -10v-30c0 -6 -4 -10 -10 -10h-165c-6 0 -10 4 -10 10v30c0 6 4 10 10 10h36c4 0 6 1 8 6l220 614
c2 6 6 10 12 10zM309 595l-120 -337h240l-118 337h-2z" />
    <glyph glyph-name="Agrave" unicode="&#xc0;" horiz-adv-x="618" 
d="M190 888h40c8 0 13 -3 18 -10l82 -104c5 -6 2 -10 -4 -10h-26c-8 0 -11 1 -18 9l-96 105c-4 5 -2 10 4 10zM290 680h41c6 0 10 -4 12 -10l218 -614c1 -4 4 -6 8 -6h35c6 0 10 -4 10 -10v-30c0 -6 -4 -10 -10 -10h-165c-6 0 -10 4 -10 10v30c0 6 4 10 10 10h56
c4 0 7 2 5 7l-52 147h-278l-52 -147c-2 -5 1 -7 5 -7h56c6 0 10 -4 10 -10v-30c0 -6 -4 -10 -10 -10h-165c-6 0 -10 4 -10 10v30c0 6 4 10 10 10h36c4 0 6 1 8 6l220 614c2 6 6 10 12 10zM309 595l-120 -337h240l-118 337h-2z" />
    <glyph glyph-name="Amacron" unicode="&#x100;" horiz-adv-x="618" 
d="M190 846h240c6 0 10 -4 10 -10v-26c0 -6 -4 -10 -10 -10h-240c-6 0 -10 4 -10 10v26c0 6 4 10 10 10zM290 680h41c6 0 10 -4 12 -10l218 -614c1 -4 4 -6 8 -6h35c6 0 10 -4 10 -10v-30c0 -6 -4 -10 -10 -10h-165c-6 0 -10 4 -10 10v30c0 6 4 10 10 10h56c4 0 7 2 5 7
l-52 147h-278l-52 -147c-2 -5 1 -7 5 -7h56c6 0 10 -4 10 -10v-30c0 -6 -4 -10 -10 -10h-165c-6 0 -10 4 -10 10v30c0 6 4 10 10 10h36c4 0 6 1 8 6l220 614c2 6 6 10 12 10zM309 595l-120 -337h240l-118 337h-2z" />
    <glyph glyph-name="Aogonek" unicode="&#x104;" horiz-adv-x="618" 
d="M290 680h41c6 0 10 -4 12 -10l218 -614c1 -4 4 -6 8 -6h35c6 0 10 -4 10 -10v-30c0 -6 -4 -10 -10 -10h-128c-70 -51 -83 -76 -83 -97c0 -18 11 -28 29 -28c9 0 18 3 28 9c5 3 10 2 13 -3l11 -21c2 -5 1 -9 -4 -13c-13 -10 -35 -19 -56 -19c-42 0 -70 25 -70 68
c0 47 44 85 85 112v32c0 6 4 10 10 10h56c4 0 7 2 5 7l-52 147h-278l-52 -147c-2 -5 1 -7 5 -7h56c6 0 10 -4 10 -10v-30c0 -6 -4 -10 -10 -10h-165c-6 0 -10 4 -10 10v30c0 6 4 10 10 10h36c4 0 6 1 8 6l220 614c2 6 6 10 12 10zM309 595l-120 -337h240l-118 337h-2z" />
    <glyph glyph-name="Aring" unicode="&#xc5;" horiz-adv-x="618" 
d="M310 914c51 0 88 -37 88 -88s-37 -88 -88 -88s-88 37 -88 88s37 88 88 88zM310 882c-32 0 -53 -24 -53 -56s21 -56 53 -56s53 24 53 56s-21 56 -53 56zM290 680h41c6 0 10 -4 12 -10l218 -614c1 -4 4 -6 8 -6h35c6 0 10 -4 10 -10v-30c0 -6 -4 -10 -10 -10h-165
c-6 0 -10 4 -10 10v30c0 6 4 10 10 10h56c4 0 7 2 5 7l-52 147h-278l-52 -147c-2 -5 1 -7 5 -7h56c6 0 10 -4 10 -10v-30c0 -6 -4 -10 -10 -10h-165c-6 0 -10 4 -10 10v30c0 6 4 10 10 10h36c4 0 6 1 8 6l220 614c2 6 6 10 12 10zM309 595l-120 -337h240l-118 337h-2z" />
    <glyph glyph-name="Atilde" unicode="&#xc3;" horiz-adv-x="618" 
d="M257 866c24 0 43 -9 60 -20c16 -10 31 -18 49 -18c23 0 40 13 59 33c4 4 8 2 8 -3v-30c0 -6 -1 -9 -7 -16c-17 -17 -37 -30 -62 -30c-24 0 -42 10 -60 21c-16 10 -31 18 -49 18c-23 0 -39 -14 -58 -33c-5 -4 -9 -2 -9 3v30c0 6 2 9 8 15c16 18 36 30 61 30zM290 680h41
c6 0 10 -4 12 -10l218 -614c1 -4 4 -6 8 -6h35c6 0 10 -4 10 -10v-30c0 -6 -4 -10 -10 -10h-165c-6 0 -10 4 -10 10v30c0 6 4 10 10 10h56c4 0 7 2 5 7l-52 147h-278l-52 -147c-2 -5 1 -7 5 -7h56c6 0 10 -4 10 -10v-30c0 -6 -4 -10 -10 -10h-165c-6 0 -10 4 -10 10v30
c0 6 4 10 10 10h36c4 0 6 1 8 6l220 614c2 6 6 10 12 10zM309 595l-120 -337h240l-118 337h-2z" />
    <glyph glyph-name="AE" unicode="&#xc6;" horiz-adv-x="942" 
d="M453 680h419c6 0 10 -4 10 -10v-117c0 -6 -4 -10 -10 -10h-34c-6 0 -10 4 -10 10v67c0 4 -2 6 -6 6h-280c-4 0 -6 -2 -6 -6v-242c0 -4 2 -6 6 -6h220c4 0 6 2 6 6v51c0 6 4 10 10 10h34c6 0 10 -4 10 -10v-168c0 -6 -4 -10 -10 -10h-34c-6 0 -10 4 -10 10v51
c0 4 -2 6 -6 6h-220c-4 0 -6 -2 -6 -6v-252c0 -4 2 -6 6 -6h280c4 0 6 2 6 6v70c0 6 4 10 10 10h34c6 0 10 -4 10 -10v-120c0 -6 -4 -10 -10 -10h-383c-6 0 -10 4 -10 10v171c0 4 -2 6 -6 6h-272l-81 -130c-3 -5 -1 -7 3 -7h56c6 0 10 -4 10 -10v-30c0 -6 -4 -10 -10 -10
h-163c-6 0 -10 4 -10 10v30c0 6 4 10 10 10h30c4 0 6 2 8 6l384 615c4 6 8 9 15 9zM477 625l-242 -384h238c4 0 6 2 6 6v378h-2z" />
    <glyph glyph-name="B" unicode="B" horiz-adv-x="610" 
d="M53 680h293c128 0 197 -69 197 -176c0 -83 -42 -134 -105 -153v-2c51 -10 116 -63 116 -162c0 -117 -75 -187 -208 -187h-293c-6 0 -10 4 -10 10v30c0 6 4 10 10 10h60c4 0 6 2 6 6v568c0 4 -2 6 -6 6h-60c-6 0 -10 4 -10 10v30c0 6 4 10 10 10zM345 628h-164
c-4 0 -6 -2 -6 -6v-243c0 -4 2 -6 6 -6h164c92 0 141 52 141 126c0 79 -49 129 -141 129zM350 319h-169c-4 0 -6 -2 -6 -6v-255c0 -4 2 -6 6 -6h169c97 0 147 54 147 134s-50 133 -147 133z" />
    <glyph glyph-name="C" unicode="C" horiz-adv-x="578" 
d="M314 690c83 0 149 -22 193 -55c7 -5 8 -9 8 -16v-105c0 -6 -4 -10 -10 -10h-34c-6 0 -10 4 -10 10v75c0 5 -1 7 -5 10c-28 20 -76 37 -139 37c-94 0 -151 -40 -176 -114c-9 -27 -18 -68 -18 -182s7 -155 16 -183c25 -74 81 -113 180 -113c61 0 110 13 137 32
c3 2 5 5 5 10v78c0 6 4 10 10 10h34c6 0 10 -4 10 -10v-106c0 -7 -1 -11 -7 -16c-43 -32 -111 -52 -192 -52c-123 0 -200 47 -233 149c-11 34 -18 82 -18 201s9 163 20 197c33 102 113 153 229 153z" />
    <glyph glyph-name="Cacute" unicode="&#x106;" horiz-adv-x="578" 
d="M372 888h40c6 0 8 -5 4 -10l-96 -105c-7 -8 -10 -9 -18 -9h-26c-6 0 -9 4 -4 10l82 104c5 7 10 10 18 10zM314 690c83 0 149 -22 193 -55c7 -5 8 -9 8 -16v-105c0 -6 -4 -10 -10 -10h-34c-6 0 -10 4 -10 10v75c0 5 -1 7 -5 10c-28 20 -76 37 -139 37
c-94 0 -151 -40 -176 -114c-9 -27 -18 -68 -18 -182s7 -155 16 -183c25 -74 81 -113 180 -113c61 0 110 13 137 32c3 2 5 5 5 10v78c0 6 4 10 10 10h34c6 0 10 -4 10 -10v-106c0 -7 -1 -11 -7 -16c-43 -32 -111 -52 -192 -52c-123 0 -200 47 -233 149c-11 34 -18 82 -18 201
s9 163 20 197c33 102 113 153 229 153z" />
    <glyph glyph-name="Ccaron" unicode="&#x10c;" horiz-adv-x="578" 
d="M403 895h25c6 0 8 -5 4 -10l-91 -122c-5 -7 -8 -9 -15 -9h-23c-7 0 -11 2 -16 9l-90 122c-4 5 -2 10 4 10h25c7 0 10 -2 17 -10l70 -85h2l71 85c6 8 9 10 17 10zM314 690c83 0 149 -22 193 -55c7 -5 8 -9 8 -16v-105c0 -6 -4 -10 -10 -10h-34c-6 0 -10 4 -10 10v75
c0 5 -1 7 -5 10c-28 20 -76 37 -139 37c-94 0 -151 -40 -176 -114c-9 -27 -18 -68 -18 -182s7 -155 16 -183c25 -74 81 -113 180 -113c61 0 110 13 137 32c3 2 5 5 5 10v78c0 6 4 10 10 10h34c6 0 10 -4 10 -10v-106c0 -7 -1 -11 -7 -16c-43 -32 -111 -52 -192 -52
c-123 0 -200 47 -233 149c-11 34 -18 82 -18 201s9 163 20 197c33 102 113 153 229 153z" />
    <glyph glyph-name="Ccedilla" unicode="&#xc7;" horiz-adv-x="578" 
d="M314 690c83 0 149 -22 193 -55c7 -5 8 -9 8 -16v-105c0 -6 -4 -10 -10 -10h-34c-6 0 -10 4 -10 10v75c0 5 -1 7 -5 10c-28 20 -76 37 -139 37c-94 0 -151 -40 -176 -114c-9 -27 -18 -68 -18 -182s7 -155 16 -183c25 -74 81 -113 180 -113c61 0 110 13 137 32
c3 2 5 5 5 10v78c0 6 4 10 10 10h34c6 0 10 -4 10 -10v-106c0 -7 -1 -11 -7 -16c-41 -30 -103 -50 -178 -52l-43 -128c-3 -8 -7 -10 -16 -10h-31c-6 0 -9 4 -7 10l51 130c-104 8 -171 54 -201 147c-11 34 -18 82 -18 201s9 163 20 197c33 102 113 153 229 153z" />
    <glyph glyph-name="Ccircumflex" unicode="&#x108;" horiz-adv-x="578" 
d="M303 896h23c7 0 10 -2 15 -9l91 -123c4 -5 2 -10 -4 -10h-25c-8 0 -11 2 -17 10l-71 85h-2l-70 -85c-7 -8 -10 -10 -17 -10h-25c-6 0 -8 5 -4 10l90 123c5 7 9 9 16 9zM314 690c83 0 149 -22 193 -55c7 -5 8 -9 8 -16v-105c0 -6 -4 -10 -10 -10h-34c-6 0 -10 4 -10 10v75
c0 5 -1 7 -5 10c-28 20 -76 37 -139 37c-94 0 -151 -40 -176 -114c-9 -27 -18 -68 -18 -182s7 -155 16 -183c25 -74 81 -113 180 -113c61 0 110 13 137 32c3 2 5 5 5 10v78c0 6 4 10 10 10h34c6 0 10 -4 10 -10v-106c0 -7 -1 -11 -7 -16c-43 -32 -111 -52 -192 -52
c-123 0 -200 47 -233 149c-11 34 -18 82 -18 201s9 163 20 197c33 102 113 153 229 153z" />
    <glyph glyph-name="Cdotaccent" unicode="&#x10a;" horiz-adv-x="578" 
d="M292 862h44c6 0 10 -4 10 -10v-56c0 -6 -4 -10 -10 -10h-44c-6 0 -10 4 -10 10v56c0 6 4 10 10 10zM314 690c83 0 149 -22 193 -55c7 -5 8 -9 8 -16v-105c0 -6 -4 -10 -10 -10h-34c-6 0 -10 4 -10 10v75c0 5 -1 7 -5 10c-28 20 -76 37 -139 37c-94 0 -151 -40 -176 -114
c-9 -27 -18 -68 -18 -182s7 -155 16 -183c25 -74 81 -113 180 -113c61 0 110 13 137 32c3 2 5 5 5 10v78c0 6 4 10 10 10h34c6 0 10 -4 10 -10v-106c0 -7 -1 -11 -7 -16c-43 -32 -111 -52 -192 -52c-123 0 -200 47 -233 149c-11 34 -18 82 -18 201s9 163 20 197
c33 102 113 153 229 153z" />
    <glyph glyph-name="D" unicode="D" horiz-adv-x="642" 
d="M53 680h280c113 0 187 -45 217 -138c13 -40 18 -78 18 -202s-5 -162 -18 -202c-30 -93 -104 -138 -217 -138h-280c-6 0 -10 4 -10 10v30c0 6 4 10 10 10h60c4 0 6 2 6 6v568c0 4 -2 6 -6 6h-60c-6 0 -10 4 -10 10v30c0 6 4 10 10 10zM324 626h-142c-4 0 -6 -2 -6 -6v-560
c0 -4 2 -6 6 -6h142c89 0 147 31 171 102c11 33 16 69 16 184s-5 151 -16 184c-24 71 -82 102 -171 102z" />
    <glyph glyph-name="Eth" unicode="&#xd0;" horiz-adv-x="642" 
d="M53 680h280c113 0 187 -45 217 -138c13 -40 18 -78 18 -202s-5 -162 -18 -202c-30 -93 -104 -138 -217 -138h-280c-6 0 -10 4 -10 10v30c0 6 4 10 10 10h60c4 0 6 2 6 6v259c0 3 -2 5 -6 5h-40c-6 0 -10 4 -10 10v30c0 6 4 10 10 10h40c4 0 6 2 6 6v248c0 4 -2 6 -6 6
h-60c-6 0 -10 4 -10 10v30c0 6 4 10 10 10zM324 626h-142c-4 0 -6 -2 -6 -6v-244c0 -4 2 -6 6 -6h130c6 0 10 -4 10 -10v-30c0 -6 -4 -10 -10 -10h-130c-4 0 -6 -2 -6 -5v-255c0 -4 2 -6 6 -6h142c89 0 147 31 171 102c11 33 16 69 16 184s-5 151 -16 184
c-24 71 -82 102 -171 102z" />
    <glyph glyph-name="Dcaron" unicode="&#x10e;" horiz-adv-x="642" 
d="M402 895h25c6 0 8 -5 4 -10l-91 -122c-5 -7 -8 -9 -15 -9h-23c-7 0 -11 2 -16 9l-90 122c-4 5 -2 10 4 10h25c7 0 10 -2 17 -10l70 -85h2l71 85c6 8 9 10 17 10zM53 680h280c113 0 187 -45 217 -138c13 -40 18 -78 18 -202s-5 -162 -18 -202c-30 -93 -104 -138 -217 -138
h-280c-6 0 -10 4 -10 10v30c0 6 4 10 10 10h60c4 0 6 2 6 6v568c0 4 -2 6 -6 6h-60c-6 0 -10 4 -10 10v30c0 6 4 10 10 10zM324 626h-142c-4 0 -6 -2 -6 -6v-560c0 -4 2 -6 6 -6h142c89 0 147 31 171 102c11 33 16 69 16 184s-5 151 -16 184c-24 71 -82 102 -171 102z" />
    <glyph glyph-name="Dcroat" unicode="&#x110;" horiz-adv-x="642" 
d="M53 680h280c113 0 187 -45 217 -138c13 -40 18 -78 18 -202s-5 -162 -18 -202c-30 -93 -104 -138 -217 -138h-280c-6 0 -10 4 -10 10v30c0 6 4 10 10 10h60c4 0 6 2 6 6v259c0 3 -2 5 -6 5h-40c-6 0 -10 4 -10 10v30c0 6 4 10 10 10h40c4 0 6 2 6 6v248c0 4 -2 6 -6 6
h-60c-6 0 -10 4 -10 10v30c0 6 4 10 10 10zM324 626h-142c-4 0 -6 -2 -6 -6v-244c0 -4 2 -6 6 -6h130c6 0 10 -4 10 -10v-30c0 -6 -4 -10 -10 -10h-130c-4 0 -6 -2 -6 -5v-255c0 -4 2 -6 6 -6h142c89 0 147 31 171 102c11 33 16 69 16 184s-5 151 -16 184
c-24 71 -82 102 -171 102z" />
    <glyph glyph-name="E" unicode="E" horiz-adv-x="582" 
d="M53 680h459c6 0 10 -4 10 -10v-117c0 -6 -4 -10 -10 -10h-34c-6 0 -10 4 -10 10v67c0 4 -2 6 -6 6h-280c-4 0 -6 -2 -6 -6v-242c0 -4 2 -6 6 -6h220c4 0 6 2 6 6v51c0 6 4 10 10 10h34c6 0 10 -4 10 -10v-168c0 -6 -4 -10 -10 -10h-34c-6 0 -10 4 -10 10v51
c0 4 -2 6 -6 6h-220c-4 0 -6 -2 -6 -6v-252c0 -4 2 -6 6 -6h280c4 0 6 2 6 6v70c0 6 4 10 10 10h34c6 0 10 -4 10 -10v-120c0 -6 -4 -10 -10 -10h-459c-6 0 -10 4 -10 10v30c0 6 4 10 10 10h60c4 0 6 2 6 6v568c0 4 -2 6 -6 6h-60c-6 0 -10 4 -10 10v30c0 6 4 10 10 10z" />
    <glyph glyph-name="Eacute" unicode="&#xc9;" horiz-adv-x="582" 
d="M364 888h40c6 0 8 -5 4 -10l-96 -105c-7 -8 -10 -9 -18 -9h-26c-6 0 -9 4 -4 10l82 104c5 7 10 10 18 10zM53 680h459c6 0 10 -4 10 -10v-117c0 -6 -4 -10 -10 -10h-34c-6 0 -10 4 -10 10v67c0 4 -2 6 -6 6h-280c-4 0 -6 -2 -6 -6v-242c0 -4 2 -6 6 -6h220c4 0 6 2 6 6
v51c0 6 4 10 10 10h34c6 0 10 -4 10 -10v-168c0 -6 -4 -10 -10 -10h-34c-6 0 -10 4 -10 10v51c0 4 -2 6 -6 6h-220c-4 0 -6 -2 -6 -6v-252c0 -4 2 -6 6 -6h280c4 0 6 2 6 6v70c0 6 4 10 10 10h34c6 0 10 -4 10 -10v-120c0 -6 -4 -10 -10 -10h-459c-6 0 -10 4 -10 10v30
c0 6 4 10 10 10h60c4 0 6 2 6 6v568c0 4 -2 6 -6 6h-60c-6 0 -10 4 -10 10v30c0 6 4 10 10 10z" />
    <glyph glyph-name="Ebreve" unicode="&#x114;" horiz-adv-x="582" 
d="M403 881h19c6 0 10 -4 9 -10c-9 -61 -56 -103 -125 -103c-68 0 -116 42 -124 103c-1 6 3 10 9 10h19c7 0 10 -3 12 -10c11 -39 40 -59 84 -59c45 0 74 20 86 59c2 7 4 10 11 10zM53 680h459c6 0 10 -4 10 -10v-117c0 -6 -4 -10 -10 -10h-34c-6 0 -10 4 -10 10v67
c0 4 -2 6 -6 6h-280c-4 0 -6 -2 -6 -6v-242c0 -4 2 -6 6 -6h220c4 0 6 2 6 6v51c0 6 4 10 10 10h34c6 0 10 -4 10 -10v-168c0 -6 -4 -10 -10 -10h-34c-6 0 -10 4 -10 10v51c0 4 -2 6 -6 6h-220c-4 0 -6 -2 -6 -6v-252c0 -4 2 -6 6 -6h280c4 0 6 2 6 6v70c0 6 4 10 10 10h34
c6 0 10 -4 10 -10v-120c0 -6 -4 -10 -10 -10h-459c-6 0 -10 4 -10 10v30c0 6 4 10 10 10h60c4 0 6 2 6 6v568c0 4 -2 6 -6 6h-60c-6 0 -10 4 -10 10v30c0 6 4 10 10 10z" />
    <glyph glyph-name="Ecaron" unicode="&#x11a;" horiz-adv-x="582" 
d="M398 895h25c6 0 8 -5 4 -10l-91 -122c-5 -7 -8 -9 -15 -9h-23c-7 0 -11 2 -16 9l-90 122c-4 5 -2 10 4 10h25c7 0 10 -2 17 -10l70 -85h2l71 85c6 8 9 10 17 10zM53 680h459c6 0 10 -4 10 -10v-117c0 -6 -4 -10 -10 -10h-34c-6 0 -10 4 -10 10v67c0 4 -2 6 -6 6h-280
c-4 0 -6 -2 -6 -6v-242c0 -4 2 -6 6 -6h220c4 0 6 2 6 6v51c0 6 4 10 10 10h34c6 0 10 -4 10 -10v-168c0 -6 -4 -10 -10 -10h-34c-6 0 -10 4 -10 10v51c0 4 -2 6 -6 6h-220c-4 0 -6 -2 -6 -6v-252c0 -4 2 -6 6 -6h280c4 0 6 2 6 6v70c0 6 4 10 10 10h34c6 0 10 -4 10 -10
v-120c0 -6 -4 -10 -10 -10h-459c-6 0 -10 4 -10 10v30c0 6 4 10 10 10h60c4 0 6 2 6 6v568c0 4 -2 6 -6 6h-60c-6 0 -10 4 -10 10v30c0 6 4 10 10 10z" />
    <glyph glyph-name="Ecircumflex" unicode="&#xca;" horiz-adv-x="582" 
d="M298 896h23c7 0 10 -2 15 -9l91 -123c4 -5 2 -10 -4 -10h-25c-8 0 -11 2 -17 10l-71 85h-2l-70 -85c-7 -8 -10 -10 -17 -10h-25c-6 0 -8 5 -4 10l90 123c5 7 9 9 16 9zM53 680h459c6 0 10 -4 10 -10v-117c0 -6 -4 -10 -10 -10h-34c-6 0 -10 4 -10 10v67c0 4 -2 6 -6 6
h-280c-4 0 -6 -2 -6 -6v-242c0 -4 2 -6 6 -6h220c4 0 6 2 6 6v51c0 6 4 10 10 10h34c6 0 10 -4 10 -10v-168c0 -6 -4 -10 -10 -10h-34c-6 0 -10 4 -10 10v51c0 4 -2 6 -6 6h-220c-4 0 -6 -2 -6 -6v-252c0 -4 2 -6 6 -6h280c4 0 6 2 6 6v70c0 6 4 10 10 10h34
c6 0 10 -4 10 -10v-120c0 -6 -4 -10 -10 -10h-459c-6 0 -10 4 -10 10v30c0 6 4 10 10 10h60c4 0 6 2 6 6v568c0 4 -2 6 -6 6h-60c-6 0 -10 4 -10 10v30c0 6 4 10 10 10z" />
    <glyph glyph-name="Edieresis" unicode="&#xcb;" horiz-adv-x="582" 
d="M186 862h39c6 0 10 -4 10 -10v-56c0 -6 -4 -10 -10 -10h-39c-6 0 -10 4 -10 10v56c0 6 4 10 10 10zM386 862h39c6 0 10 -4 10 -10v-56c0 -6 -4 -10 -10 -10h-39c-6 0 -10 4 -10 10v56c0 6 4 10 10 10zM53 680h459c6 0 10 -4 10 -10v-117c0 -6 -4 -10 -10 -10h-34
c-6 0 -10 4 -10 10v67c0 4 -2 6 -6 6h-280c-4 0 -6 -2 -6 -6v-242c0 -4 2 -6 6 -6h220c4 0 6 2 6 6v51c0 6 4 10 10 10h34c6 0 10 -4 10 -10v-168c0 -6 -4 -10 -10 -10h-34c-6 0 -10 4 -10 10v51c0 4 -2 6 -6 6h-220c-4 0 -6 -2 -6 -6v-252c0 -4 2 -6 6 -6h280c4 0 6 2 6 6
v70c0 6 4 10 10 10h34c6 0 10 -4 10 -10v-120c0 -6 -4 -10 -10 -10h-459c-6 0 -10 4 -10 10v30c0 6 4 10 10 10h60c4 0 6 2 6 6v568c0 4 -2 6 -6 6h-60c-6 0 -10 4 -10 10v30c0 6 4 10 10 10z" />
    <glyph glyph-name="Edotaccent" unicode="&#x116;" horiz-adv-x="582" 
d="M288 862h44c6 0 10 -4 10 -10v-56c0 -6 -4 -10 -10 -10h-44c-6 0 -10 4 -10 10v56c0 6 4 10 10 10zM53 680h459c6 0 10 -4 10 -10v-117c0 -6 -4 -10 -10 -10h-34c-6 0 -10 4 -10 10v67c0 4 -2 6 -6 6h-280c-4 0 -6 -2 -6 -6v-242c0 -4 2 -6 6 -6h220c4 0 6 2 6 6v51
c0 6 4 10 10 10h34c6 0 10 -4 10 -10v-168c0 -6 -4 -10 -10 -10h-34c-6 0 -10 4 -10 10v51c0 4 -2 6 -6 6h-220c-4 0 -6 -2 -6 -6v-252c0 -4 2 -6 6 -6h280c4 0 6 2 6 6v70c0 6 4 10 10 10h34c6 0 10 -4 10 -10v-120c0 -6 -4 -10 -10 -10h-459c-6 0 -10 4 -10 10v30
c0 6 4 10 10 10h60c4 0 6 2 6 6v568c0 4 -2 6 -6 6h-60c-6 0 -10 4 -10 10v30c0 6 4 10 10 10z" />
    <glyph glyph-name="Egrave" unicode="&#xc8;" horiz-adv-x="582" 
d="M207 888h40c8 0 13 -3 18 -10l82 -104c5 -6 2 -10 -4 -10h-26c-8 0 -11 1 -18 9l-96 105c-4 5 -2 10 4 10zM53 680h459c6 0 10 -4 10 -10v-117c0 -6 -4 -10 -10 -10h-34c-6 0 -10 4 -10 10v67c0 4 -2 6 -6 6h-280c-4 0 -6 -2 -6 -6v-242c0 -4 2 -6 6 -6h220c4 0 6 2 6 6
v51c0 6 4 10 10 10h34c6 0 10 -4 10 -10v-168c0 -6 -4 -10 -10 -10h-34c-6 0 -10 4 -10 10v51c0 4 -2 6 -6 6h-220c-4 0 -6 -2 -6 -6v-252c0 -4 2 -6 6 -6h280c4 0 6 2 6 6v70c0 6 4 10 10 10h34c6 0 10 -4 10 -10v-120c0 -6 -4 -10 -10 -10h-459c-6 0 -10 4 -10 10v30
c0 6 4 10 10 10h60c4 0 6 2 6 6v568c0 4 -2 6 -6 6h-60c-6 0 -10 4 -10 10v30c0 6 4 10 10 10z" />
    <glyph glyph-name="Emacron" unicode="&#x112;" horiz-adv-x="582" 
d="M185 846h240c6 0 10 -4 10 -10v-26c0 -6 -4 -10 -10 -10h-240c-6 0 -10 4 -10 10v26c0 6 4 10 10 10zM53 680h459c6 0 10 -4 10 -10v-117c0 -6 -4 -10 -10 -10h-34c-6 0 -10 4 -10 10v67c0 4 -2 6 -6 6h-280c-4 0 -6 -2 -6 -6v-242c0 -4 2 -6 6 -6h220c4 0 6 2 6 6v51
c0 6 4 10 10 10h34c6 0 10 -4 10 -10v-168c0 -6 -4 -10 -10 -10h-34c-6 0 -10 4 -10 10v51c0 4 -2 6 -6 6h-220c-4 0 -6 -2 -6 -6v-252c0 -4 2 -6 6 -6h280c4 0 6 2 6 6v70c0 6 4 10 10 10h34c6 0 10 -4 10 -10v-120c0 -6 -4 -10 -10 -10h-459c-6 0 -10 4 -10 10v30
c0 6 4 10 10 10h60c4 0 6 2 6 6v568c0 4 -2 6 -6 6h-60c-6 0 -10 4 -10 10v30c0 6 4 10 10 10z" />
    <glyph glyph-name="Eogonek" unicode="&#x118;" horiz-adv-x="582" 
d="M53 680h459c6 0 10 -4 10 -10v-117c0 -6 -4 -10 -10 -10h-34c-6 0 -10 4 -10 10v67c0 4 -2 6 -6 6h-280c-4 0 -6 -2 -6 -6v-242c0 -4 2 -6 6 -6h220c4 0 6 2 6 6v51c0 6 4 10 10 10h34c6 0 10 -4 10 -10v-168c0 -6 -4 -10 -10 -10h-34c-6 0 -10 4 -10 10v51
c0 4 -2 6 -6 6h-220c-4 0 -6 -2 -6 -6v-252c0 -4 2 -6 6 -6h280c4 0 6 2 6 6v70c0 6 4 10 10 10h34c6 0 10 -4 10 -10v-120c0 -6 -4 -10 -10 -10h-15c-70 -51 -83 -76 -83 -97c0 -18 11 -28 29 -28c9 0 18 3 28 9c5 3 10 2 13 -3l11 -21c2 -5 1 -9 -4 -13
c-13 -10 -35 -19 -56 -19c-42 0 -70 25 -70 68c0 33 17 63 72 104h-384c-6 0 -10 4 -10 10v30c0 6 4 10 10 10h60c4 0 6 2 6 6v568c0 4 -2 6 -6 6h-60c-6 0 -10 4 -10 10v30c0 6 4 10 10 10z" />
    <glyph glyph-name="F" unicode="F" horiz-adv-x="572" 
d="M53 680h459c6 0 10 -4 10 -10v-118c0 -6 -4 -10 -10 -10h-34c-6 0 -10 4 -10 10v68c0 4 -2 6 -6 6h-280c-4 0 -6 -2 -6 -6v-249c0 -4 2 -6 6 -6h220c4 0 6 2 6 6v51c0 6 4 10 10 10h34c6 0 10 -4 10 -10v-168c0 -6 -4 -10 -10 -10h-34c-6 0 -10 4 -10 10v51
c0 4 -2 6 -6 6h-220c-4 0 -6 -2 -6 -6v-249c0 -4 2 -6 6 -6h63c6 0 10 -4 10 -10v-30c0 -6 -4 -10 -10 -10h-192c-6 0 -10 4 -10 10v30c0 6 4 10 10 10h60c4 0 6 2 6 6v568c0 4 -2 6 -6 6h-60c-6 0 -10 4 -10 10v30c0 6 4 10 10 10z" />
    <glyph glyph-name="G" unicode="G" horiz-adv-x="615" 
d="M325 690c80 0 153 -25 197 -61c6 -5 7 -9 7 -16v-97c0 -6 -4 -10 -10 -10h-34c-6 0 -10 4 -10 10v68c0 5 -1 8 -5 11c-32 25 -88 41 -146 41c-100 0 -158 -43 -183 -117c-9 -26 -18 -68 -18 -181s7 -153 16 -180c25 -74 84 -114 180 -114c63 0 116 14 151 36
c5 3 6 6 6 11v196c0 4 -2 6 -6 6h-145c-6 0 -10 4 -10 10v33c0 6 4 10 10 10h197c6 0 10 -4 10 -10v-272c0 -6 -1 -11 -7 -15c-43 -33 -116 -59 -206 -59c-127 0 -203 50 -236 151c-11 34 -18 79 -18 197s9 163 20 197c33 101 113 155 240 155z" />
    <glyph glyph-name="Gbreve" unicode="&#x11e;" horiz-adv-x="615" 
d="M413 881h19c6 0 10 -4 9 -10c-9 -61 -56 -103 -125 -103c-68 0 -116 42 -124 103c-1 6 3 10 9 10h19c7 0 10 -3 12 -10c11 -39 40 -59 84 -59c45 0 74 20 86 59c2 7 4 10 11 10zM325 690c80 0 153 -25 197 -61c6 -5 7 -9 7 -16v-97c0 -6 -4 -10 -10 -10h-34
c-6 0 -10 4 -10 10v68c0 5 -1 8 -5 11c-32 25 -88 41 -146 41c-100 0 -158 -43 -183 -117c-9 -26 -18 -68 -18 -181s7 -153 16 -180c25 -74 84 -114 180 -114c63 0 116 14 151 36c5 3 6 6 6 11v196c0 4 -2 6 -6 6h-145c-6 0 -10 4 -10 10v33c0 6 4 10 10 10h197
c6 0 10 -4 10 -10v-272c0 -6 -1 -11 -7 -15c-43 -33 -116 -59 -206 -59c-127 0 -203 50 -236 151c-11 34 -18 79 -18 197s9 163 20 197c33 101 113 155 240 155z" />
    <glyph glyph-name="Gcircumflex" unicode="&#x11c;" horiz-adv-x="615" 
d="M305 896h23c7 0 10 -2 15 -9l91 -123c4 -5 2 -10 -4 -10h-25c-8 0 -11 2 -17 10l-71 85h-2l-70 -85c-7 -8 -10 -10 -17 -10h-25c-6 0 -8 5 -4 10l90 123c5 7 9 9 16 9zM325 690c80 0 153 -25 197 -61c6 -5 7 -9 7 -16v-97c0 -6 -4 -10 -10 -10h-34c-6 0 -10 4 -10 10v68
c0 5 -1 8 -5 11c-32 25 -88 41 -146 41c-100 0 -158 -43 -183 -117c-9 -26 -18 -68 -18 -181s7 -153 16 -180c25 -74 84 -114 180 -114c63 0 116 14 151 36c5 3 6 6 6 11v196c0 4 -2 6 -6 6h-145c-6 0 -10 4 -10 10v33c0 6 4 10 10 10h197c6 0 10 -4 10 -10v-272
c0 -6 -1 -11 -7 -15c-43 -33 -116 -59 -206 -59c-127 0 -203 50 -236 151c-11 34 -18 79 -18 197s9 163 20 197c33 101 113 155 240 155z" />
    <glyph glyph-name="Gcommaaccent" unicode="&#x122;" horiz-adv-x="615" 
d="M325 690c80 0 153 -25 197 -61c6 -5 7 -9 7 -16v-97c0 -6 -4 -10 -10 -10h-34c-6 0 -10 4 -10 10v68c0 5 -1 8 -5 11c-32 25 -88 41 -146 41c-100 0 -158 -43 -183 -117c-9 -26 -18 -68 -18 -181s7 -153 16 -180c25 -74 84 -114 180 -114c63 0 116 14 151 36
c5 3 6 6 6 11v196c0 4 -2 6 -6 6h-145c-6 0 -10 4 -10 10v33c0 6 4 10 10 10h197c6 0 10 -4 10 -10v-272c0 -6 -1 -11 -7 -15c-43 -33 -116 -59 -206 -59c-127 0 -203 50 -236 151c-11 34 -18 79 -18 197s9 163 20 197c33 101 113 155 240 155zM299 -56h37c6 0 10 -4 10 -10
v-42c0 -10 -1 -14 -5 -22l-32 -57c-3 -6 -6 -8 -11 -8c-6 0 -9 3 -9 9v120c0 6 4 10 10 10z" />
    <glyph glyph-name="Gdotaccent" unicode="&#x120;" horiz-adv-x="615" 
d="M294 862h44c6 0 10 -4 10 -10v-56c0 -6 -4 -10 -10 -10h-44c-6 0 -10 4 -10 10v56c0 6 4 10 10 10zM325 690c80 0 153 -25 197 -61c6 -5 7 -9 7 -16v-97c0 -6 -4 -10 -10 -10h-34c-6 0 -10 4 -10 10v68c0 5 -1 8 -5 11c-32 25 -88 41 -146 41c-100 0 -158 -43 -183 -117
c-9 -26 -18 -68 -18 -181s7 -153 16 -180c25 -74 84 -114 180 -114c63 0 116 14 151 36c5 3 6 6 6 11v196c0 4 -2 6 -6 6h-145c-6 0 -10 4 -10 10v33c0 6 4 10 10 10h197c6 0 10 -4 10 -10v-272c0 -6 -1 -11 -7 -15c-43 -33 -116 -59 -206 -59c-127 0 -203 50 -236 151
c-11 34 -18 79 -18 197s9 163 20 197c33 101 113 155 240 155z" />
    <glyph glyph-name="H" unicode="H" horiz-adv-x="692" 
d="M450 680h189c6 0 10 -4 10 -10v-30c0 -6 -4 -10 -10 -10h-60c-4 0 -6 -2 -6 -6v-568c0 -4 2 -6 6 -6h60c6 0 10 -4 10 -10v-30c0 -6 -4 -10 -10 -10h-189c-6 0 -10 4 -10 10v30c0 6 4 10 10 10h60c4 0 6 2 6 6v256c0 4 -2 6 -6 6h-328c-4 0 -6 -2 -6 -6v-256
c0 -4 2 -6 6 -6h60c6 0 10 -4 10 -10v-30c0 -6 -4 -10 -10 -10h-189c-6 0 -10 4 -10 10v30c0 6 4 10 10 10h60c4 0 6 2 6 6v568c0 4 -2 6 -6 6h-60c-6 0 -10 4 -10 10v30c0 6 4 10 10 10h189c6 0 10 -4 10 -10v-30c0 -6 -4 -10 -10 -10h-60c-4 0 -6 -2 -6 -6v-246
c0 -4 2 -6 6 -6h328c4 0 6 2 6 6v246c0 4 -2 6 -6 6h-60c-6 0 -10 4 -10 10v30c0 6 4 10 10 10z" />
    <glyph glyph-name="Hbar" unicode="&#x126;" horiz-adv-x="692" 
d="M450 680h189c6 0 10 -4 10 -10v-30c0 -6 -4 -10 -10 -10h-60c-4 0 -6 -2 -6 -6v-85c0 -4 2 -6 6 -6h40c6 0 10 -4 10 -10v-28c0 -6 -4 -10 -10 -10h-40c-4 0 -6 -2 -6 -6v-423c0 -4 2 -6 6 -6h60c6 0 10 -4 10 -10v-30c0 -6 -4 -10 -10 -10h-189c-6 0 -10 4 -10 10v30
c0 6 4 10 10 10h60c4 0 6 2 6 6v256c0 4 -2 6 -6 6h-328c-4 0 -6 -2 -6 -6v-256c0 -4 2 -6 6 -6h60c6 0 10 -4 10 -10v-30c0 -6 -4 -10 -10 -10h-189c-6 0 -10 4 -10 10v30c0 6 4 10 10 10h60c4 0 6 2 6 6v423c0 4 -2 6 -6 6h-40c-6 0 -10 4 -10 10v28c0 6 4 10 10 10h40
c4 0 6 2 6 6v85c0 4 -2 6 -6 6h-60c-6 0 -10 4 -10 10v30c0 6 4 10 10 10h189c6 0 10 -4 10 -10v-30c0 -6 -4 -10 -10 -10h-60c-4 0 -6 -2 -6 -6v-85c0 -4 2 -6 6 -6h328c4 0 6 2 6 6v85c0 4 -2 6 -6 6h-60c-6 0 -10 4 -10 10v30c0 6 4 10 10 10zM510 485h-328
c-4 0 -6 -2 -6 -6v-101c0 -4 2 -6 6 -6h328c4 0 6 2 6 6v101c0 4 -2 6 -6 6z" />
    <glyph glyph-name="Hcircumflex" unicode="&#x124;" horiz-adv-x="692" 
d="M334 896h23c7 0 10 -2 15 -9l91 -123c4 -5 2 -10 -4 -10h-25c-8 0 -11 2 -17 10l-71 85h-2l-70 -85c-7 -8 -10 -10 -17 -10h-25c-6 0 -8 5 -4 10l90 123c5 7 9 9 16 9zM450 680h189c6 0 10 -4 10 -10v-30c0 -6 -4 -10 -10 -10h-60c-4 0 -6 -2 -6 -6v-568c0 -4 2 -6 6 -6
h60c6 0 10 -4 10 -10v-30c0 -6 -4 -10 -10 -10h-189c-6 0 -10 4 -10 10v30c0 6 4 10 10 10h60c4 0 6 2 6 6v256c0 4 -2 6 -6 6h-328c-4 0 -6 -2 -6 -6v-256c0 -4 2 -6 6 -6h60c6 0 10 -4 10 -10v-30c0 -6 -4 -10 -10 -10h-189c-6 0 -10 4 -10 10v30c0 6 4 10 10 10h60
c4 0 6 2 6 6v568c0 4 -2 6 -6 6h-60c-6 0 -10 4 -10 10v30c0 6 4 10 10 10h189c6 0 10 -4 10 -10v-30c0 -6 -4 -10 -10 -10h-60c-4 0 -6 -2 -6 -6v-246c0 -4 2 -6 6 -6h328c4 0 6 2 6 6v246c0 4 -2 6 -6 6h-60c-6 0 -10 4 -10 10v30c0 6 4 10 10 10z" />
    <glyph glyph-name="I" unicode="I" horiz-adv-x="295" 
d="M53 680h189c6 0 10 -4 10 -10v-30c0 -6 -4 -10 -10 -10h-60c-4 0 -6 -2 -6 -6v-568c0 -4 2 -6 6 -6h60c6 0 10 -4 10 -10v-30c0 -6 -4 -10 -10 -10h-189c-6 0 -10 4 -10 10v30c0 6 4 10 10 10h60c4 0 6 2 6 6v568c0 4 -2 6 -6 6h-60c-6 0 -10 4 -10 10v30c0 6 4 10 10 10
z" />
    <glyph glyph-name="IJ" unicode="&#x132;" horiz-adv-x="795" 
d="M53 680h189c6 0 10 -4 10 -10v-30c0 -6 -4 -10 -10 -10h-60c-4 0 -6 -2 -6 -6v-568c0 -4 2 -6 6 -6h60c6 0 10 -4 10 -10v-30c0 -6 -4 -10 -10 -10h-189c-6 0 -10 4 -10 10v30c0 6 4 10 10 10h60c4 0 6 2 6 6v568c0 4 -2 6 -6 6h-60c-6 0 -10 4 -10 10v30c0 6 4 10 10 10
zM555 680h190c6 0 10 -4 10 -10v-30c0 -6 -4 -10 -10 -10h-58c-4 0 -6 -2 -6 -6v-421c0 -145 -79 -213 -196 -213c-52 0 -110 15 -145 39c-4 3 -6 6 -6 11v119c0 6 4 10 10 10h34c6 0 10 -4 10 -10v-83c0 -5 1 -8 5 -10c22 -13 56 -22 93 -22c83 0 138 46 138 160v420
c0 4 -2 6 -6 6h-63c-6 0 -10 4 -10 10v30c0 6 4 10 10 10z" />
    <glyph glyph-name="Iacute" unicode="&#xcd;" horiz-adv-x="295" 
d="M226 888h40c6 0 8 -5 4 -10l-96 -105c-7 -8 -10 -9 -18 -9h-26c-6 0 -9 4 -4 10l82 104c5 7 10 10 18 10zM53 680h189c6 0 10 -4 10 -10v-30c0 -6 -4 -10 -10 -10h-60c-4 0 -6 -2 -6 -6v-568c0 -4 2 -6 6 -6h60c6 0 10 -4 10 -10v-30c0 -6 -4 -10 -10 -10h-189
c-6 0 -10 4 -10 10v30c0 6 4 10 10 10h60c4 0 6 2 6 6v568c0 4 -2 6 -6 6h-60c-6 0 -10 4 -10 10v30c0 6 4 10 10 10z" />
    <glyph glyph-name="Ibreve" unicode="&#x12c;" horiz-adv-x="295" 
d="M244 881h19c6 0 10 -4 9 -10c-9 -61 -56 -103 -125 -103c-68 0 -116 42 -124 103c-1 6 3 10 9 10h19c7 0 10 -3 12 -10c11 -39 40 -59 84 -59c45 0 74 20 86 59c2 7 4 10 11 10zM53 680h189c6 0 10 -4 10 -10v-30c0 -6 -4 -10 -10 -10h-60c-4 0 -6 -2 -6 -6v-568
c0 -4 2 -6 6 -6h60c6 0 10 -4 10 -10v-30c0 -6 -4 -10 -10 -10h-189c-6 0 -10 4 -10 10v30c0 6 4 10 10 10h60c4 0 6 2 6 6v568c0 4 -2 6 -6 6h-60c-6 0 -10 4 -10 10v30c0 6 4 10 10 10z" />
    <glyph glyph-name="Icircumflex" unicode="&#xce;" horiz-adv-x="295" 
d="M136 896h23c7 0 10 -2 15 -9l91 -123c4 -5 2 -10 -4 -10h-25c-8 0 -11 2 -17 10l-71 85h-2l-70 -85c-7 -8 -10 -10 -17 -10h-25c-6 0 -8 5 -4 10l90 123c5 7 9 9 16 9zM53 680h189c6 0 10 -4 10 -10v-30c0 -6 -4 -10 -10 -10h-60c-4 0 -6 -2 -6 -6v-568c0 -4 2 -6 6 -6
h60c6 0 10 -4 10 -10v-30c0 -6 -4 -10 -10 -10h-189c-6 0 -10 4 -10 10v30c0 6 4 10 10 10h60c4 0 6 2 6 6v568c0 4 -2 6 -6 6h-60c-6 0 -10 4 -10 10v30c0 6 4 10 10 10z" />
    <glyph glyph-name="Idieresis" unicode="&#xcf;" horiz-adv-x="295" 
d="M28 862h39c6 0 10 -4 10 -10v-56c0 -6 -4 -10 -10 -10h-39c-6 0 -10 4 -10 10v56c0 6 4 10 10 10zM228 862h39c6 0 10 -4 10 -10v-56c0 -6 -4 -10 -10 -10h-39c-6 0 -10 4 -10 10v56c0 6 4 10 10 10zM53 680h189c6 0 10 -4 10 -10v-30c0 -6 -4 -10 -10 -10h-60
c-4 0 -6 -2 -6 -6v-568c0 -4 2 -6 6 -6h60c6 0 10 -4 10 -10v-30c0 -6 -4 -10 -10 -10h-189c-6 0 -10 4 -10 10v30c0 6 4 10 10 10h60c4 0 6 2 6 6v568c0 4 -2 6 -6 6h-60c-6 0 -10 4 -10 10v30c0 6 4 10 10 10z" />
    <glyph glyph-name="Idotaccent" unicode="&#x130;" horiz-adv-x="295" 
d="M125 862h44c6 0 10 -4 10 -10v-56c0 -6 -4 -10 -10 -10h-44c-6 0 -10 4 -10 10v56c0 6 4 10 10 10zM53 680h189c6 0 10 -4 10 -10v-30c0 -6 -4 -10 -10 -10h-60c-4 0 -6 -2 -6 -6v-568c0 -4 2 -6 6 -6h60c6 0 10 -4 10 -10v-30c0 -6 -4 -10 -10 -10h-189
c-6 0 -10 4 -10 10v30c0 6 4 10 10 10h60c4 0 6 2 6 6v568c0 4 -2 6 -6 6h-60c-6 0 -10 4 -10 10v30c0 6 4 10 10 10z" />
    <glyph glyph-name="Igrave" unicode="&#xcc;" horiz-adv-x="295" 
d="M30 888h40c8 0 13 -3 18 -10l82 -104c5 -6 2 -10 -4 -10h-26c-8 0 -11 1 -18 9l-96 105c-4 5 -2 10 4 10zM53 680h189c6 0 10 -4 10 -10v-30c0 -6 -4 -10 -10 -10h-60c-4 0 -6 -2 -6 -6v-568c0 -4 2 -6 6 -6h60c6 0 10 -4 10 -10v-30c0 -6 -4 -10 -10 -10h-189
c-6 0 -10 4 -10 10v30c0 6 4 10 10 10h60c4 0 6 2 6 6v568c0 4 -2 6 -6 6h-60c-6 0 -10 4 -10 10v30c0 6 4 10 10 10z" />
    <glyph glyph-name="Imacron" unicode="&#x12a;" horiz-adv-x="295" 
d="M27 846h240c6 0 10 -4 10 -10v-26c0 -6 -4 -10 -10 -10h-240c-6 0 -10 4 -10 10v26c0 6 4 10 10 10zM53 680h189c6 0 10 -4 10 -10v-30c0 -6 -4 -10 -10 -10h-60c-4 0 -6 -2 -6 -6v-568c0 -4 2 -6 6 -6h60c6 0 10 -4 10 -10v-30c0 -6 -4 -10 -10 -10h-189
c-6 0 -10 4 -10 10v30c0 6 4 10 10 10h60c4 0 6 2 6 6v568c0 4 -2 6 -6 6h-60c-6 0 -10 4 -10 10v30c0 6 4 10 10 10z" />
    <glyph glyph-name="Iogonek" unicode="&#x12e;" horiz-adv-x="295" 
d="M53 680h189c6 0 10 -4 10 -10v-30c0 -6 -4 -10 -10 -10h-60c-4 0 -6 -2 -6 -6v-568c0 -4 2 -6 6 -6h60c6 0 10 -4 10 -10v-30c0 -6 -4 -10 -10 -10h-67c-52 -55 -60 -75 -60 -97c0 -18 11 -28 29 -28c9 0 18 3 28 9c5 3 10 2 13 -3l10 -19c3 -6 2 -11 -3 -15
c-12 -10 -36 -19 -56 -19c-43 0 -70 25 -70 68c0 31 13 58 55 104h-68c-6 0 -10 4 -10 10v30c0 6 4 10 10 10h60c4 0 6 2 6 6v568c0 4 -2 6 -6 6h-60c-6 0 -10 4 -10 10v30c0 6 4 10 10 10z" />
    <glyph glyph-name="Itilde" unicode="&#x128;" horiz-adv-x="295" 
d="M94 866c24 0 43 -9 60 -20c16 -10 31 -18 49 -18c23 0 40 13 59 33c4 4 8 2 8 -3v-30c0 -6 -1 -9 -7 -16c-17 -17 -37 -30 -62 -30c-24 0 -42 10 -60 21c-16 10 -31 18 -49 18c-23 0 -39 -14 -58 -33c-5 -4 -9 -2 -9 3v30c0 6 2 9 8 15c16 18 36 30 61 30zM53 680h189
c6 0 10 -4 10 -10v-30c0 -6 -4 -10 -10 -10h-60c-4 0 -6 -2 -6 -6v-568c0 -4 2 -6 6 -6h60c6 0 10 -4 10 -10v-30c0 -6 -4 -10 -10 -10h-189c-6 0 -10 4 -10 10v30c0 6 4 10 10 10h60c4 0 6 2 6 6v568c0 4 -2 6 -6 6h-60c-6 0 -10 4 -10 10v30c0 6 4 10 10 10z" />
    <glyph glyph-name="J" unicode="J" horiz-adv-x="500" 
d="M260 680h190c6 0 10 -4 10 -10v-30c0 -6 -4 -10 -10 -10h-58c-4 0 -6 -2 -6 -6v-421c0 -145 -79 -213 -196 -213c-52 0 -110 15 -145 39c-4 3 -6 6 -6 11v119c0 6 4 10 10 10h34c6 0 10 -4 10 -10v-83c0 -5 1 -8 5 -10c22 -13 56 -22 93 -22c83 0 138 46 138 160v420
c0 4 -2 6 -6 6h-63c-6 0 -10 4 -10 10v30c0 6 4 10 10 10z" />
    <glyph glyph-name="Jcircumflex" unicode="&#x134;" horiz-adv-x="500" 
d="M344 896h23c7 0 10 -2 15 -9l91 -123c4 -5 2 -10 -4 -10h-25c-8 0 -11 2 -17 10l-71 85h-2l-70 -85c-7 -8 -10 -10 -17 -10h-25c-6 0 -8 5 -4 10l90 123c5 7 9 9 16 9zM260 680h190c6 0 10 -4 10 -10v-30c0 -6 -4 -10 -10 -10h-58c-4 0 -6 -2 -6 -6v-421
c0 -145 -79 -213 -196 -213c-52 0 -110 15 -145 39c-4 3 -6 6 -6 11v119c0 6 4 10 10 10h34c6 0 10 -4 10 -10v-83c0 -5 1 -8 5 -10c22 -13 56 -22 93 -22c83 0 138 46 138 160v420c0 4 -2 6 -6 6h-63c-6 0 -10 4 -10 10v30c0 6 4 10 10 10z" />
    <glyph glyph-name="K" unicode="K" horiz-adv-x="638" 
d="M418 680h177c6 0 10 -4 10 -10v-30c0 -6 -4 -10 -10 -10h-50c-5 0 -7 -1 -11 -6l-182 -209l189 -359c3 -5 5 -6 9 -6h66c6 0 10 -4 10 -10v-30c0 -6 -4 -10 -10 -10h-101c-6 0 -10 2 -13 8l-190 361l-136 -156v-157c0 -4 2 -6 6 -6h60c6 0 10 -4 10 -10v-30
c0 -6 -4 -10 -10 -10h-189c-6 0 -10 4 -10 10v30c0 6 4 10 10 10h60c4 0 6 2 6 6v568c0 4 -2 6 -6 6h-60c-6 0 -10 4 -10 10v30c0 6 4 10 10 10h189c6 0 10 -4 10 -10v-30c0 -6 -4 -10 -10 -10h-60c-4 0 -6 -2 -6 -6v-331l291 331c2 3 1 6 -3 6h-46c-6 0 -10 4 -10 10v30
c0 6 4 10 10 10z" />
    <glyph glyph-name="Kcommaaccent" unicode="&#x136;" horiz-adv-x="638" 
d="M418 680h177c6 0 10 -4 10 -10v-30c0 -6 -4 -10 -10 -10h-50c-5 0 -7 -1 -11 -6l-182 -209l189 -359c3 -5 5 -6 9 -6h66c6 0 10 -4 10 -10v-30c0 -6 -4 -10 -10 -10h-101c-6 0 -10 2 -13 8l-190 361l-136 -156v-157c0 -4 2 -6 6 -6h60c6 0 10 -4 10 -10v-30
c0 -6 -4 -10 -10 -10h-189c-6 0 -10 4 -10 10v30c0 6 4 10 10 10h60c4 0 6 2 6 6v568c0 4 -2 6 -6 6h-60c-6 0 -10 4 -10 10v30c0 6 4 10 10 10h189c6 0 10 -4 10 -10v-30c0 -6 -4 -10 -10 -10h-60c-4 0 -6 -2 -6 -6v-331l291 331c2 3 1 6 -3 6h-46c-6 0 -10 4 -10 10v30
c0 6 4 10 10 10zM302 -56h37c6 0 10 -4 10 -10v-42c0 -10 -1 -14 -5 -22l-32 -57c-3 -6 -6 -8 -11 -8c-6 0 -9 3 -9 9v120c0 6 4 10 10 10z" />
    <glyph glyph-name="L" unicode="L" horiz-adv-x="549" 
d="M53 680h189c6 0 10 -4 10 -10v-30c0 -6 -4 -10 -10 -10h-60c-4 0 -6 -2 -6 -6v-564c0 -4 2 -6 6 -6h277c4 0 6 2 6 6v70c0 6 4 10 10 10h34c6 0 10 -4 10 -10v-120c0 -6 -4 -10 -10 -10h-456c-6 0 -10 4 -10 10v30c0 6 4 10 10 10h60c4 0 6 2 6 6v568c0 4 -2 6 -6 6h-60
c-6 0 -10 4 -10 10v30c0 6 4 10 10 10z" />
    <glyph glyph-name="Lacute" unicode="&#x139;" horiz-adv-x="549" 
d="M228 888h40c6 0 8 -5 4 -10l-96 -105c-7 -8 -10 -9 -18 -9h-26c-6 0 -9 4 -4 10l82 104c5 7 10 10 18 10zM53 680h189c6 0 10 -4 10 -10v-30c0 -6 -4 -10 -10 -10h-60c-4 0 -6 -2 -6 -6v-564c0 -4 2 -6 6 -6h277c4 0 6 2 6 6v70c0 6 4 10 10 10h34c6 0 10 -4 10 -10v-120
c0 -6 -4 -10 -10 -10h-456c-6 0 -10 4 -10 10v30c0 6 4 10 10 10h60c4 0 6 2 6 6v568c0 4 -2 6 -6 6h-60c-6 0 -10 4 -10 10v30c0 6 4 10 10 10z" />
    <glyph glyph-name="Lcaron" unicode="&#x13d;" horiz-adv-x="549" 
d="M53 680h189c6 0 10 -4 10 -10v-30c0 -6 -4 -10 -10 -10h-60c-4 0 -6 -2 -6 -6v-564c0 -4 2 -6 6 -6h277c4 0 6 2 6 6v70c0 6 4 10 10 10h34c6 0 10 -4 10 -10v-120c0 -6 -4 -10 -10 -10h-456c-6 0 -10 4 -10 10v30c0 6 4 10 10 10h60c4 0 6 2 6 6v568c0 4 -2 6 -6 6h-60
c-6 0 -10 4 -10 10v30c0 6 4 10 10 10zM304 680h37c6 0 10 -4 10 -10v-48c0 -9 -1 -13 -5 -21l-32 -57c-3 -6 -6 -9 -11 -9c-6 0 -9 4 -9 10v125c0 6 4 10 10 10z" />
    <glyph glyph-name="Lcommaaccent" unicode="&#x13b;" horiz-adv-x="549" 
d="M53 680h189c6 0 10 -4 10 -10v-30c0 -6 -4 -10 -10 -10h-60c-4 0 -6 -2 -6 -6v-564c0 -4 2 -6 6 -6h277c4 0 6 2 6 6v70c0 6 4 10 10 10h34c6 0 10 -4 10 -10v-120c0 -6 -4 -10 -10 -10h-456c-6 0 -10 4 -10 10v30c0 6 4 10 10 10h60c4 0 6 2 6 6v568c0 4 -2 6 -6 6h-60
c-6 0 -10 4 -10 10v30c0 6 4 10 10 10zM288 -56h37c6 0 10 -4 10 -10v-42c0 -10 -1 -14 -5 -22l-32 -57c-3 -6 -6 -8 -11 -8c-6 0 -9 3 -9 9v120c0 6 4 10 10 10z" />
    <glyph glyph-name="Ldot" unicode="&#x13f;" horiz-adv-x="549" 
d="M53 680h189c6 0 10 -4 10 -10v-30c0 -6 -4 -10 -10 -10h-60c-4 0 -6 -2 -6 -6v-564c0 -4 2 -6 6 -6h277c4 0 6 2 6 6v70c0 6 4 10 10 10h34c6 0 10 -4 10 -10v-120c0 -6 -4 -10 -10 -10h-456c-6 0 -10 4 -10 10v30c0 6 4 10 10 10h60c4 0 6 2 6 6v568c0 4 -2 6 -6 6h-60
c-6 0 -10 4 -10 10v30c0 6 4 10 10 10zM397 370h49c6 0 10 -4 10 -10v-67c0 -6 -4 -10 -10 -10h-49c-6 0 -10 4 -10 10v67c0 6 4 10 10 10z" />
    <glyph glyph-name="Lslash" unicode="&#x141;" horiz-adv-x="549" 
d="M53 680h189c6 0 10 -4 10 -10v-30c0 -6 -4 -10 -10 -10h-60c-4 0 -6 -2 -6 -6v-249l158 82c6 3 10 0 10 -6v-36c0 -6 -2 -10 -10 -14l-158 -82v-259c0 -4 2 -6 6 -6h277c4 0 6 2 6 6v70c0 6 4 10 10 10h34c6 0 10 -4 10 -10v-120c0 -6 -4 -10 -10 -10h-456
c-6 0 -10 4 -10 10v30c0 6 4 10 10 10h60c4 0 6 2 6 6v235l-57 -29c-6 -3 -10 0 -10 6v36c0 6 2 10 10 14l57 29v277c0 4 -2 6 -6 6h-60c-6 0 -10 4 -10 10v30c0 6 4 10 10 10z" />
    <glyph glyph-name="M" unicode="M" horiz-adv-x="800" 
d="M632 680h115c6 0 10 -4 10 -10v-30c0 -6 -4 -10 -10 -10h-60c-4 0 -6 -2 -6 -6v-568c0 -4 2 -6 6 -6h60c6 0 10 -4 10 -10v-30c0 -6 -4 -10 -10 -10h-189c-6 0 -10 4 -10 10v30c0 6 4 10 10 10h60c4 0 6 2 6 6v486h-4l-192 -431c-4 -8 -8 -11 -18 -11h-20
c-10 0 -14 3 -18 11l-193 431h-3v-486c0 -4 2 -6 6 -6h58c6 0 10 -4 10 -10v-30c0 -6 -4 -10 -10 -10h-187c-6 0 -10 4 -10 10v30c0 6 4 10 10 10h60c4 0 6 2 6 6v568c0 4 -2 6 -6 6h-60c-6 0 -10 4 -10 10v30c0 6 4 10 10 10h115c6 0 11 -3 14 -10l217 -490h4l215 490
c3 7 8 10 14 10z" />
    <glyph glyph-name="N" unicode="N" horiz-adv-x="695" 
d="M453 680h189c6 0 10 -4 10 -10v-30c0 -6 -4 -10 -10 -10h-60c-4 0 -6 -2 -6 -6v-614c0 -6 -4 -10 -10 -10h-39c-7 0 -12 2 -17 10l-331 561h-3v-515c0 -4 2 -6 6 -6h60c6 0 10 -4 10 -10v-30c0 -6 -4 -10 -10 -10h-189c-6 0 -10 4 -10 10v30c0 6 4 10 10 10h60
c4 0 6 2 6 6v568c0 4 -2 6 -6 6h-60c-6 0 -10 4 -10 10v30c0 6 4 10 10 10h113c7 0 13 -2 17 -10l332 -559h4v513c0 4 -2 6 -6 6h-60c-6 0 -10 4 -10 10v30c0 6 4 10 10 10z" />
    <glyph glyph-name="Nacute" unicode="&#x143;" horiz-adv-x="695" 
d="M401 888h40c6 0 8 -5 4 -10l-96 -105c-7 -8 -10 -9 -18 -9h-26c-6 0 -9 4 -4 10l82 104c5 7 10 10 18 10zM453 680h189c6 0 10 -4 10 -10v-30c0 -6 -4 -10 -10 -10h-60c-4 0 -6 -2 -6 -6v-614c0 -6 -4 -10 -10 -10h-39c-7 0 -12 2 -17 10l-331 561h-3v-515
c0 -4 2 -6 6 -6h60c6 0 10 -4 10 -10v-30c0 -6 -4 -10 -10 -10h-189c-6 0 -10 4 -10 10v30c0 6 4 10 10 10h60c4 0 6 2 6 6v568c0 4 -2 6 -6 6h-60c-6 0 -10 4 -10 10v30c0 6 4 10 10 10h113c7 0 13 -2 17 -10l332 -559h4v513c0 4 -2 6 -6 6h-60c-6 0 -10 4 -10 10v30
c0 6 4 10 10 10z" />
    <glyph glyph-name="Ncaron" unicode="&#x147;" horiz-adv-x="695" 
d="M435 895h25c6 0 8 -5 4 -10l-91 -122c-5 -7 -8 -9 -15 -9h-23c-7 0 -11 2 -16 9l-90 122c-4 5 -2 10 4 10h25c7 0 10 -2 17 -10l70 -85h2l71 85c6 8 9 10 17 10zM453 680h189c6 0 10 -4 10 -10v-30c0 -6 -4 -10 -10 -10h-60c-4 0 -6 -2 -6 -6v-614c0 -6 -4 -10 -10 -10
h-39c-7 0 -12 2 -17 10l-331 561h-3v-515c0 -4 2 -6 6 -6h60c6 0 10 -4 10 -10v-30c0 -6 -4 -10 -10 -10h-189c-6 0 -10 4 -10 10v30c0 6 4 10 10 10h60c4 0 6 2 6 6v568c0 4 -2 6 -6 6h-60c-6 0 -10 4 -10 10v30c0 6 4 10 10 10h113c7 0 13 -2 17 -10l332 -559h4v513
c0 4 -2 6 -6 6h-60c-6 0 -10 4 -10 10v30c0 6 4 10 10 10z" />
    <glyph glyph-name="Ncommaaccent" unicode="&#x145;" horiz-adv-x="695" 
d="M453 680h189c6 0 10 -4 10 -10v-30c0 -6 -4 -10 -10 -10h-60c-4 0 -6 -2 -6 -6v-614c0 -6 -4 -10 -10 -10h-39c-7 0 -12 2 -17 10l-331 561h-3v-515c0 -4 2 -6 6 -6h60c6 0 10 -4 10 -10v-30c0 -6 -4 -10 -10 -10h-189c-6 0 -10 4 -10 10v30c0 6 4 10 10 10h60
c4 0 6 2 6 6v568c0 4 -2 6 -6 6h-60c-6 0 -10 4 -10 10v30c0 6 4 10 10 10h113c7 0 13 -2 17 -10l332 -559h4v513c0 4 -2 6 -6 6h-60c-6 0 -10 4 -10 10v30c0 6 4 10 10 10zM332 -56h37c6 0 10 -4 10 -10v-42c0 -10 -1 -14 -5 -22l-32 -57c-3 -6 -6 -8 -11 -8
c-6 0 -9 3 -9 9v120c0 6 4 10 10 10z" />
    <glyph glyph-name="Eng" unicode="&#x14a;" horiz-adv-x="695" 
d="M453 680h189c6 0 10 -4 10 -10v-30c0 -6 -4 -10 -10 -10h-60c-4 0 -6 -2 -6 -6v-653c0 -106 -47 -151 -146 -151h-13c-6 0 -10 4 -10 10v32c0 6 4 10 10 10h13c62 0 89 25 89 93v35l-340 572h-3v-516c0 -4 2 -6 6 -6h60c6 0 10 -4 10 -10v-30c0 -6 -4 -10 -10 -10h-189
c-6 0 -10 4 -10 10v30c0 6 4 10 10 10h60c4 0 6 2 6 6v568c0 4 -2 6 -6 6h-60c-6 0 -10 4 -10 10v30c0 6 4 10 10 10h113c7 0 13 -2 17 -10l332 -555h4v509c0 4 -2 6 -6 6h-60c-6 0 -10 4 -10 10v30c0 6 4 10 10 10z" />
    <glyph glyph-name="Ntilde" unicode="&#xd1;" horiz-adv-x="695" 
d="M293 866c24 0 43 -9 60 -20c16 -10 31 -18 49 -18c23 0 40 13 59 33c4 4 8 2 8 -3v-30c0 -6 -1 -9 -7 -16c-17 -17 -37 -30 -62 -30c-24 0 -42 10 -60 21c-16 10 -31 18 -49 18c-23 0 -39 -14 -58 -33c-5 -4 -9 -2 -9 3v30c0 6 2 9 8 15c16 18 36 30 61 30zM453 680h189
c6 0 10 -4 10 -10v-30c0 -6 -4 -10 -10 -10h-60c-4 0 -6 -2 -6 -6v-614c0 -6 -4 -10 -10 -10h-39c-7 0 -12 2 -17 10l-331 561h-3v-515c0 -4 2 -6 6 -6h60c6 0 10 -4 10 -10v-30c0 -6 -4 -10 -10 -10h-189c-6 0 -10 4 -10 10v30c0 6 4 10 10 10h60c4 0 6 2 6 6v568
c0 4 -2 6 -6 6h-60c-6 0 -10 4 -10 10v30c0 6 4 10 10 10h113c7 0 13 -2 17 -10l332 -559h4v513c0 4 -2 6 -6 6h-60c-6 0 -10 4 -10 10v30c0 6 4 10 10 10z" />
    <glyph glyph-name="O" unicode="O" horiz-adv-x="609" 
d="M305 690c110 0 186 -53 219 -153c12 -36 20 -80 20 -197s-8 -161 -20 -197c-33 -100 -109 -153 -219 -153c-111 0 -187 53 -220 153c-12 36 -20 80 -20 197s8 161 20 197c33 100 109 153 220 153zM305 636c-85 0 -140 -40 -165 -115c-9 -27 -17 -71 -17 -181
s8 -154 17 -181c25 -75 80 -115 165 -115c84 0 139 40 164 115c9 27 17 71 17 181s-8 154 -17 181c-25 75 -80 115 -164 115z" />
    <glyph glyph-name="Oacute" unicode="&#xd3;" horiz-adv-x="609" 
d="M369 888h40c6 0 8 -5 4 -10l-96 -105c-7 -8 -10 -9 -18 -9h-26c-6 0 -9 4 -4 10l82 104c5 7 10 10 18 10zM305 690c110 0 186 -53 219 -153c12 -36 20 -80 20 -197s-8 -161 -20 -197c-33 -100 -109 -153 -219 -153c-111 0 -187 53 -220 153c-12 36 -20 80 -20 197
s8 161 20 197c33 100 109 153 220 153zM305 636c-85 0 -140 -40 -165 -115c-9 -27 -17 -71 -17 -181s8 -154 17 -181c25 -75 80 -115 165 -115c84 0 139 40 164 115c9 27 17 71 17 181s-8 154 -17 181c-25 75 -80 115 -164 115z" />
    <glyph glyph-name="Obreve" unicode="&#x14e;" horiz-adv-x="609" 
d="M400 881h19c6 0 10 -4 9 -10c-9 -61 -56 -103 -125 -103c-68 0 -116 42 -124 103c-1 6 3 10 9 10h19c7 0 10 -3 12 -10c11 -39 40 -59 84 -59c45 0 74 20 86 59c2 7 4 10 11 10zM305 690c110 0 186 -53 219 -153c12 -36 20 -80 20 -197s-8 -161 -20 -197
c-33 -100 -109 -153 -219 -153c-111 0 -187 53 -220 153c-12 36 -20 80 -20 197s8 161 20 197c33 100 109 153 220 153zM305 636c-85 0 -140 -40 -165 -115c-9 -27 -17 -71 -17 -181s8 -154 17 -181c25 -75 80 -115 165 -115c84 0 139 40 164 115c9 27 17 71 17 181
s-8 154 -17 181c-25 75 -80 115 -164 115z" />
    <glyph glyph-name="Ocircumflex" unicode="&#xd4;" horiz-adv-x="609" 
d="M292 896h23c7 0 10 -2 15 -9l91 -123c4 -5 2 -10 -4 -10h-25c-8 0 -11 2 -17 10l-71 85h-2l-70 -85c-7 -8 -10 -10 -17 -10h-25c-6 0 -8 5 -4 10l90 123c5 7 9 9 16 9zM305 690c110 0 186 -53 219 -153c12 -36 20 -80 20 -197s-8 -161 -20 -197
c-33 -100 -109 -153 -219 -153c-111 0 -187 53 -220 153c-12 36 -20 80 -20 197s8 161 20 197c33 100 109 153 220 153zM305 636c-85 0 -140 -40 -165 -115c-9 -27 -17 -71 -17 -181s8 -154 17 -181c25 -75 80 -115 165 -115c84 0 139 40 164 115c9 27 17 71 17 181
s-8 154 -17 181c-25 75 -80 115 -164 115z" />
    <glyph glyph-name="Odieresis" unicode="&#xd6;" horiz-adv-x="609" 
d="M184 862h39c6 0 10 -4 10 -10v-56c0 -6 -4 -10 -10 -10h-39c-6 0 -10 4 -10 10v56c0 6 4 10 10 10zM384 862h39c6 0 10 -4 10 -10v-56c0 -6 -4 -10 -10 -10h-39c-6 0 -10 4 -10 10v56c0 6 4 10 10 10zM305 690c110 0 186 -53 219 -153c12 -36 20 -80 20 -197
s-8 -161 -20 -197c-33 -100 -109 -153 -219 -153c-111 0 -187 53 -220 153c-12 36 -20 80 -20 197s8 161 20 197c33 100 109 153 220 153zM305 636c-85 0 -140 -40 -165 -115c-9 -27 -17 -71 -17 -181s8 -154 17 -181c25 -75 80 -115 165 -115c84 0 139 40 164 115
c9 27 17 71 17 181s-8 154 -17 181c-25 75 -80 115 -164 115z" />
    <glyph glyph-name="Ograve" unicode="&#xd2;" horiz-adv-x="609" 
d="M198 888h40c8 0 13 -3 18 -10l82 -104c5 -6 2 -10 -4 -10h-26c-8 0 -11 1 -18 9l-96 105c-4 5 -2 10 4 10zM305 690c110 0 186 -53 219 -153c12 -36 20 -80 20 -197s-8 -161 -20 -197c-33 -100 -109 -153 -219 -153c-111 0 -187 53 -220 153c-12 36 -20 80 -20 197
s8 161 20 197c33 100 109 153 220 153zM305 636c-85 0 -140 -40 -165 -115c-9 -27 -17 -71 -17 -181s8 -154 17 -181c25 -75 80 -115 165 -115c84 0 139 40 164 115c9 27 17 71 17 181s-8 154 -17 181c-25 75 -80 115 -164 115z" />
    <glyph glyph-name="Ohungarumlaut" unicode="&#x150;" horiz-adv-x="609" 
d="M306 889h33c6 0 8 -5 4 -10l-75 -105c-5 -7 -9 -10 -16 -10h-25c-6 0 -8 5 -4 10l67 105c4 7 8 10 16 10zM430 889h34c6 0 8 -5 4 -10l-76 -105c-5 -7 -8 -10 -16 -10h-25c-6 0 -8 5 -4 10l67 105c5 7 8 10 16 10zM305 690c110 0 186 -53 219 -153c12 -36 20 -80 20 -197
s-8 -161 -20 -197c-33 -100 -109 -153 -219 -153c-111 0 -187 53 -220 153c-12 36 -20 80 -20 197s8 161 20 197c33 100 109 153 220 153zM305 636c-85 0 -140 -40 -165 -115c-9 -27 -17 -71 -17 -181s8 -154 17 -181c25 -75 80 -115 165 -115c84 0 139 40 164 115
c9 27 17 71 17 181s-8 154 -17 181c-25 75 -80 115 -164 115z" />
    <glyph glyph-name="Omacron" unicode="&#x14c;" horiz-adv-x="609" 
d="M183 846h240c6 0 10 -4 10 -10v-26c0 -6 -4 -10 -10 -10h-240c-6 0 -10 4 -10 10v26c0 6 4 10 10 10zM305 690c110 0 186 -53 219 -153c12 -36 20 -80 20 -197s-8 -161 -20 -197c-33 -100 -109 -153 -219 -153c-111 0 -187 53 -220 153c-12 36 -20 80 -20 197
s8 161 20 197c33 100 109 153 220 153zM305 636c-85 0 -140 -40 -165 -115c-9 -27 -17 -71 -17 -181s8 -154 17 -181c25 -75 80 -115 165 -115c84 0 139 40 164 115c9 27 17 71 17 181s-8 154 -17 181c-25 75 -80 115 -164 115z" />
    <glyph glyph-name="Oslash" unicode="&#xd8;" horiz-adv-x="609" 
d="M503 710h24c6 0 9 -4 6 -10l-50 -87c17 -21 31 -47 41 -76c12 -36 20 -80 20 -197s-8 -161 -20 -197c-33 -100 -109 -153 -219 -153c-62 0 -113 17 -151 48l-33 -58c-3 -6 -8 -10 -15 -10h-24c-6 0 -9 4 -6 10l49 86c-17 22 -30 47 -40 77c-12 36 -20 80 -20 197
s8 161 20 197c33 100 109 153 220 153c61 0 111 -16 150 -48l33 58c3 6 8 10 15 10zM305 636c-85 0 -140 -40 -165 -115c-9 -27 -17 -71 -17 -181s9 -153 17 -180c4 -14 10 -28 17 -39l269 471c-30 29 -70 44 -121 44zM452 558l-269 -471c30 -29 70 -43 122 -43
c84 0 139 40 164 115c9 27 17 71 17 181s-8 154 -17 181c-5 13 -10 26 -17 37z" />
    <glyph glyph-name="Otilde" unicode="&#xd5;" horiz-adv-x="609" 
d="M251 866c24 0 43 -9 60 -20c16 -10 31 -18 49 -18c23 0 40 13 59 33c4 4 8 2 8 -3v-30c0 -6 -1 -9 -7 -16c-17 -17 -37 -30 -62 -30c-24 0 -42 10 -60 21c-16 10 -31 18 -49 18c-23 0 -39 -14 -58 -33c-5 -4 -9 -2 -9 3v30c0 6 2 9 8 15c16 18 36 30 61 30zM305 690
c110 0 186 -53 219 -153c12 -36 20 -80 20 -197s-8 -161 -20 -197c-33 -100 -109 -153 -219 -153c-111 0 -187 53 -220 153c-12 36 -20 80 -20 197s8 161 20 197c33 100 109 153 220 153zM305 636c-85 0 -140 -40 -165 -115c-9 -27 -17 -71 -17 -181s8 -154 17 -181
c25 -75 80 -115 165 -115c84 0 139 40 164 115c9 27 17 71 17 181s-8 154 -17 181c-25 75 -80 115 -164 115z" />
    <glyph glyph-name="OE" unicode="&#x152;" horiz-adv-x="949" 
d="M304 690c81 0 146 -30 181 -98h1v78c0 6 4 10 10 10h383c6 0 10 -4 10 -10v-117c0 -6 -4 -10 -10 -10h-34c-6 0 -10 4 -10 10v67c0 4 -2 6 -6 6h-280c-4 0 -6 -2 -6 -6v-242c0 -4 2 -6 6 -6h220c4 0 6 2 6 6v51c0 6 4 10 10 10h34c6 0 10 -4 10 -10v-168
c0 -6 -4 -10 -10 -10h-34c-6 0 -10 4 -10 10v51c0 4 -2 6 -6 6h-220c-4 0 -6 -2 -6 -6v-252c0 -4 2 -6 6 -6h280c4 0 6 2 6 6v70c0 6 4 10 10 10h34c6 0 10 -4 10 -10v-120c0 -6 -4 -10 -10 -10h-383c-6 0 -10 4 -10 10v78h-1c-35 -68 -100 -98 -181 -98
c-110 0 -186 52 -219 153c-11 34 -20 79 -20 197s9 163 20 197c33 101 109 153 219 153zM304 636c-84 0 -139 -40 -164 -114c-9 -27 -17 -69 -17 -182s8 -155 17 -182c25 -74 80 -114 164 -114c85 0 140 40 165 114c9 27 17 69 17 182s-8 155 -17 182
c-25 74 -80 114 -165 114z" />
    <glyph glyph-name="P" unicode="P" horiz-adv-x="597" 
d="M53 680h297c130 0 209 -74 209 -193s-79 -192 -209 -192h-168c-4 0 -6 -2 -6 -6v-233c0 -4 2 -6 6 -6h64c6 0 10 -4 10 -10v-30c0 -6 -4 -10 -10 -10h-193c-6 0 -10 4 -10 10v30c0 6 4 10 10 10h60c4 0 6 2 6 6v568c0 4 -2 6 -6 6h-60c-6 0 -10 4 -10 10v30
c0 6 4 10 10 10zM348 626h-166c-4 0 -6 -2 -6 -6v-265c0 -4 2 -6 6 -6h166c100 0 154 51 154 138s-54 139 -154 139z" />
    <glyph glyph-name="Thorn" unicode="&#xde;" horiz-adv-x="599" 
d="M53 680h189c6 0 10 -4 10 -10v-30c0 -6 -4 -10 -10 -10h-60c-4 0 -6 -2 -6 -6v-81c0 -4 2 -5 6 -5h167c130 0 210 -74 210 -192s-80 -191 -210 -191h-167c-4 0 -6 -2 -6 -6v-93c0 -4 2 -6 6 -6h60c6 0 10 -4 10 -10v-30c0 -6 -4 -10 -10 -10h-189c-6 0 -10 4 -10 10v30
c0 6 4 10 10 10h60c4 0 6 2 6 6v568c0 4 -2 6 -6 6h-60c-6 0 -10 4 -10 10v30c0 6 4 10 10 10zM347 484h-165c-4 0 -6 -2 -6 -6v-263c0 -4 2 -6 6 -6h165c100 0 155 50 155 137c0 88 -55 138 -155 138z" />
    <glyph glyph-name="Q" unicode="Q" horiz-adv-x="610" 
d="M305 690c110 0 186 -53 219 -153c12 -36 20 -80 20 -197s-8 -161 -20 -197c-8 -25 -19 -46 -32 -65l69 -72c5 -5 5 -10 0 -15l-25 -24c-4 -4 -10 -4 -14 1l-66 71c-39 -32 -90 -49 -151 -49c-111 0 -187 53 -220 153c-12 36 -20 80 -20 197s8 161 20 197
c33 100 109 153 220 153zM305 636c-85 0 -140 -40 -165 -115c-9 -27 -17 -71 -17 -181s8 -154 17 -181c25 -75 80 -115 165 -115c46 0 84 12 113 36l-82 88c-4 4 -4 10 0 14l24 22c5 5 10 5 15 0l77 -83c7 12 12 24 17 38c9 27 17 71 17 181s-8 154 -17 181
c-25 75 -80 115 -164 115z" />
    <glyph glyph-name="R" unicode="R" horiz-adv-x="634" 
d="M53 680h297c132 0 208 -69 208 -186c0 -91 -50 -155 -140 -177l110 -262c2 -4 4 -5 8 -5h56c6 0 10 -4 10 -10v-30c0 -6 -4 -10 -10 -10h-97c-6 0 -10 2 -13 9l-124 299h-176c-4 0 -6 -2 -6 -6v-246c0 -4 2 -6 6 -6h60c6 0 10 -4 10 -10v-30c0 -6 -4 -10 -10 -10h-189
c-6 0 -10 4 -10 10v30c0 6 4 10 10 10h60c4 0 6 2 6 6v568c0 4 -2 6 -6 6h-60c-6 0 -10 4 -10 10v30c0 6 4 10 10 10zM349 626h-167c-4 0 -6 -2 -6 -6v-252c0 -4 2 -6 6 -6h167c98 0 152 49 152 133s-54 131 -152 131z" />
    <glyph glyph-name="Racute" unicode="&#x154;" horiz-adv-x="634" 
d="M365 888h40c6 0 8 -5 4 -10l-96 -105c-7 -8 -10 -9 -18 -9h-26c-6 0 -9 4 -4 10l82 104c5 7 10 10 18 10zM53 680h297c132 0 208 -69 208 -186c0 -91 -50 -155 -140 -177l110 -262c2 -4 4 -5 8 -5h56c6 0 10 -4 10 -10v-30c0 -6 -4 -10 -10 -10h-97c-6 0 -10 2 -13 9
l-124 299h-176c-4 0 -6 -2 -6 -6v-246c0 -4 2 -6 6 -6h60c6 0 10 -4 10 -10v-30c0 -6 -4 -10 -10 -10h-189c-6 0 -10 4 -10 10v30c0 6 4 10 10 10h60c4 0 6 2 6 6v568c0 4 -2 6 -6 6h-60c-6 0 -10 4 -10 10v30c0 6 4 10 10 10zM349 626h-167c-4 0 -6 -2 -6 -6v-252
c0 -4 2 -6 6 -6h167c98 0 152 49 152 133s-54 131 -152 131z" />
    <glyph glyph-name="Rcaron" unicode="&#x158;" horiz-adv-x="634" 
d="M390 895h25c6 0 8 -5 4 -10l-91 -122c-5 -7 -8 -9 -15 -9h-23c-7 0 -11 2 -16 9l-90 122c-4 5 -2 10 4 10h25c7 0 10 -2 17 -10l70 -85h2l71 85c6 8 9 10 17 10zM53 680h297c132 0 208 -69 208 -186c0 -91 -50 -155 -140 -177l110 -262c2 -4 4 -5 8 -5h56
c6 0 10 -4 10 -10v-30c0 -6 -4 -10 -10 -10h-97c-6 0 -10 2 -13 9l-124 299h-176c-4 0 -6 -2 -6 -6v-246c0 -4 2 -6 6 -6h60c6 0 10 -4 10 -10v-30c0 -6 -4 -10 -10 -10h-189c-6 0 -10 4 -10 10v30c0 6 4 10 10 10h60c4 0 6 2 6 6v568c0 4 -2 6 -6 6h-60c-6 0 -10 4 -10 10
v30c0 6 4 10 10 10zM349 626h-167c-4 0 -6 -2 -6 -6v-252c0 -4 2 -6 6 -6h167c98 0 152 49 152 133s-54 131 -152 131z" />
    <glyph glyph-name="Rcommaaccent" unicode="&#x156;" horiz-adv-x="634" 
d="M53 680h297c132 0 208 -69 208 -186c0 -91 -50 -155 -140 -177l110 -262c2 -4 4 -5 8 -5h56c6 0 10 -4 10 -10v-30c0 -6 -4 -10 -10 -10h-97c-6 0 -10 2 -13 9l-124 299h-176c-4 0 -6 -2 -6 -6v-246c0 -4 2 -6 6 -6h60c6 0 10 -4 10 -10v-30c0 -6 -4 -10 -10 -10h-189
c-6 0 -10 4 -10 10v30c0 6 4 10 10 10h60c4 0 6 2 6 6v568c0 4 -2 6 -6 6h-60c-6 0 -10 4 -10 10v30c0 6 4 10 10 10zM349 626h-167c-4 0 -6 -2 -6 -6v-252c0 -4 2 -6 6 -6h167c98 0 152 49 152 133s-54 131 -152 131zM301 -56h37c6 0 10 -4 10 -10v-42c0 -10 -1 -14 -5 -22
l-32 -57c-3 -6 -6 -8 -11 -8c-6 0 -9 3 -9 9v120c0 6 4 10 10 10z" />
    <glyph glyph-name="S" unicode="S" horiz-adv-x="587" 
d="M298 690c71 0 138 -19 181 -44c5 -3 7 -6 7 -11v-106c0 -6 -4 -10 -10 -10h-34c-6 0 -10 4 -10 10v70c0 6 -1 8 -6 10c-38 18 -80 27 -132 27c-104 0 -156 -51 -156 -127c0 -72 36 -113 153 -131l40 -6c134 -20 192 -81 192 -187c0 -117 -79 -195 -237 -195
c-79 0 -153 22 -207 56c-3 2 -5 5 -5 10v108c0 6 4 10 10 10h34c6 0 10 -4 10 -10v-73c0 -5 1 -7 5 -9c42 -22 93 -38 159 -38c109 0 173 51 173 137c0 71 -33 119 -157 137l-35 5c-135 19 -193 79 -193 182c0 117 81 185 218 185z" />
    <glyph glyph-name="Sacute" unicode="&#x15a;" horiz-adv-x="587" 
d="M356 888h40c6 0 8 -5 4 -10l-96 -105c-7 -8 -10 -9 -18 -9h-26c-6 0 -9 4 -4 10l82 104c5 7 10 10 18 10zM298 690c71 0 138 -19 181 -44c5 -3 7 -6 7 -11v-106c0 -6 -4 -10 -10 -10h-34c-6 0 -10 4 -10 10v70c0 6 -1 8 -6 10c-38 18 -80 27 -132 27
c-104 0 -156 -51 -156 -127c0 -72 36 -113 153 -131l40 -6c134 -20 192 -81 192 -187c0 -117 -79 -195 -237 -195c-79 0 -153 22 -207 56c-3 2 -5 5 -5 10v108c0 6 4 10 10 10h34c6 0 10 -4 10 -10v-73c0 -5 1 -7 5 -9c42 -22 93 -38 159 -38c109 0 173 51 173 137
c0 71 -33 119 -157 137l-35 5c-135 19 -193 79 -193 182c0 117 81 185 218 185z" />
    <glyph glyph-name="Scaron" unicode="&#x160;" horiz-adv-x="587" 
d="M380 895h25c6 0 8 -5 4 -10l-91 -122c-5 -7 -8 -9 -15 -9h-23c-7 0 -11 2 -16 9l-90 122c-4 5 -2 10 4 10h25c7 0 10 -2 17 -10l70 -85h2l71 85c6 8 9 10 17 10zM298 690c71 0 138 -19 181 -44c5 -3 7 -6 7 -11v-106c0 -6 -4 -10 -10 -10h-34c-6 0 -10 4 -10 10v70
c0 6 -1 8 -6 10c-38 18 -80 27 -132 27c-104 0 -156 -51 -156 -127c0 -72 36 -113 153 -131l40 -6c134 -20 192 -81 192 -187c0 -117 -79 -195 -237 -195c-79 0 -153 22 -207 56c-3 2 -5 5 -5 10v108c0 6 4 10 10 10h34c6 0 10 -4 10 -10v-73c0 -5 1 -7 5 -9
c42 -22 93 -38 159 -38c109 0 173 51 173 137c0 71 -33 119 -157 137l-35 5c-135 19 -193 79 -193 182c0 117 81 185 218 185z" />
    <glyph glyph-name="Scedilla" unicode="&#x15e;" horiz-adv-x="587" 
d="M298 690c71 0 138 -19 181 -44c5 -3 7 -6 7 -11v-106c0 -6 -4 -10 -10 -10h-34c-6 0 -10 4 -10 10v70c0 6 -1 8 -6 10c-38 18 -80 27 -132 27c-104 0 -156 -51 -156 -127c0 -72 36 -113 153 -131l40 -6c134 -20 192 -81 192 -187c0 -108 -68 -183 -203 -193l-43 -130
c-3 -8 -7 -10 -16 -10h-31c-6 0 -9 4 -7 10l50 128c-74 2 -143 24 -194 56c-3 2 -5 5 -5 10v108c0 6 4 10 10 10h34c6 0 10 -4 10 -10v-73c0 -5 1 -7 5 -9c42 -22 93 -38 159 -38c109 0 173 51 173 137c0 71 -33 119 -157 137l-35 5c-135 19 -193 79 -193 182
c0 117 81 185 218 185z" />
    <glyph glyph-name="Scircumflex" unicode="&#x15c;" horiz-adv-x="587" 
d="M280 896h23c7 0 10 -2 15 -9l91 -123c4 -5 2 -10 -4 -10h-25c-8 0 -11 2 -17 10l-71 85h-2l-70 -85c-7 -8 -10 -10 -17 -10h-25c-6 0 -8 5 -4 10l90 123c5 7 9 9 16 9zM298 690c71 0 138 -19 181 -44c5 -3 7 -6 7 -11v-106c0 -6 -4 -10 -10 -10h-34c-6 0 -10 4 -10 10v70
c0 6 -1 8 -6 10c-38 18 -80 27 -132 27c-104 0 -156 -51 -156 -127c0 -72 36 -113 153 -131l40 -6c134 -20 192 -81 192 -187c0 -117 -79 -195 -237 -195c-79 0 -153 22 -207 56c-3 2 -5 5 -5 10v108c0 6 4 10 10 10h34c6 0 10 -4 10 -10v-73c0 -5 1 -7 5 -9
c42 -22 93 -38 159 -38c109 0 173 51 173 137c0 71 -33 119 -157 137l-35 5c-135 19 -193 79 -193 182c0 117 81 185 218 185z" />
    <glyph glyph-name="Scommaaccent" unicode="&#x218;" horiz-adv-x="587" 
d="M298 690c71 0 138 -19 181 -44c5 -3 7 -6 7 -11v-106c0 -6 -4 -10 -10 -10h-34c-6 0 -10 4 -10 10v70c0 6 -1 8 -6 10c-38 18 -80 27 -132 27c-104 0 -156 -51 -156 -127c0 -72 36 -113 153 -131l40 -6c134 -20 192 -81 192 -187c0 -117 -79 -195 -237 -195
c-79 0 -153 22 -207 56c-3 2 -5 5 -5 10v108c0 6 4 10 10 10h34c6 0 10 -4 10 -10v-73c0 -5 1 -7 5 -9c42 -22 93 -38 159 -38c109 0 173 51 173 137c0 71 -33 119 -157 137l-35 5c-135 19 -193 79 -193 182c0 117 81 185 218 185zM275 -56h37c6 0 10 -4 10 -10v-42
c0 -10 -1 -14 -5 -22l-32 -57c-3 -6 -6 -8 -11 -8c-6 0 -9 3 -9 9v120c0 6 4 10 10 10z" />
    <glyph glyph-name="uni1E9E" unicode="&#x1e9e;" horiz-adv-x="660" 
d="M348 690c73 0 146 -22 198 -56c7 -5 9 -7 9 -14v-27c0 -4 -2 -9 -5 -13l-125 -156c119 -10 187 -65 187 -207c0 -144 -69 -223 -202 -223c-47 0 -91 12 -112 24c-7 3 -8 8 -6 14l11 29c2 6 7 9 13 6c33 -15 63 -20 92 -20c95 0 147 59 147 171c0 105 -48 158 -171 158
h-16c-6 0 -10 4 -10 10v29c0 4 1 8 4 12l134 170c-33 22 -94 40 -150 40c-103 0 -175 -64 -175 -182v-399c0 -4 2 -6 6 -6h56c6 0 10 -4 10 -10v-30c0 -6 -4 -10 -10 -10h-182c-6 0 -10 4 -10 10v30c0 6 4 10 10 10h57c4 0 6 2 6 6v400c0 145 91 234 234 234z" />
    <glyph glyph-name="T" unicode="T" horiz-adv-x="573" 
d="M35 680h503c6 0 10 -4 10 -10v-118c0 -6 -4 -10 -10 -10h-34c-6 0 -10 4 -10 10v69c0 4 -2 6 -6 6h-167c-4 0 -6 -2 -6 -6v-565c0 -4 2 -6 6 -6h63c6 0 10 -4 10 -10v-30c0 -6 -4 -10 -10 -10h-195c-6 0 -10 4 -10 10v30c0 6 4 10 10 10h63c4 0 6 2 6 6v565
c0 4 -2 6 -6 6h-167c-4 0 -6 -2 -6 -6v-69c0 -6 -4 -10 -10 -10h-34c-6 0 -10 4 -10 10v118c0 6 4 10 10 10z" />
    <glyph glyph-name="Tbar" unicode="&#x166;" horiz-adv-x="573" 
d="M35 680h503c6 0 10 -4 10 -10v-118c0 -6 -4 -10 -10 -10h-34c-6 0 -10 4 -10 10v69c0 4 -2 6 -6 6h-167c-4 0 -6 -2 -6 -6v-195c0 -4 2 -6 6 -6h105c6 0 10 -4 10 -10v-30c0 -6 -4 -10 -10 -10h-105c-4 0 -6 -2 -6 -6v-308c0 -4 2 -6 6 -6h63c6 0 10 -4 10 -10v-30
c0 -6 -4 -10 -10 -10h-195c-6 0 -10 4 -10 10v30c0 6 4 10 10 10h63c4 0 6 2 6 6v308c0 4 -2 6 -6 6h-105c-6 0 -10 4 -10 10v30c0 6 4 10 10 10h105c4 0 6 2 6 6v195c0 4 -2 6 -6 6h-167c-4 0 -6 -2 -6 -6v-69c0 -6 -4 -10 -10 -10h-34c-6 0 -10 4 -10 10v118
c0 6 4 10 10 10z" />
    <glyph glyph-name="Tcaron" unicode="&#x164;" horiz-adv-x="573" 
d="M374 895h25c6 0 8 -5 4 -10l-91 -122c-5 -7 -8 -9 -15 -9h-23c-7 0 -11 2 -16 9l-90 122c-4 5 -2 10 4 10h25c7 0 10 -2 17 -10l70 -85h2l71 85c6 8 9 10 17 10zM35 680h503c6 0 10 -4 10 -10v-118c0 -6 -4 -10 -10 -10h-34c-6 0 -10 4 -10 10v69c0 4 -2 6 -6 6h-167
c-4 0 -6 -2 -6 -6v-565c0 -4 2 -6 6 -6h63c6 0 10 -4 10 -10v-30c0 -6 -4 -10 -10 -10h-195c-6 0 -10 4 -10 10v30c0 6 4 10 10 10h63c4 0 6 2 6 6v565c0 4 -2 6 -6 6h-167c-4 0 -6 -2 -6 -6v-69c0 -6 -4 -10 -10 -10h-34c-6 0 -10 4 -10 10v118c0 6 4 10 10 10z" />
    <glyph glyph-name="uni0162" unicode="&#x162;" horiz-adv-x="573" 
d="M35 680h503c6 0 10 -4 10 -10v-118c0 -6 -4 -10 -10 -10h-34c-6 0 -10 4 -10 10v69c0 4 -2 6 -6 6h-167c-4 0 -6 -2 -6 -6v-565c0 -4 2 -6 6 -6h63c6 0 10 -4 10 -10v-30c0 -6 -4 -10 -10 -10h-195c-6 0 -10 4 -10 10v30c0 6 4 10 10 10h63c4 0 6 2 6 6v565
c0 4 -2 6 -6 6h-167c-4 0 -6 -2 -6 -6v-69c0 -6 -4 -10 -10 -10h-34c-6 0 -10 4 -10 10v118c0 6 4 10 10 10zM268 -56h37c6 0 10 -4 10 -10v-42c0 -10 -1 -14 -5 -22l-32 -57c-3 -6 -6 -8 -11 -8c-6 0 -9 3 -9 9v120c0 6 4 10 10 10z" />
    <glyph glyph-name="uni021A" unicode="&#x21a;" horiz-adv-x="573" 
d="M35 680h503c6 0 10 -4 10 -10v-118c0 -6 -4 -10 -10 -10h-34c-6 0 -10 4 -10 10v69c0 4 -2 6 -6 6h-167c-4 0 -6 -2 -6 -6v-565c0 -4 2 -6 6 -6h63c6 0 10 -4 10 -10v-30c0 -6 -4 -10 -10 -10h-195c-6 0 -10 4 -10 10v30c0 6 4 10 10 10h63c4 0 6 2 6 6v565
c0 4 -2 6 -6 6h-167c-4 0 -6 -2 -6 -6v-69c0 -6 -4 -10 -10 -10h-34c-6 0 -10 4 -10 10v118c0 6 4 10 10 10zM268 -56h37c6 0 10 -4 10 -10v-42c0 -10 -1 -14 -5 -22l-32 -57c-3 -6 -6 -8 -11 -8c-6 0 -9 3 -9 9v120c0 6 4 10 10 10z" />
    <glyph glyph-name="U" unicode="U" horiz-adv-x="665" 
d="M439 680h186c6 0 10 -4 10 -10v-30c0 -6 -4 -10 -10 -10h-58c-4 0 -6 -2 -6 -6v-389c0 -161 -86 -245 -229 -245c-142 0 -228 82 -228 245v389c0 4 -2 6 -6 6h-58c-6 0 -10 4 -10 10v30c0 6 4 10 10 10h186c6 0 10 -4 10 -10v-30c0 -6 -4 -10 -10 -10h-59
c-4 0 -6 -2 -6 -6v-389c0 -127 63 -191 171 -191c110 0 172 64 172 191v389c0 4 -2 6 -6 6h-59c-6 0 -10 4 -10 10v30c0 6 4 10 10 10z" />
    <glyph glyph-name="Uacute" unicode="&#xda;" horiz-adv-x="665" 
d="M397 888h40c6 0 8 -5 4 -10l-96 -105c-7 -8 -10 -9 -18 -9h-26c-6 0 -9 4 -4 10l82 104c5 7 10 10 18 10zM439 680h186c6 0 10 -4 10 -10v-30c0 -6 -4 -10 -10 -10h-58c-4 0 -6 -2 -6 -6v-389c0 -161 -86 -245 -229 -245c-142 0 -228 82 -228 245v389c0 4 -2 6 -6 6h-58
c-6 0 -10 4 -10 10v30c0 6 4 10 10 10h186c6 0 10 -4 10 -10v-30c0 -6 -4 -10 -10 -10h-59c-4 0 -6 -2 -6 -6v-389c0 -127 63 -191 171 -191c110 0 172 64 172 191v389c0 4 -2 6 -6 6h-59c-6 0 -10 4 -10 10v30c0 6 4 10 10 10z" />
    <glyph glyph-name="Ubreve" unicode="&#x16c;" horiz-adv-x="665" 
d="M428 881h19c6 0 10 -4 9 -10c-9 -61 -56 -103 -125 -103c-68 0 -116 42 -124 103c-1 6 3 10 9 10h19c7 0 10 -3 12 -10c11 -39 40 -59 84 -59c45 0 74 20 86 59c2 7 4 10 11 10zM439 680h186c6 0 10 -4 10 -10v-30c0 -6 -4 -10 -10 -10h-58c-4 0 -6 -2 -6 -6v-389
c0 -161 -86 -245 -229 -245c-142 0 -228 82 -228 245v389c0 4 -2 6 -6 6h-58c-6 0 -10 4 -10 10v30c0 6 4 10 10 10h186c6 0 10 -4 10 -10v-30c0 -6 -4 -10 -10 -10h-59c-4 0 -6 -2 -6 -6v-389c0 -127 63 -191 171 -191c110 0 172 64 172 191v389c0 4 -2 6 -6 6h-59
c-6 0 -10 4 -10 10v30c0 6 4 10 10 10z" />
    <glyph glyph-name="Ucircumflex" unicode="&#xdb;" horiz-adv-x="665" 
d="M320 896h23c7 0 10 -2 15 -9l91 -123c4 -5 2 -10 -4 -10h-25c-8 0 -11 2 -17 10l-71 85h-2l-70 -85c-7 -8 -10 -10 -17 -10h-25c-6 0 -8 5 -4 10l90 123c5 7 9 9 16 9zM439 680h186c6 0 10 -4 10 -10v-30c0 -6 -4 -10 -10 -10h-58c-4 0 -6 -2 -6 -6v-389
c0 -161 -86 -245 -229 -245c-142 0 -228 82 -228 245v389c0 4 -2 6 -6 6h-58c-6 0 -10 4 -10 10v30c0 6 4 10 10 10h186c6 0 10 -4 10 -10v-30c0 -6 -4 -10 -10 -10h-59c-4 0 -6 -2 -6 -6v-389c0 -127 63 -191 171 -191c110 0 172 64 172 191v389c0 4 -2 6 -6 6h-59
c-6 0 -10 4 -10 10v30c0 6 4 10 10 10z" />
    <glyph glyph-name="Udieresis" unicode="&#xdc;" horiz-adv-x="665" 
d="M212 862h39c6 0 10 -4 10 -10v-56c0 -6 -4 -10 -10 -10h-39c-6 0 -10 4 -10 10v56c0 6 4 10 10 10zM412 862h39c6 0 10 -4 10 -10v-56c0 -6 -4 -10 -10 -10h-39c-6 0 -10 4 -10 10v56c0 6 4 10 10 10zM439 680h186c6 0 10 -4 10 -10v-30c0 -6 -4 -10 -10 -10h-58
c-4 0 -6 -2 -6 -6v-389c0 -161 -86 -245 -229 -245c-142 0 -228 82 -228 245v389c0 4 -2 6 -6 6h-58c-6 0 -10 4 -10 10v30c0 6 4 10 10 10h186c6 0 10 -4 10 -10v-30c0 -6 -4 -10 -10 -10h-59c-4 0 -6 -2 -6 -6v-389c0 -127 63 -191 171 -191c110 0 172 64 172 191v389
c0 4 -2 6 -6 6h-59c-6 0 -10 4 -10 10v30c0 6 4 10 10 10z" />
    <glyph glyph-name="Ugrave" unicode="&#xd9;" horiz-adv-x="665" 
d="M225 888h40c8 0 13 -3 18 -10l82 -104c5 -6 2 -10 -4 -10h-26c-8 0 -11 1 -18 9l-96 105c-4 5 -2 10 4 10zM439 680h186c6 0 10 -4 10 -10v-30c0 -6 -4 -10 -10 -10h-58c-4 0 -6 -2 -6 -6v-389c0 -161 -86 -245 -229 -245c-142 0 -228 82 -228 245v389c0 4 -2 6 -6 6h-58
c-6 0 -10 4 -10 10v30c0 6 4 10 10 10h186c6 0 10 -4 10 -10v-30c0 -6 -4 -10 -10 -10h-59c-4 0 -6 -2 -6 -6v-389c0 -127 63 -191 171 -191c110 0 172 64 172 191v389c0 4 -2 6 -6 6h-59c-6 0 -10 4 -10 10v30c0 6 4 10 10 10z" />
    <glyph glyph-name="Uhungarumlaut" unicode="&#x170;" horiz-adv-x="665" 
d="M330 889h33c6 0 8 -5 4 -10l-75 -105c-5 -7 -9 -10 -16 -10h-25c-6 0 -8 5 -4 10l67 105c4 7 8 10 16 10zM454 889h34c6 0 8 -5 4 -10l-76 -105c-5 -7 -8 -10 -16 -10h-25c-6 0 -8 5 -4 10l67 105c5 7 8 10 16 10zM439 680h186c6 0 10 -4 10 -10v-30c0 -6 -4 -10 -10 -10
h-58c-4 0 -6 -2 -6 -6v-389c0 -161 -86 -245 -229 -245c-142 0 -228 82 -228 245v389c0 4 -2 6 -6 6h-58c-6 0 -10 4 -10 10v30c0 6 4 10 10 10h186c6 0 10 -4 10 -10v-30c0 -6 -4 -10 -10 -10h-59c-4 0 -6 -2 -6 -6v-389c0 -127 63 -191 171 -191c110 0 172 64 172 191v389
c0 4 -2 6 -6 6h-59c-6 0 -10 4 -10 10v30c0 6 4 10 10 10z" />
    <glyph glyph-name="Umacron" unicode="&#x16a;" horiz-adv-x="665" 
d="M212 846h240c6 0 10 -4 10 -10v-26c0 -6 -4 -10 -10 -10h-240c-6 0 -10 4 -10 10v26c0 6 4 10 10 10zM439 680h186c6 0 10 -4 10 -10v-30c0 -6 -4 -10 -10 -10h-58c-4 0 -6 -2 -6 -6v-389c0 -161 -86 -245 -229 -245c-142 0 -228 82 -228 245v389c0 4 -2 6 -6 6h-58
c-6 0 -10 4 -10 10v30c0 6 4 10 10 10h186c6 0 10 -4 10 -10v-30c0 -6 -4 -10 -10 -10h-59c-4 0 -6 -2 -6 -6v-389c0 -127 63 -191 171 -191c110 0 172 64 172 191v389c0 4 -2 6 -6 6h-59c-6 0 -10 4 -10 10v30c0 6 4 10 10 10z" />
    <glyph glyph-name="Uogonek" unicode="&#x172;" horiz-adv-x="665" 
d="M439 680h186c6 0 10 -4 10 -10v-30c0 -6 -4 -10 -10 -10h-58c-4 0 -6 -2 -6 -6v-389c0 -147 -72 -230 -192 -243c-47 -48 -54 -69 -54 -89c0 -18 11 -28 29 -28c9 0 19 3 28 9c5 3 10 2 13 -3l10 -19c3 -5 2 -11 -3 -15c-12 -10 -35 -19 -56 -19c-43 0 -70 25 -70 68
c0 27 12 54 48 95c-131 6 -210 88 -210 244v389c0 4 -2 6 -6 6h-58c-6 0 -10 4 -10 10v30c0 6 4 10 10 10h186c6 0 10 -4 10 -10v-30c0 -6 -4 -10 -10 -10h-59c-4 0 -6 -2 -6 -6v-389c0 -127 63 -191 171 -191c110 0 172 64 172 191v389c0 4 -2 6 -6 6h-59
c-6 0 -10 4 -10 10v30c0 6 4 10 10 10z" />
    <glyph glyph-name="Uring" unicode="&#x16e;" horiz-adv-x="665" 
d="M331 914c51 0 88 -37 88 -88s-37 -88 -88 -88s-88 37 -88 88s37 88 88 88zM331 882c-32 0 -53 -24 -53 -56s21 -56 53 -56s53 24 53 56s-21 56 -53 56zM439 680h186c6 0 10 -4 10 -10v-30c0 -6 -4 -10 -10 -10h-58c-4 0 -6 -2 -6 -6v-389c0 -161 -86 -245 -229 -245
c-142 0 -228 82 -228 245v389c0 4 -2 6 -6 6h-58c-6 0 -10 4 -10 10v30c0 6 4 10 10 10h186c6 0 10 -4 10 -10v-30c0 -6 -4 -10 -10 -10h-59c-4 0 -6 -2 -6 -6v-389c0 -127 63 -191 171 -191c110 0 172 64 172 191v389c0 4 -2 6 -6 6h-59c-6 0 -10 4 -10 10v30
c0 6 4 10 10 10z" />
    <glyph glyph-name="Utilde" unicode="&#x168;" horiz-adv-x="665" 
d="M278 866c24 0 43 -9 60 -20c16 -10 31 -18 49 -18c23 0 40 13 59 33c4 4 8 2 8 -3v-30c0 -6 -1 -9 -7 -16c-17 -17 -37 -30 -62 -30c-24 0 -42 10 -60 21c-16 10 -31 18 -49 18c-23 0 -39 -14 -58 -33c-5 -4 -9 -2 -9 3v30c0 6 2 9 8 15c16 18 36 30 61 30zM439 680h186
c6 0 10 -4 10 -10v-30c0 -6 -4 -10 -10 -10h-58c-4 0 -6 -2 -6 -6v-389c0 -161 -86 -245 -229 -245c-142 0 -228 82 -228 245v389c0 4 -2 6 -6 6h-58c-6 0 -10 4 -10 10v30c0 6 4 10 10 10h186c6 0 10 -4 10 -10v-30c0 -6 -4 -10 -10 -10h-59c-4 0 -6 -2 -6 -6v-389
c0 -127 63 -191 171 -191c110 0 172 64 172 191v389c0 4 -2 6 -6 6h-59c-6 0 -10 4 -10 10v30c0 6 4 10 10 10z" />
    <glyph glyph-name="V" unicode="V" horiz-adv-x="605" 
d="M419 680h169c6 0 10 -4 10 -10v-30c0 -6 -4 -10 -10 -10h-33c-3 0 -5 -1 -7 -6l-214 -614c-2 -6 -5 -10 -11 -10h-40c-6 0 -10 4 -12 10l-214 615c-1 3 -3 5 -8 5h-32c-6 0 -10 4 -10 10v30c0 6 4 10 10 10h169c6 0 10 -4 10 -10v-30c0 -6 -4 -10 -10 -10h-64
c-5 0 -7 -3 -5 -8l186 -538h2l185 540c1 4 -1 6 -5 6h-66c-6 0 -10 4 -10 10v30c0 6 4 10 10 10z" />
    <glyph glyph-name="W" unicode="W" horiz-adv-x="863" 
d="M674 680h168c6 0 10 -4 10 -10v-30c0 -6 -4 -10 -10 -10h-33c-4 0 -7 -2 -8 -6l-150 -614c-1 -6 -6 -10 -12 -10h-35c-6 0 -9 3 -11 10l-160 561h-2l-161 -561c-2 -7 -5 -10 -11 -10h-35c-6 0 -10 4 -12 10l-151 615c-1 3 -3 5 -8 5h-32c-6 0 -10 4 -10 10v30
c0 6 4 10 10 10h167c6 0 10 -4 10 -10v-30c0 -6 -4 -10 -10 -10h-61c-5 0 -7 -3 -6 -8l123 -515h2l156 563c2 7 5 10 12 10h35c7 0 10 -3 12 -10l159 -561h2l123 514c1 4 -1 7 -5 7h-66c-6 0 -10 4 -10 10v30c0 6 4 10 10 10z" />
    <glyph glyph-name="Wacute" unicode="&#x1e82;" horiz-adv-x="863" 
d="M515 888h40c6 0 8 -5 4 -10l-96 -105c-7 -8 -10 -9 -18 -9h-26c-6 0 -9 4 -4 10l82 104c5 7 10 10 18 10zM674 680h168c6 0 10 -4 10 -10v-30c0 -6 -4 -10 -10 -10h-33c-4 0 -7 -2 -8 -6l-150 -614c-1 -6 -6 -10 -12 -10h-35c-6 0 -9 3 -11 10l-160 561h-2l-161 -561
c-2 -7 -5 -10 -11 -10h-35c-6 0 -10 4 -12 10l-151 615c-1 3 -3 5 -8 5h-32c-6 0 -10 4 -10 10v30c0 6 4 10 10 10h167c6 0 10 -4 10 -10v-30c0 -6 -4 -10 -10 -10h-61c-5 0 -7 -3 -6 -8l123 -515h2l156 563c2 7 5 10 12 10h35c7 0 10 -3 12 -10l159 -561h2l123 514
c1 4 -1 7 -5 7h-66c-6 0 -10 4 -10 10v30c0 6 4 10 10 10z" />
    <glyph glyph-name="Wcircumflex" unicode="&#x174;" horiz-adv-x="863" 
d="M419 896h23c7 0 10 -2 15 -9l91 -123c4 -5 2 -10 -4 -10h-25c-8 0 -11 2 -17 10l-71 85h-2l-70 -85c-7 -8 -10 -10 -17 -10h-25c-6 0 -8 5 -4 10l90 123c5 7 9 9 16 9zM674 680h168c6 0 10 -4 10 -10v-30c0 -6 -4 -10 -10 -10h-33c-4 0 -7 -2 -8 -6l-150 -614
c-1 -6 -6 -10 -12 -10h-35c-6 0 -9 3 -11 10l-160 561h-2l-161 -561c-2 -7 -5 -10 -11 -10h-35c-6 0 -10 4 -12 10l-151 615c-1 3 -3 5 -8 5h-32c-6 0 -10 4 -10 10v30c0 6 4 10 10 10h167c6 0 10 -4 10 -10v-30c0 -6 -4 -10 -10 -10h-61c-5 0 -7 -3 -6 -8l123 -515h2
l156 563c2 7 5 10 12 10h35c7 0 10 -3 12 -10l159 -561h2l123 514c1 4 -1 7 -5 7h-66c-6 0 -10 4 -10 10v30c0 6 4 10 10 10z" />
    <glyph glyph-name="Wdieresis" unicode="&#x1e84;" horiz-adv-x="863" 
d="M311 862h39c6 0 10 -4 10 -10v-56c0 -6 -4 -10 -10 -10h-39c-6 0 -10 4 -10 10v56c0 6 4 10 10 10zM511 862h39c6 0 10 -4 10 -10v-56c0 -6 -4 -10 -10 -10h-39c-6 0 -10 4 -10 10v56c0 6 4 10 10 10zM674 680h168c6 0 10 -4 10 -10v-30c0 -6 -4 -10 -10 -10h-33
c-4 0 -7 -2 -8 -6l-150 -614c-1 -6 -6 -10 -12 -10h-35c-6 0 -9 3 -11 10l-160 561h-2l-161 -561c-2 -7 -5 -10 -11 -10h-35c-6 0 -10 4 -12 10l-151 615c-1 3 -3 5 -8 5h-32c-6 0 -10 4 -10 10v30c0 6 4 10 10 10h167c6 0 10 -4 10 -10v-30c0 -6 -4 -10 -10 -10h-61
c-5 0 -7 -3 -6 -8l123 -515h2l156 563c2 7 5 10 12 10h35c7 0 10 -3 12 -10l159 -561h2l123 514c1 4 -1 7 -5 7h-66c-6 0 -10 4 -10 10v30c0 6 4 10 10 10z" />
    <glyph glyph-name="Wgrave" unicode="&#x1e80;" horiz-adv-x="863" 
d="M309 888h40c8 0 13 -3 18 -10l82 -104c5 -6 2 -10 -4 -10h-26c-8 0 -11 1 -18 9l-96 105c-4 5 -2 10 4 10zM674 680h168c6 0 10 -4 10 -10v-30c0 -6 -4 -10 -10 -10h-33c-4 0 -7 -2 -8 -6l-150 -614c-1 -6 -6 -10 -12 -10h-35c-6 0 -9 3 -11 10l-160 561h-2l-161 -561
c-2 -7 -5 -10 -11 -10h-35c-6 0 -10 4 -12 10l-151 615c-1 3 -3 5 -8 5h-32c-6 0 -10 4 -10 10v30c0 6 4 10 10 10h167c6 0 10 -4 10 -10v-30c0 -6 -4 -10 -10 -10h-61c-5 0 -7 -3 -6 -8l123 -515h2l156 563c2 7 5 10 12 10h35c7 0 10 -3 12 -10l159 -561h2l123 514
c1 4 -1 7 -5 7h-66c-6 0 -10 4 -10 10v30c0 6 4 10 10 10z" />
    <glyph glyph-name="X" unicode="X" horiz-adv-x="584" 
d="M372 680h168c6 0 10 -4 10 -10v-30c0 -6 -4 -10 -10 -10h-31c-4 0 -7 -2 -10 -6l-172 -268l192 -300c3 -4 6 -6 10 -6h33c6 0 10 -4 10 -10v-30c0 -6 -4 -10 -10 -10h-169c-6 0 -10 4 -10 10v30c0 6 4 10 10 10h58c4 0 6 3 4 7l-163 255h-1l-162 -254c-3 -5 -1 -8 4 -8
h58c6 0 10 -4 10 -10v-30c0 -6 -4 -10 -10 -10h-169c-6 0 -10 4 -10 10v30c0 6 4 10 10 10h32c5 0 8 2 10 5l193 301l-173 269c-2 3 -4 5 -9 5h-31c-6 0 -10 4 -10 10v30c0 6 4 10 10 10h169c6 0 10 -4 10 -10v-30c0 -6 -4 -10 -10 -10h-59c-5 0 -7 -3 -4 -8l142 -222h1
l142 223c2 4 0 7 -4 7h-59c-6 0 -10 4 -10 10v30c0 6 4 10 10 10z" />
    <glyph glyph-name="Y" unicode="Y" horiz-adv-x="545" 
d="M360 680h168c6 0 10 -4 10 -10v-30c0 -6 -4 -10 -10 -10h-32c-4 0 -6 -1 -9 -6l-186 -345v-223c0 -4 2 -6 6 -6h62c6 0 10 -4 10 -10v-30c0 -6 -4 -10 -10 -10h-193c-6 0 -10 4 -10 10v30c0 6 4 10 10 10h62c4 0 6 2 6 6v223l-187 344c-2 4 -4 7 -9 7h-31
c-6 0 -10 4 -10 10v30c0 6 4 10 10 10h168c6 0 10 -4 10 -10v-30c0 -6 -4 -10 -10 -10h-58c-5 0 -7 -4 -5 -8l151 -281h2l151 282c2 4 -1 7 -5 7h-61c-6 0 -10 4 -10 10v30c0 6 4 10 10 10z" />
    <glyph glyph-name="Yacute" unicode="&#xdd;" horiz-adv-x="545" 
d="M346 888h40c6 0 8 -5 4 -10l-96 -105c-7 -8 -10 -9 -18 -9h-26c-6 0 -9 4 -4 10l82 104c5 7 10 10 18 10zM360 680h168c6 0 10 -4 10 -10v-30c0 -6 -4 -10 -10 -10h-32c-4 0 -6 -1 -9 -6l-186 -345v-223c0 -4 2 -6 6 -6h62c6 0 10 -4 10 -10v-30c0 -6 -4 -10 -10 -10
h-193c-6 0 -10 4 -10 10v30c0 6 4 10 10 10h62c4 0 6 2 6 6v223l-187 344c-2 4 -4 7 -9 7h-31c-6 0 -10 4 -10 10v30c0 6 4 10 10 10h168c6 0 10 -4 10 -10v-30c0 -6 -4 -10 -10 -10h-58c-5 0 -7 -4 -5 -8l151 -281h2l151 282c2 4 -1 7 -5 7h-61c-6 0 -10 4 -10 10v30
c0 6 4 10 10 10z" />
    <glyph glyph-name="Ycircumflex" unicode="&#x176;" horiz-adv-x="545" 
d="M260 896h23c7 0 10 -2 15 -9l91 -123c4 -5 2 -10 -4 -10h-25c-8 0 -11 2 -17 10l-71 85h-2l-70 -85c-7 -8 -10 -10 -17 -10h-25c-6 0 -8 5 -4 10l90 123c5 7 9 9 16 9zM360 680h168c6 0 10 -4 10 -10v-30c0 -6 -4 -10 -10 -10h-32c-4 0 -6 -1 -9 -6l-186 -345v-223
c0 -4 2 -6 6 -6h62c6 0 10 -4 10 -10v-30c0 -6 -4 -10 -10 -10h-193c-6 0 -10 4 -10 10v30c0 6 4 10 10 10h62c4 0 6 2 6 6v223l-187 344c-2 4 -4 7 -9 7h-31c-6 0 -10 4 -10 10v30c0 6 4 10 10 10h168c6 0 10 -4 10 -10v-30c0 -6 -4 -10 -10 -10h-58c-5 0 -7 -4 -5 -8
l151 -281h2l151 282c2 4 -1 7 -5 7h-61c-6 0 -10 4 -10 10v30c0 6 4 10 10 10z" />
    <glyph glyph-name="Ydieresis" unicode="&#x178;" horiz-adv-x="545" 
d="M152 862h39c6 0 10 -4 10 -10v-56c0 -6 -4 -10 -10 -10h-39c-6 0 -10 4 -10 10v56c0 6 4 10 10 10zM352 862h39c6 0 10 -4 10 -10v-56c0 -6 -4 -10 -10 -10h-39c-6 0 -10 4 -10 10v56c0 6 4 10 10 10zM360 680h168c6 0 10 -4 10 -10v-30c0 -6 -4 -10 -10 -10h-32
c-4 0 -6 -1 -9 -6l-186 -345v-223c0 -4 2 -6 6 -6h62c6 0 10 -4 10 -10v-30c0 -6 -4 -10 -10 -10h-193c-6 0 -10 4 -10 10v30c0 6 4 10 10 10h62c4 0 6 2 6 6v223l-187 344c-2 4 -4 7 -9 7h-31c-6 0 -10 4 -10 10v30c0 6 4 10 10 10h168c6 0 10 -4 10 -10v-30
c0 -6 -4 -10 -10 -10h-58c-5 0 -7 -4 -5 -8l151 -281h2l151 282c2 4 -1 7 -5 7h-61c-6 0 -10 4 -10 10v30c0 6 4 10 10 10z" />
    <glyph glyph-name="Ygrave" unicode="&#x1ef2;" horiz-adv-x="545" 
d="M162 888h40c8 0 13 -3 18 -10l82 -104c5 -6 2 -10 -4 -10h-26c-8 0 -11 1 -18 9l-96 105c-4 5 -2 10 4 10zM360 680h168c6 0 10 -4 10 -10v-30c0 -6 -4 -10 -10 -10h-32c-4 0 -6 -1 -9 -6l-186 -345v-223c0 -4 2 -6 6 -6h62c6 0 10 -4 10 -10v-30c0 -6 -4 -10 -10 -10
h-193c-6 0 -10 4 -10 10v30c0 6 4 10 10 10h62c4 0 6 2 6 6v223l-187 344c-2 4 -4 7 -9 7h-31c-6 0 -10 4 -10 10v30c0 6 4 10 10 10h168c6 0 10 -4 10 -10v-30c0 -6 -4 -10 -10 -10h-58c-5 0 -7 -4 -5 -8l151 -281h2l151 282c2 4 -1 7 -5 7h-61c-6 0 -10 4 -10 10v30
c0 6 4 10 10 10z" />
    <glyph glyph-name="Z" unicode="Z" horiz-adv-x="540" 
d="M69 680h414c6 0 10 -4 10 -10v-34c0 -5 -1 -8 -4 -13l-377 -568v-1h321c4 0 6 2 6 6v70c0 6 4 10 10 10h34c6 0 10 -4 10 -10v-120c0 -6 -4 -10 -10 -10h-428c-6 0 -10 4 -10 10v34c0 5 1 9 5 14l376 567v1h-307c-4 0 -6 -2 -6 -6v-68c0 -6 -4 -10 -10 -10h-34
c-6 0 -10 4 -10 10v118c0 6 4 10 10 10z" />
    <glyph glyph-name="Zacute" unicode="&#x179;" horiz-adv-x="540" 
d="M333 888h40c6 0 8 -5 4 -10l-96 -105c-7 -8 -10 -9 -18 -9h-26c-6 0 -9 4 -4 10l82 104c5 7 10 10 18 10zM69 680h414c6 0 10 -4 10 -10v-34c0 -5 -1 -8 -4 -13l-377 -568v-1h321c4 0 6 2 6 6v70c0 6 4 10 10 10h34c6 0 10 -4 10 -10v-120c0 -6 -4 -10 -10 -10h-428
c-6 0 -10 4 -10 10v34c0 5 1 9 5 14l376 567v1h-307c-4 0 -6 -2 -6 -6v-68c0 -6 -4 -10 -10 -10h-34c-6 0 -10 4 -10 10v118c0 6 4 10 10 10z" />
    <glyph glyph-name="Zcaron" unicode="&#x17d;" horiz-adv-x="540" 
d="M360 895h25c6 0 8 -5 4 -10l-91 -122c-5 -7 -8 -9 -15 -9h-23c-7 0 -11 2 -16 9l-90 122c-4 5 -2 10 4 10h25c7 0 10 -2 17 -10l70 -85h2l71 85c6 8 9 10 17 10zM69 680h414c6 0 10 -4 10 -10v-34c0 -5 -1 -8 -4 -13l-377 -568v-1h321c4 0 6 2 6 6v70c0 6 4 10 10 10h34
c6 0 10 -4 10 -10v-120c0 -6 -4 -10 -10 -10h-428c-6 0 -10 4 -10 10v34c0 5 1 9 5 14l376 567v1h-307c-4 0 -6 -2 -6 -6v-68c0 -6 -4 -10 -10 -10h-34c-6 0 -10 4 -10 10v118c0 6 4 10 10 10z" />
    <glyph glyph-name="Zdotaccent" unicode="&#x17b;" horiz-adv-x="540" 
d="M249 862h44c6 0 10 -4 10 -10v-56c0 -6 -4 -10 -10 -10h-44c-6 0 -10 4 -10 10v56c0 6 4 10 10 10zM69 680h414c6 0 10 -4 10 -10v-34c0 -5 -1 -8 -4 -13l-377 -568v-1h321c4 0 6 2 6 6v70c0 6 4 10 10 10h34c6 0 10 -4 10 -10v-120c0 -6 -4 -10 -10 -10h-428
c-6 0 -10 4 -10 10v34c0 5 1 9 5 14l376 567v1h-307c-4 0 -6 -2 -6 -6v-68c0 -6 -4 -10 -10 -10h-34c-6 0 -10 4 -10 10v118c0 6 4 10 10 10z" />
    <glyph glyph-name="Z.alt01" horiz-adv-x="540" 
d="M69 680h414c6 0 10 -4 10 -10v-35c0 -4 -1 -7 -4 -12l-169 -253h106c6 0 10 -4 10 -10v-30c0 -6 -4 -10 -10 -10h-139l-176 -265v-1h322c4 0 6 2 6 6v67c0 6 4 10 10 10h34c6 0 10 -4 10 -10v-117c0 -6 -4 -10 -10 -10h-428c-6 0 -10 4 -10 10v35c0 4 1 8 5 13l173 262
h-101c-6 0 -10 4 -10 10v30c0 6 4 10 10 10h134l170 255v1h-307c-4 0 -6 -2 -6 -6v-65c0 -6 -4 -10 -10 -10h-34c-6 0 -10 4 -10 10v115c0 6 4 10 10 10z" />
    <glyph glyph-name="Zacute.alt01" horiz-adv-x="540" 
d="M334 888h40c6 0 8 -5 4 -10l-96 -105c-7 -8 -10 -9 -18 -9h-26c-6 0 -9 4 -4 10l82 104c5 7 10 10 18 10zM69 680h414c6 0 10 -4 10 -10v-35c0 -4 -1 -7 -4 -12l-169 -253h106c6 0 10 -4 10 -10v-30c0 -6 -4 -10 -10 -10h-139l-176 -265v-1h322c4 0 6 2 6 6v67
c0 6 4 10 10 10h34c6 0 10 -4 10 -10v-117c0 -6 -4 -10 -10 -10h-428c-6 0 -10 4 -10 10v35c0 4 1 8 5 13l173 262h-101c-6 0 -10 4 -10 10v30c0 6 4 10 10 10h134l170 255v1h-307c-4 0 -6 -2 -6 -6v-65c0 -6 -4 -10 -10 -10h-34c-6 0 -10 4 -10 10v115c0 6 4 10 10 10z" />
    <glyph glyph-name="Zcaron.alt01" horiz-adv-x="540" 
d="M361 895h25c6 0 8 -5 4 -10l-91 -122c-5 -7 -8 -9 -15 -9h-23c-7 0 -11 2 -16 9l-90 122c-4 5 -2 10 4 10h25c7 0 10 -2 17 -10l70 -85h2l71 85c6 8 9 10 17 10zM69 680h414c6 0 10 -4 10 -10v-35c0 -4 -1 -7 -4 -12l-169 -253h106c6 0 10 -4 10 -10v-30
c0 -6 -4 -10 -10 -10h-139l-176 -265v-1h322c4 0 6 2 6 6v67c0 6 4 10 10 10h34c6 0 10 -4 10 -10v-117c0 -6 -4 -10 -10 -10h-428c-6 0 -10 4 -10 10v35c0 4 1 8 5 13l173 262h-101c-6 0 -10 4 -10 10v30c0 6 4 10 10 10h134l170 255v1h-307c-4 0 -6 -2 -6 -6v-65
c0 -6 -4 -10 -10 -10h-34c-6 0 -10 4 -10 10v115c0 6 4 10 10 10z" />
    <glyph glyph-name="Zdotaccent.alt01" horiz-adv-x="540" 
d="M250 862h44c6 0 10 -4 10 -10v-56c0 -6 -4 -10 -10 -10h-44c-6 0 -10 4 -10 10v56c0 6 4 10 10 10zM69 680h414c6 0 10 -4 10 -10v-35c0 -4 -1 -7 -4 -12l-169 -253h106c6 0 10 -4 10 -10v-30c0 -6 -4 -10 -10 -10h-139l-176 -265v-1h322c4 0 6 2 6 6v67c0 6 4 10 10 10
h34c6 0 10 -4 10 -10v-117c0 -6 -4 -10 -10 -10h-428c-6 0 -10 4 -10 10v35c0 4 1 8 5 13l173 262h-101c-6 0 -10 4 -10 10v30c0 6 4 10 10 10h134l170 255v1h-307c-4 0 -6 -2 -6 -6v-65c0 -6 -4 -10 -10 -10h-34c-6 0 -10 4 -10 10v115c0 6 4 10 10 10z" />
    <glyph glyph-name="a" unicode="a" horiz-adv-x="518" 
d="M243 487c119 0 170 -41 170 -158v-273c0 -4 2 -6 6 -6h56c6 0 10 -4 10 -10v-30c0 -6 -4 -10 -10 -10h-104c-6 0 -10 4 -10 10v50h-1c-19 -40 -68 -70 -146 -70c-96 0 -160 48 -160 141c0 95 66 141 181 141h119c4 0 6 2 6 6v48c0 79 -27 112 -119 112
c-37 0 -72 -7 -96 -18c-4 -2 -5 -3 -5 -7v-59c0 -6 -4 -10 -10 -10h-33c-6 0 -10 4 -10 10v86c0 6 2 10 7 13c37 21 92 34 149 34zM354 226h-112c-94 0 -135 -31 -135 -94c0 -60 42 -93 118 -93c82 0 135 42 135 108v73c0 4 -2 6 -6 6z" />
    <glyph glyph-name="aacute" unicode="&#xe1;" horiz-adv-x="518" 
d="M312 700h38c6 0 9 -5 5 -10l-88 -122c-6 -7 -10 -10 -18 -10h-25c-6 0 -9 4 -6 10l77 122c4 7 9 10 17 10zM243 487c119 0 170 -41 170 -158v-273c0 -4 2 -6 6 -6h56c6 0 10 -4 10 -10v-30c0 -6 -4 -10 -10 -10h-104c-6 0 -10 4 -10 10v50h-1c-19 -40 -68 -70 -146 -70
c-96 0 -160 48 -160 141c0 95 66 141 181 141h119c4 0 6 2 6 6v48c0 79 -27 112 -119 112c-37 0 -72 -7 -96 -18c-4 -2 -5 -3 -5 -7v-59c0 -6 -4 -10 -10 -10h-33c-6 0 -10 4 -10 10v86c0 6 2 10 7 13c37 21 92 34 149 34zM354 226h-112c-94 0 -135 -31 -135 -94
c0 -60 42 -93 118 -93c82 0 135 42 135 108v73c0 4 -2 6 -6 6z" />
    <glyph glyph-name="abreve" unicode="&#x103;" horiz-adv-x="518" 
d="M341 684h19c6 0 10 -4 9 -10c-9 -61 -56 -104 -125 -104c-68 0 -116 43 -124 104c-1 6 3 10 9 10h19c7 0 10 -4 12 -10c11 -39 40 -60 84 -60c45 0 74 21 86 60c2 6 4 10 11 10zM243 487c119 0 170 -41 170 -158v-273c0 -4 2 -6 6 -6h56c6 0 10 -4 10 -10v-30
c0 -6 -4 -10 -10 -10h-104c-6 0 -10 4 -10 10v50h-1c-19 -40 -68 -70 -146 -70c-96 0 -160 48 -160 141c0 95 66 141 181 141h119c4 0 6 2 6 6v48c0 79 -27 112 -119 112c-37 0 -72 -7 -96 -18c-4 -2 -5 -3 -5 -7v-59c0 -6 -4 -10 -10 -10h-33c-6 0 -10 4 -10 10v86
c0 6 2 10 7 13c37 21 92 34 149 34zM354 226h-112c-94 0 -135 -31 -135 -94c0 -60 42 -93 118 -93c82 0 135 42 135 108v73c0 4 -2 6 -6 6z" />
    <glyph glyph-name="acircumflex" unicode="&#xe2;" horiz-adv-x="518" 
d="M235 700h23c7 0 10 -2 15 -9l91 -123c4 -5 2 -10 -4 -10h-25c-8 0 -11 2 -17 10l-71 85h-2l-70 -85c-7 -8 -10 -10 -17 -10h-25c-6 0 -8 5 -4 10l90 123c5 7 9 9 16 9zM243 487c119 0 170 -41 170 -158v-273c0 -4 2 -6 6 -6h56c6 0 10 -4 10 -10v-30c0 -6 -4 -10 -10 -10
h-104c-6 0 -10 4 -10 10v50h-1c-19 -40 -68 -70 -146 -70c-96 0 -160 48 -160 141c0 95 66 141 181 141h119c4 0 6 2 6 6v48c0 79 -27 112 -119 112c-37 0 -72 -7 -96 -18c-4 -2 -5 -3 -5 -7v-59c0 -6 -4 -10 -10 -10h-33c-6 0 -10 4 -10 10v86c0 6 2 10 7 13
c37 21 92 34 149 34zM354 226h-112c-94 0 -135 -31 -135 -94c0 -60 42 -93 118 -93c82 0 135 42 135 108v73c0 4 -2 6 -6 6z" />
    <glyph glyph-name="adieresis" unicode="&#xe4;" horiz-adv-x="518" 
d="M126 680h40c6 0 10 -4 10 -10v-56c0 -6 -4 -10 -10 -10h-40c-6 0 -10 4 -10 10v56c0 6 4 10 10 10zM325 680h40c6 0 10 -4 10 -10v-56c0 -6 -4 -10 -10 -10h-40c-6 0 -10 4 -10 10v56c0 6 4 10 10 10zM243 487c119 0 170 -41 170 -158v-273c0 -4 2 -6 6 -6h56
c6 0 10 -4 10 -10v-30c0 -6 -4 -10 -10 -10h-104c-6 0 -10 4 -10 10v50h-1c-19 -40 -68 -70 -146 -70c-96 0 -160 48 -160 141c0 95 66 141 181 141h119c4 0 6 2 6 6v48c0 79 -27 112 -119 112c-37 0 -72 -7 -96 -18c-4 -2 -5 -3 -5 -7v-59c0 -6 -4 -10 -10 -10h-33
c-6 0 -10 4 -10 10v86c0 6 2 10 7 13c37 21 92 34 149 34zM354 226h-112c-94 0 -135 -31 -135 -94c0 -60 42 -93 118 -93c82 0 135 42 135 108v73c0 4 -2 6 -6 6z" />
    <glyph glyph-name="agrave" unicode="&#xe0;" horiz-adv-x="518" 
d="M170 700h38c8 0 12 -3 16 -10l77 -122c4 -6 1 -10 -5 -10h-25c-8 0 -13 3 -18 10l-88 122c-4 5 -1 10 5 10zM243 487c119 0 170 -41 170 -158v-273c0 -4 2 -6 6 -6h56c6 0 10 -4 10 -10v-30c0 -6 -4 -10 -10 -10h-104c-6 0 -10 4 -10 10v50h-1c-19 -40 -68 -70 -146 -70
c-96 0 -160 48 -160 141c0 95 66 141 181 141h119c4 0 6 2 6 6v48c0 79 -27 112 -119 112c-37 0 -72 -7 -96 -18c-4 -2 -5 -3 -5 -7v-59c0 -6 -4 -10 -10 -10h-33c-6 0 -10 4 -10 10v86c0 6 2 10 7 13c37 21 92 34 149 34zM354 226h-112c-94 0 -135 -31 -135 -94
c0 -60 42 -93 118 -93c82 0 135 42 135 108v73c0 4 -2 6 -6 6z" />
    <glyph glyph-name="amacron" unicode="&#x101;" horiz-adv-x="518" 
d="M126 664h240c6 0 10 -4 10 -10v-26c0 -6 -4 -10 -10 -10h-240c-6 0 -10 4 -10 10v26c0 6 4 10 10 10zM243 487c119 0 170 -41 170 -158v-273c0 -4 2 -6 6 -6h56c6 0 10 -4 10 -10v-30c0 -6 -4 -10 -10 -10h-104c-6 0 -10 4 -10 10v50h-1c-19 -40 -68 -70 -146 -70
c-96 0 -160 48 -160 141c0 95 66 141 181 141h119c4 0 6 2 6 6v48c0 79 -27 112 -119 112c-37 0 -72 -7 -96 -18c-4 -2 -5 -3 -5 -7v-59c0 -6 -4 -10 -10 -10h-33c-6 0 -10 4 -10 10v86c0 6 2 10 7 13c37 21 92 34 149 34zM354 226h-112c-94 0 -135 -31 -135 -94
c0 -60 42 -93 118 -93c82 0 135 42 135 108v73c0 4 -2 6 -6 6z" />
    <glyph glyph-name="aogonek" unicode="&#x105;" horiz-adv-x="518" 
d="M243 487c119 0 170 -41 170 -158v-273c0 -4 2 -6 6 -6h56c6 0 10 -4 10 -10v-30c0 -6 -4 -10 -10 -10h-64c-70 -51 -83 -76 -83 -97c0 -18 11 -28 29 -28c9 0 18 3 28 9c5 3 10 2 13 -3l11 -21c2 -5 1 -9 -4 -13c-13 -10 -35 -19 -56 -19c-42 0 -70 25 -70 68
c0 33 15 63 82 111v53h-1c-19 -40 -68 -70 -146 -70c-96 0 -160 48 -160 141c0 95 66 141 181 141h119c4 0 6 2 6 6v48c0 79 -27 112 -119 112c-37 0 -72 -7 -96 -18c-4 -2 -5 -3 -5 -7v-59c0 -6 -4 -10 -10 -10h-33c-6 0 -10 4 -10 10v86c0 6 2 10 7 13c37 21 92 34 149 34
zM354 226h-112c-94 0 -135 -31 -135 -94c0 -60 42 -93 118 -93c82 0 135 42 135 108v73c0 4 -2 6 -6 6z" />
    <glyph glyph-name="aring" unicode="&#xe5;" horiz-adv-x="518" 
d="M247 717c51 0 88 -37 88 -88s-37 -88 -88 -88s-88 37 -88 88s37 88 88 88zM247 685c-32 0 -53 -24 -53 -56s21 -56 53 -56s53 24 53 56s-21 56 -53 56zM243 487c119 0 170 -41 170 -158v-273c0 -4 2 -6 6 -6h56c6 0 10 -4 10 -10v-30c0 -6 -4 -10 -10 -10h-104
c-6 0 -10 4 -10 10v50h-1c-19 -40 -68 -70 -146 -70c-96 0 -160 48 -160 141c0 95 66 141 181 141h119c4 0 6 2 6 6v48c0 79 -27 112 -119 112c-37 0 -72 -7 -96 -18c-4 -2 -5 -3 -5 -7v-59c0 -6 -4 -10 -10 -10h-33c-6 0 -10 4 -10 10v86c0 6 2 10 7 13c37 21 92 34 149 34
zM354 226h-112c-94 0 -135 -31 -135 -94c0 -60 42 -93 118 -93c82 0 135 42 135 108v73c0 4 -2 6 -6 6z" />
    <glyph glyph-name="atilde" unicode="&#xe3;" horiz-adv-x="518" 
d="M192 680c24 0 43 -9 60 -20c16 -10 31 -18 49 -18c23 0 40 13 59 33c4 4 8 2 8 -3v-30c0 -6 -1 -9 -7 -16c-17 -17 -37 -30 -62 -30c-24 0 -42 10 -60 21c-16 10 -31 18 -49 18c-23 0 -39 -14 -58 -33c-5 -4 -9 -2 -9 3v30c0 6 2 9 8 15c16 18 36 30 61 30zM243 487
c119 0 170 -41 170 -158v-273c0 -4 2 -6 6 -6h56c6 0 10 -4 10 -10v-30c0 -6 -4 -10 -10 -10h-104c-6 0 -10 4 -10 10v50h-1c-19 -40 -68 -70 -146 -70c-96 0 -160 48 -160 141c0 95 66 141 181 141h119c4 0 6 2 6 6v48c0 79 -27 112 -119 112c-37 0 -72 -7 -96 -18
c-4 -2 -5 -3 -5 -7v-59c0 -6 -4 -10 -10 -10h-33c-6 0 -10 4 -10 10v86c0 6 2 10 7 13c37 21 92 34 149 34zM354 226h-112c-94 0 -135 -31 -135 -94c0 -60 42 -93 118 -93c82 0 135 42 135 108v73c0 4 -2 6 -6 6z" />
    <glyph glyph-name="ae" unicode="&#xe6;" horiz-adv-x="800" 
d="M552 487c86 0 151 -44 177 -124c10 -30 14 -61 14 -127c0 -6 -4 -10 -11 -10h-311c-4 0 -6 -3 -6 -7c0 -40 3 -63 10 -84c22 -63 70 -93 135 -93c63 0 105 26 133 61c4 5 9 6 14 2l23 -21c5 -4 5 -9 1 -14c-35 -47 -94 -80 -174 -80c-86 0 -139 39 -167 93h-1
c-25 -59 -82 -93 -175 -93c-96 0 -160 48 -160 141c0 95 66 141 181 141h121c4 0 6 2 6 6v47c0 79 -29 113 -121 113c-37 0 -70 -7 -96 -18c-4 -2 -5 -3 -5 -7v-59c0 -6 -4 -10 -10 -10h-33c-6 0 -10 4 -10 10v87c0 6 3 10 7 12c39 21 94 34 149 34c83 0 138 -22 156 -80h1
c31 53 84 80 152 80zM552 437c-62 0 -109 -30 -128 -90c-7 -19 -9 -40 -9 -69c0 -4 2 -6 6 -6h261c4 0 6 2 6 6c0 29 -3 50 -9 69c-20 60 -65 90 -127 90zM356 226h-114c-94 0 -135 -31 -135 -94c0 -60 42 -92 118 -92c82 0 137 41 137 107v73c0 4 -2 6 -6 6z" />
    <glyph glyph-name="b" unicode="b" horiz-adv-x="551" 
d="M53 680h106c5 0 10 -3 10 -10v-261h1c23 45 65 78 144 78c84 0 138 -38 163 -114c12 -39 17 -81 17 -135c0 -53 -5 -95 -17 -134c-25 -76 -79 -114 -163 -114c-79 0 -121 33 -144 78h-1v-58c0 -6 -4 -10 -10 -10h-106c-6 0 -10 4 -10 10v30c0 6 4 10 10 10h56
c4 0 6 2 6 6v568c0 4 -2 6 -6 6h-56c-6 0 -10 4 -10 10v30c0 6 4 10 10 10zM304 435c-60 0 -104 -28 -122 -84c-9 -26 -13 -61 -13 -113s4 -86 13 -112c18 -56 62 -84 122 -84c63 0 104 30 122 84c10 30 13 70 13 112c0 43 -3 83 -13 113c-18 54 -59 84 -122 84z" />
    <glyph glyph-name="c" unicode="c" horiz-adv-x="474" 
d="M258 487c65 0 116 -16 146 -36c5 -4 7 -6 7 -12v-92c0 -6 -4 -10 -10 -10h-33c-6 0 -10 4 -10 10v61c0 4 -1 5 -4 7c-18 11 -53 20 -95 20c-69 0 -115 -31 -134 -90c-9 -26 -13 -58 -13 -107c0 -48 4 -82 13 -108c19 -58 64 -88 134 -88c47 0 77 8 95 18c3 2 4 3 4 7v59
c0 6 4 10 10 10h33c6 0 10 -4 10 -10v-90c0 -5 -2 -9 -8 -12c-32 -19 -77 -34 -145 -34c-100 0 -160 43 -186 122c-9 29 -15 70 -15 126c0 57 6 95 15 125c25 78 91 124 186 124z" />
    <glyph glyph-name="cacute" unicode="&#x107;" horiz-adv-x="474" 
d="M307 700h38c6 0 9 -5 5 -10l-88 -122c-6 -7 -10 -10 -18 -10h-25c-6 0 -9 4 -6 10l77 122c4 7 9 10 17 10zM258 487c65 0 116 -16 146 -36c5 -4 7 -6 7 -12v-92c0 -6 -4 -10 -10 -10h-33c-6 0 -10 4 -10 10v61c0 4 -1 5 -4 7c-18 11 -53 20 -95 20
c-69 0 -115 -31 -134 -90c-9 -26 -13 -58 -13 -107c0 -48 4 -82 13 -108c19 -58 64 -88 134 -88c47 0 77 8 95 18c3 2 4 3 4 7v59c0 6 4 10 10 10h33c6 0 10 -4 10 -10v-90c0 -5 -2 -9 -8 -12c-32 -19 -77 -34 -145 -34c-100 0 -160 43 -186 122c-9 29 -15 70 -15 126
c0 57 6 95 15 125c25 78 91 124 186 124z" />
    <glyph glyph-name="ccaron" unicode="&#x10d;" horiz-adv-x="474" 
d="M341 699h25c6 0 8 -5 4 -10l-91 -122c-5 -7 -8 -9 -15 -9h-23c-7 0 -11 2 -16 9l-90 122c-4 5 -2 10 4 10h25c7 0 10 -2 17 -10l70 -85h2l71 85c6 8 9 10 17 10zM258 487c65 0 116 -16 146 -36c5 -4 7 -6 7 -12v-92c0 -6 -4 -10 -10 -10h-33c-6 0 -10 4 -10 10v61
c0 4 -1 5 -4 7c-18 11 -53 20 -95 20c-69 0 -115 -31 -134 -90c-9 -26 -13 -58 -13 -107c0 -48 4 -82 13 -108c19 -58 64 -88 134 -88c47 0 77 8 95 18c3 2 4 3 4 7v59c0 6 4 10 10 10h33c6 0 10 -4 10 -10v-90c0 -5 -2 -9 -8 -12c-32 -19 -77 -34 -145 -34
c-100 0 -160 43 -186 122c-9 29 -15 70 -15 126c0 57 6 95 15 125c25 78 91 124 186 124z" />
    <glyph glyph-name="ccedilla" unicode="&#xe7;" horiz-adv-x="474" 
d="M258 487c65 0 116 -16 146 -36c5 -4 7 -6 7 -12v-92c0 -6 -4 -10 -10 -10h-33c-6 0 -10 4 -10 10v61c0 4 -1 5 -4 7c-18 11 -53 20 -95 20c-69 0 -115 -31 -134 -90c-9 -26 -13 -58 -13 -107c0 -48 4 -82 13 -108c19 -58 64 -88 134 -88c47 0 77 8 95 18c3 2 4 3 4 7v59
c0 6 4 10 10 10h33c6 0 10 -4 10 -10v-90c0 -5 -2 -9 -8 -12c-30 -18 -70 -32 -129 -34l-42 -128c-3 -8 -7 -10 -16 -10h-31c-6 0 -9 4 -7 10l51 130c-82 8 -134 49 -157 120c-9 29 -15 70 -15 126c0 57 6 95 15 125c25 78 91 124 186 124z" />
    <glyph glyph-name="ccircumflex" unicode="&#x109;" horiz-adv-x="474" 
d="M242 700h23c7 0 10 -2 15 -9l91 -123c4 -5 2 -10 -4 -10h-25c-8 0 -11 2 -17 10l-71 85h-2l-70 -85c-7 -8 -10 -10 -17 -10h-25c-6 0 -8 5 -4 10l90 123c5 7 9 9 16 9zM258 487c65 0 116 -16 146 -36c5 -4 7 -6 7 -12v-92c0 -6 -4 -10 -10 -10h-33c-6 0 -10 4 -10 10v61
c0 4 -1 5 -4 7c-18 11 -53 20 -95 20c-69 0 -115 -31 -134 -90c-9 -26 -13 -58 -13 -107c0 -48 4 -82 13 -108c19 -58 64 -88 134 -88c47 0 77 8 95 18c3 2 4 3 4 7v59c0 6 4 10 10 10h33c6 0 10 -4 10 -10v-90c0 -5 -2 -9 -8 -12c-32 -19 -77 -34 -145 -34
c-100 0 -160 43 -186 122c-9 29 -15 70 -15 126c0 57 6 95 15 125c25 78 91 124 186 124z" />
    <glyph glyph-name="cdotaccent" unicode="&#x10b;" horiz-adv-x="474" 
d="M230 680h44c6 0 10 -4 10 -10v-56c0 -6 -4 -10 -10 -10h-44c-6 0 -10 4 -10 10v56c0 6 4 10 10 10zM258 487c65 0 116 -16 146 -36c5 -4 7 -6 7 -12v-92c0 -6 -4 -10 -10 -10h-33c-6 0 -10 4 -10 10v61c0 4 -1 5 -4 7c-18 11 -53 20 -95 20c-69 0 -115 -31 -134 -90
c-9 -26 -13 -58 -13 -107c0 -48 4 -82 13 -108c19 -58 64 -88 134 -88c47 0 77 8 95 18c3 2 4 3 4 7v59c0 6 4 10 10 10h33c6 0 10 -4 10 -10v-90c0 -5 -2 -9 -8 -12c-32 -19 -77 -34 -145 -34c-100 0 -160 43 -186 122c-9 29 -15 70 -15 126c0 57 6 95 15 125
c25 78 91 124 186 124z" />
    <glyph glyph-name="d" unicode="d" horiz-adv-x="551" 
d="M320 680h106c6 0 10 -4 10 -10v-614c0 -4 2 -6 6 -6h56c6 0 10 -4 10 -10v-30c0 -6 -4 -10 -10 -10h-106c-6 0 -10 4 -10 10v58h-1c-23 -45 -65 -78 -144 -78c-84 0 -138 38 -163 114c-13 39 -17 81 -17 134c0 54 4 96 17 135c25 76 77 114 161 114c79 0 123 -32 146 -78
h1v215c0 4 -2 6 -6 6h-56c-6 0 -10 4 -10 10v30c0 6 4 10 10 10zM247 435c-62 0 -104 -30 -122 -84c-10 -30 -13 -70 -13 -113c0 -42 3 -82 13 -112c18 -54 60 -84 122 -84c60 0 104 28 122 84c9 26 13 60 13 112s-4 87 -13 113c-18 56 -62 84 -122 84z" />
    <glyph glyph-name="eth" unicode="&#xf0;" horiz-adv-x="503" 
d="M155 680h41c8 0 13 -4 18 -10l48 -59l94 28c7 2 12 -1 13 -6l7 -25c1 -6 -1 -10 -7 -12l-77 -23l36 -44c85 -104 118 -180 118 -285c0 -65 -6 -100 -16 -130c-26 -79 -91 -124 -179 -124s-152 45 -178 124c-10 30 -16 67 -16 119c0 53 5 91 15 121c25 77 87 122 165 122
c35 0 60 -8 89 -28h2l-89 109l-95 -29c-6 -2 -12 1 -13 7l-7 24c-1 6 1 10 8 12l79 23l-61 76c-4 5 -1 10 5 10zM251 425c-61 0 -107 -32 -126 -89c-9 -26 -13 -56 -13 -103c0 -46 4 -77 13 -103c19 -57 65 -89 126 -89c62 0 108 32 127 89c8 26 13 57 13 103
c0 47 -5 75 -14 102c-19 57 -64 90 -126 90z" />
    <glyph glyph-name="dcaron" unicode="&#x10f;" horiz-adv-x="551" 
d="M320 680h106c6 0 10 -4 10 -10v-614c0 -4 2 -6 6 -6h56c6 0 10 -4 10 -10v-30c0 -6 -4 -10 -10 -10h-106c-6 0 -10 4 -10 10v58h-1c-23 -45 -65 -78 -144 -78c-84 0 -138 38 -163 114c-13 39 -17 81 -17 134c0 54 4 96 17 135c25 76 77 114 161 114c79 0 123 -32 146 -78
h1v215c0 4 -2 6 -6 6h-56c-6 0 -10 4 -10 10v30c0 6 4 10 10 10zM490 680h37c6 0 10 -4 10 -10v-48c0 -9 -1 -13 -5 -21l-32 -57c-3 -6 -6 -9 -11 -9c-6 0 -9 4 -9 10v125c0 6 4 10 10 10zM247 435c-62 0 -104 -30 -122 -84c-10 -30 -13 -70 -13 -113c0 -42 3 -82 13 -112
c18 -54 60 -84 122 -84c60 0 104 28 122 84c9 26 13 60 13 112s-4 87 -13 113c-18 56 -62 84 -122 84z" />
    <glyph glyph-name="dcroat" unicode="&#x111;" horiz-adv-x="551" 
d="M320 680h106c6 0 10 -4 10 -10v-84c0 -4 2 -6 6 -6h34c6 0 10 -4 10 -10v-26c0 -6 -4 -10 -10 -10h-34c-4 0 -6 -2 -6 -6v-472c0 -4 2 -6 6 -6h56c6 0 10 -4 10 -10v-30c0 -6 -4 -10 -10 -10h-106c-6 0 -10 4 -10 10v58h-1c-23 -45 -65 -78 -144 -78
c-84 0 -138 38 -163 114c-13 39 -17 81 -17 134c0 54 4 96 17 135c25 76 77 114 161 114c79 0 123 -32 146 -78h1v119c0 4 -2 6 -6 6h-131c-6 0 -10 4 -10 10v26c0 6 4 10 10 10h131c4 0 6 2 6 6v38c0 4 -2 6 -6 6h-56c-6 0 -10 4 -10 10v30c0 6 4 10 10 10zM247 435
c-62 0 -104 -30 -122 -84c-10 -30 -13 -70 -13 -113c0 -42 3 -82 13 -112c18 -54 60 -84 122 -84c60 0 104 28 122 84c9 26 13 60 13 112s-4 87 -13 113c-18 56 -62 84 -122 84z" />
    <glyph glyph-name="e" unicode="e" horiz-adv-x="496" 
d="M248 487c87 0 152 -44 178 -124c10 -30 14 -61 14 -127c0 -6 -4 -10 -11 -10h-311c-4 0 -6 -3 -6 -7c0 -40 3 -63 10 -84c21 -62 69 -93 135 -93c62 0 105 26 133 61c4 5 9 6 14 2l23 -21c5 -4 5 -9 1 -14c-35 -47 -95 -80 -174 -80c-93 0 -156 44 -183 126
c-10 29 -14 66 -14 123c0 60 5 95 14 124c26 80 91 124 177 124zM248 437c-62 0 -108 -30 -127 -90c-6 -19 -9 -40 -9 -69c0 -4 2 -6 6 -6h261c4 0 6 2 6 6c0 29 -3 50 -9 69c-19 60 -66 90 -128 90z" />
    <glyph glyph-name="eacute" unicode="&#xe9;" horiz-adv-x="496" 
d="M310 700h38c6 0 9 -5 5 -10l-88 -122c-6 -7 -10 -10 -18 -10h-25c-6 0 -9 4 -6 10l77 122c4 7 9 10 17 10zM248 487c87 0 152 -44 178 -124c10 -30 14 -61 14 -127c0 -6 -4 -10 -11 -10h-311c-4 0 -6 -3 -6 -7c0 -40 3 -63 10 -84c21 -62 69 -93 135 -93
c62 0 105 26 133 61c4 5 9 6 14 2l23 -21c5 -4 5 -9 1 -14c-35 -47 -95 -80 -174 -80c-93 0 -156 44 -183 126c-10 29 -14 66 -14 123c0 60 5 95 14 124c26 80 91 124 177 124zM248 437c-62 0 -108 -30 -127 -90c-6 -19 -9 -40 -9 -69c0 -4 2 -6 6 -6h261c4 0 6 2 6 6
c0 29 -3 50 -9 69c-19 60 -66 90 -128 90z" />
    <glyph glyph-name="ebreve" unicode="&#x115;" horiz-adv-x="496" 
d="M344 684h19c6 0 10 -4 9 -10c-9 -61 -56 -104 -125 -104c-68 0 -116 43 -124 104c-1 6 3 10 9 10h19c7 0 10 -4 12 -10c11 -39 40 -60 84 -60c45 0 74 21 86 60c2 6 4 10 11 10zM248 487c87 0 152 -44 178 -124c10 -30 14 -61 14 -127c0 -6 -4 -10 -11 -10h-311
c-4 0 -6 -3 -6 -7c0 -40 3 -63 10 -84c21 -62 69 -93 135 -93c62 0 105 26 133 61c4 5 9 6 14 2l23 -21c5 -4 5 -9 1 -14c-35 -47 -95 -80 -174 -80c-93 0 -156 44 -183 126c-10 29 -14 66 -14 123c0 60 5 95 14 124c26 80 91 124 177 124zM248 437c-62 0 -108 -30 -127 -90
c-6 -19 -9 -40 -9 -69c0 -4 2 -6 6 -6h261c4 0 6 2 6 6c0 29 -3 50 -9 69c-19 60 -66 90 -128 90z" />
    <glyph glyph-name="ecaron" unicode="&#x11b;" horiz-adv-x="496" 
d="M336 699h25c6 0 8 -5 4 -10l-91 -122c-5 -7 -8 -9 -15 -9h-23c-7 0 -11 2 -16 9l-90 122c-4 5 -2 10 4 10h25c7 0 10 -2 17 -10l70 -85h2l71 85c6 8 9 10 17 10zM248 487c87 0 152 -44 178 -124c10 -30 14 -61 14 -127c0 -6 -4 -10 -11 -10h-311c-4 0 -6 -3 -6 -7
c0 -40 3 -63 10 -84c21 -62 69 -93 135 -93c62 0 105 26 133 61c4 5 9 6 14 2l23 -21c5 -4 5 -9 1 -14c-35 -47 -95 -80 -174 -80c-93 0 -156 44 -183 126c-10 29 -14 66 -14 123c0 60 5 95 14 124c26 80 91 124 177 124zM248 437c-62 0 -108 -30 -127 -90
c-6 -19 -9 -40 -9 -69c0 -4 2 -6 6 -6h261c4 0 6 2 6 6c0 29 -3 50 -9 69c-19 60 -66 90 -128 90z" />
    <glyph glyph-name="ecircumflex" unicode="&#xea;" horiz-adv-x="496" 
d="M236 700h23c7 0 10 -2 15 -9l91 -123c4 -5 2 -10 -4 -10h-25c-8 0 -11 2 -17 10l-71 85h-2l-70 -85c-7 -8 -10 -10 -17 -10h-25c-6 0 -8 5 -4 10l90 123c5 7 9 9 16 9zM248 487c87 0 152 -44 178 -124c10 -30 14 -61 14 -127c0 -6 -4 -10 -11 -10h-311c-4 0 -6 -3 -6 -7
c0 -40 3 -63 10 -84c21 -62 69 -93 135 -93c62 0 105 26 133 61c4 5 9 6 14 2l23 -21c5 -4 5 -9 1 -14c-35 -47 -95 -80 -174 -80c-93 0 -156 44 -183 126c-10 29 -14 66 -14 123c0 60 5 95 14 124c26 80 91 124 177 124zM248 437c-62 0 -108 -30 -127 -90
c-6 -19 -9 -40 -9 -69c0 -4 2 -6 6 -6h261c4 0 6 2 6 6c0 29 -3 50 -9 69c-19 60 -66 90 -128 90z" />
    <glyph glyph-name="edieresis" unicode="&#xeb;" horiz-adv-x="496" 
d="M128 680h40c6 0 10 -4 10 -10v-56c0 -6 -4 -10 -10 -10h-40c-6 0 -10 4 -10 10v56c0 6 4 10 10 10zM327 680h40c6 0 10 -4 10 -10v-56c0 -6 -4 -10 -10 -10h-40c-6 0 -10 4 -10 10v56c0 6 4 10 10 10zM248 487c87 0 152 -44 178 -124c10 -30 14 -61 14 -127
c0 -6 -4 -10 -11 -10h-311c-4 0 -6 -3 -6 -7c0 -40 3 -63 10 -84c21 -62 69 -93 135 -93c62 0 105 26 133 61c4 5 9 6 14 2l23 -21c5 -4 5 -9 1 -14c-35 -47 -95 -80 -174 -80c-93 0 -156 44 -183 126c-10 29 -14 66 -14 123c0 60 5 95 14 124c26 80 91 124 177 124z
M248 437c-62 0 -108 -30 -127 -90c-6 -19 -9 -40 -9 -69c0 -4 2 -6 6 -6h261c4 0 6 2 6 6c0 29 -3 50 -9 69c-19 60 -66 90 -128 90z" />
    <glyph glyph-name="edotaccent" unicode="&#x117;" horiz-adv-x="496" 
d="M225 680h44c6 0 10 -4 10 -10v-56c0 -6 -4 -10 -10 -10h-44c-6 0 -10 4 -10 10v56c0 6 4 10 10 10zM248 487c87 0 152 -44 178 -124c10 -30 14 -61 14 -127c0 -6 -4 -10 -11 -10h-311c-4 0 -6 -3 -6 -7c0 -40 3 -63 10 -84c21 -62 69 -93 135 -93c62 0 105 26 133 61
c4 5 9 6 14 2l23 -21c5 -4 5 -9 1 -14c-35 -47 -95 -80 -174 -80c-93 0 -156 44 -183 126c-10 29 -14 66 -14 123c0 60 5 95 14 124c26 80 91 124 177 124zM248 437c-62 0 -108 -30 -127 -90c-6 -19 -9 -40 -9 -69c0 -4 2 -6 6 -6h261c4 0 6 2 6 6c0 29 -3 50 -9 69
c-19 60 -66 90 -128 90z" />
    <glyph glyph-name="egrave" unicode="&#xe8;" horiz-adv-x="496" 
d="M151 700h38c8 0 12 -3 16 -10l77 -122c4 -6 1 -10 -5 -10h-25c-8 0 -13 3 -18 10l-88 122c-4 5 -1 10 5 10zM248 487c87 0 152 -44 178 -124c10 -30 14 -61 14 -127c0 -6 -4 -10 -11 -10h-311c-4 0 -6 -3 -6 -7c0 -40 3 -63 10 -84c21 -62 69 -93 135 -93
c62 0 105 26 133 61c4 5 9 6 14 2l23 -21c5 -4 5 -9 1 -14c-35 -47 -95 -80 -174 -80c-93 0 -156 44 -183 126c-10 29 -14 66 -14 123c0 60 5 95 14 124c26 80 91 124 177 124zM248 437c-62 0 -108 -30 -127 -90c-6 -19 -9 -40 -9 -69c0 -4 2 -6 6 -6h261c4 0 6 2 6 6
c0 29 -3 50 -9 69c-19 60 -66 90 -128 90z" />
    <glyph glyph-name="emacron" unicode="&#x113;" horiz-adv-x="496" 
d="M127 664h240c6 0 10 -4 10 -10v-26c0 -6 -4 -10 -10 -10h-240c-6 0 -10 4 -10 10v26c0 6 4 10 10 10zM248 487c87 0 152 -44 178 -124c10 -30 14 -61 14 -127c0 -6 -4 -10 -11 -10h-311c-4 0 -6 -3 -6 -7c0 -40 3 -63 10 -84c21 -62 69 -93 135 -93c62 0 105 26 133 61
c4 5 9 6 14 2l23 -21c5 -4 5 -9 1 -14c-35 -47 -95 -80 -174 -80c-93 0 -156 44 -183 126c-10 29 -14 66 -14 123c0 60 5 95 14 124c26 80 91 124 177 124zM248 437c-62 0 -108 -30 -127 -90c-6 -19 -9 -40 -9 -69c0 -4 2 -6 6 -6h261c4 0 6 2 6 6c0 29 -3 50 -9 69
c-19 60 -66 90 -128 90z" />
    <glyph glyph-name="eogonek" unicode="&#x119;" horiz-adv-x="496" 
d="M248 487c86 0 152 -44 178 -124c10 -30 14 -61 14 -127c0 -6 -4 -10 -11 -10h-311c-4 0 -6 -3 -6 -7c0 -40 3 -62 10 -84c22 -63 70 -93 135 -93c62 0 105 26 133 61c4 5 9 6 14 2l23 -21c5 -4 5 -9 1 -14c-9 -12 -21 -24 -34 -35c-76 -81 -86 -108 -86 -132
c0 -18 11 -28 29 -28c9 0 18 3 28 9c5 3 10 2 13 -3l11 -21c2 -5 1 -9 -4 -13c-13 -10 -35 -19 -56 -19c-42 0 -70 25 -70 68c0 31 16 60 50 100c-17 -4 -36 -6 -55 -6c-93 0 -156 44 -183 126c-9 29 -14 62 -14 123c0 60 5 95 14 124c26 80 91 124 177 124zM248 437
c-62 0 -108 -31 -127 -90c-6 -19 -9 -40 -9 -69c0 -4 2 -6 6 -6h261c4 0 6 2 6 6c0 29 -3 50 -9 69c-19 59 -65 90 -128 90z" />
    <glyph glyph-name="f" unicode="f" horiz-adv-x="312" 
d="M246 680h28c6 0 10 -4 10 -10v-30c0 -6 -4 -10 -10 -10h-22c-72 0 -85 -15 -85 -88v-59c0 -4 2 -6 6 -6h101c6 0 10 -4 10 -10v-30c0 -6 -4 -10 -10 -10h-101c-4 0 -6 -2 -6 -6v-365c0 -4 2 -6 6 -6h61c6 0 10 -4 10 -10v-30c0 -6 -4 -10 -10 -10h-181c-6 0 -10 4 -10 10
v30c0 6 4 10 10 10h54c4 0 6 2 6 6v365c0 4 -2 6 -6 6h-51c-6 0 -10 4 -10 10v30c0 6 4 10 10 10h51c4 0 6 2 6 6v51c0 114 36 146 133 146z" />
    <glyph glyph-name="g" unicode="g" horiz-adv-x="541" 
d="M232 487c77 0 118 -31 141 -79h1v59c0 6 4 10 10 10h106c6 0 10 -4 10 -10v-30c0 -6 -4 -10 -10 -10h-56c-4 0 -6 -2 -6 -6v-412c0 -133 -72 -199 -191 -199c-69 0 -131 30 -158 69c-3 5 -3 10 2 14l24 21c4 4 11 4 15 -1c27 -31 66 -51 118 -51c85 0 136 42 136 145v69
h-1c-23 -47 -64 -78 -141 -78c-80 0 -135 41 -159 114c-11 34 -16 73 -16 130s5 96 16 130c24 73 79 115 159 115zM243 435c-59 0 -99 -29 -117 -83c-10 -28 -14 -62 -14 -110c0 -47 5 -82 14 -109c19 -55 58 -84 117 -84c55 0 99 25 119 84c9 27 12 59 12 109
s-3 82 -12 109c-20 60 -64 84 -119 84z" />
    <glyph glyph-name="gbreve" unicode="&#x11f;" horiz-adv-x="541" 
d="M347 684h19c6 0 10 -4 9 -10c-9 -61 -56 -104 -125 -104c-68 0 -116 43 -124 104c-1 6 3 10 9 10h19c7 0 10 -4 12 -10c11 -39 40 -60 84 -60c45 0 74 21 86 60c2 6 4 10 11 10zM232 487c77 0 118 -31 141 -79h1v59c0 6 4 10 10 10h106c6 0 10 -4 10 -10v-30
c0 -6 -4 -10 -10 -10h-56c-4 0 -6 -2 -6 -6v-412c0 -133 -72 -199 -191 -199c-69 0 -131 30 -158 69c-3 5 -3 10 2 14l24 21c4 4 11 4 15 -1c27 -31 66 -51 118 -51c85 0 136 42 136 145v69h-1c-23 -47 -64 -78 -141 -78c-80 0 -135 41 -159 114c-11 34 -16 73 -16 130
s5 96 16 130c24 73 79 115 159 115zM243 435c-59 0 -99 -29 -117 -83c-10 -28 -14 -62 -14 -110c0 -47 5 -82 14 -109c19 -55 58 -84 117 -84c55 0 99 25 119 84c9 27 12 59 12 109s-3 82 -12 109c-20 60 -64 84 -119 84z" />
    <glyph glyph-name="gcircumflex" unicode="&#x11d;" horiz-adv-x="541" 
d="M237 700h23c7 0 10 -2 15 -9l91 -123c4 -5 2 -10 -4 -10h-25c-8 0 -11 2 -17 10l-71 85h-2l-70 -85c-7 -8 -10 -10 -17 -10h-25c-6 0 -8 5 -4 10l90 123c5 7 9 9 16 9zM232 487c77 0 118 -31 141 -79h1v59c0 6 4 10 10 10h106c6 0 10 -4 10 -10v-30c0 -6 -4 -10 -10 -10
h-56c-4 0 -6 -2 -6 -6v-412c0 -133 -72 -199 -191 -199c-69 0 -131 30 -158 69c-3 5 -3 10 2 14l24 21c4 4 11 4 15 -1c27 -31 66 -51 118 -51c85 0 136 42 136 145v69h-1c-23 -47 -64 -78 -141 -78c-80 0 -135 41 -159 114c-11 34 -16 73 -16 130s5 96 16 130
c24 73 79 115 159 115zM243 435c-59 0 -99 -29 -117 -83c-10 -28 -14 -62 -14 -110c0 -47 5 -82 14 -109c19 -55 58 -84 117 -84c55 0 99 25 119 84c9 27 12 59 12 109s-3 82 -12 109c-20 60 -64 84 -119 84z" />
    <glyph glyph-name="gcommaaccent" unicode="&#x123;" horiz-adv-x="541" 
d="M265 715c6 0 9 -3 9 -9v-124c0 -6 -4 -10 -10 -10h-37c-6 0 -10 4 -10 10v46c0 10 1 14 5 22l32 57c3 6 6 8 11 8zM232 487c77 0 118 -31 141 -79h1v59c0 6 4 10 10 10h106c6 0 10 -4 10 -10v-30c0 -6 -4 -10 -10 -10h-56c-4 0 -6 -2 -6 -6v-412
c0 -133 -72 -199 -191 -199c-69 0 -131 30 -158 69c-3 5 -3 10 2 14l24 21c4 4 11 4 15 -1c27 -31 66 -51 118 -51c85 0 136 42 136 145v69h-1c-23 -47 -64 -78 -141 -78c-80 0 -135 41 -159 114c-11 34 -16 73 -16 130s5 96 16 130c24 73 79 115 159 115zM243 435
c-59 0 -99 -29 -117 -83c-10 -28 -14 -62 -14 -110c0 -47 5 -82 14 -109c19 -55 58 -84 117 -84c55 0 99 25 119 84c9 27 12 59 12 109s-3 82 -12 109c-20 60 -64 84 -119 84z" />
    <glyph glyph-name="gdotaccent" unicode="&#x121;" horiz-adv-x="541" 
d="M229 680h44c6 0 10 -4 10 -10v-56c0 -6 -4 -10 -10 -10h-44c-6 0 -10 4 -10 10v56c0 6 4 10 10 10zM232 487c77 0 118 -31 141 -79h1v59c0 6 4 10 10 10h106c6 0 10 -4 10 -10v-30c0 -6 -4 -10 -10 -10h-56c-4 0 -6 -2 -6 -6v-412c0 -133 -72 -199 -191 -199
c-69 0 -131 30 -158 69c-3 5 -3 10 2 14l24 21c4 4 11 4 15 -1c27 -31 66 -51 118 -51c85 0 136 42 136 145v69h-1c-23 -47 -64 -78 -141 -78c-80 0 -135 41 -159 114c-11 34 -16 73 -16 130s5 96 16 130c24 73 79 115 159 115zM243 435c-59 0 -99 -29 -117 -83
c-10 -28 -14 -62 -14 -110c0 -47 5 -82 14 -109c19 -55 58 -84 117 -84c55 0 99 25 119 84c9 27 12 59 12 109s-3 82 -12 109c-20 60 -64 84 -119 84z" />
    <glyph glyph-name="h" unicode="h" horiz-adv-x="581" 
d="M53 680h106c6 0 10 -4 10 -10v-260h1c23 47 72 77 138 77c105 0 165 -66 165 -182v-249c0 -4 2 -6 6 -6h55c6 0 10 -4 10 -10v-30c0 -6 -4 -10 -10 -10h-177c-6 0 -10 4 -10 10v30c0 6 4 10 10 10h56c4 0 6 2 6 6v236c0 96 -41 143 -123 143c-72 0 -127 -50 -127 -133
v-246c0 -4 2 -6 6 -6h56c6 0 10 -4 10 -10v-30c0 -6 -4 -10 -10 -10h-178c-6 0 -10 4 -10 10v30c0 6 4 10 10 10h56c4 0 6 2 6 6v568c0 4 -2 6 -6 6h-56c-6 0 -10 4 -10 10v30c0 6 4 10 10 10z" />
    <glyph glyph-name="hbar" unicode="&#x127;" horiz-adv-x="581" 
d="M53 680h106c6 0 10 -4 10 -10v-84c0 -4 2 -6 6 -6h131c6 0 10 -4 10 -10v-26c0 -6 -4 -10 -10 -10h-131c-4 0 -6 -2 -6 -6v-118h1c23 47 72 77 138 77c105 0 165 -66 165 -182v-249c0 -4 2 -6 6 -6h55c6 0 10 -4 10 -10v-30c0 -6 -4 -10 -10 -10h-177c-6 0 -10 4 -10 10
v30c0 6 4 10 10 10h56c4 0 6 2 6 6v236c0 96 -41 143 -123 143c-72 0 -127 -50 -127 -133v-246c0 -4 2 -6 6 -6h56c6 0 10 -4 10 -10v-30c0 -6 -4 -10 -10 -10h-178c-6 0 -10 4 -10 10v30c0 6 4 10 10 10h56c4 0 6 2 6 6v472c0 4 -2 6 -6 6h-34c-6 0 -10 4 -10 10v26
c0 6 4 10 10 10h34c4 0 6 2 6 6v38c0 4 -2 6 -6 6h-56c-6 0 -10 4 -10 10v30c0 6 4 10 10 10z" />
    <glyph glyph-name="uni0125" unicode="&#x125;" horiz-adv-x="581" 
d="M285 896h23c7 0 10 -2 15 -9l91 -123c4 -5 2 -10 -4 -10h-25c-8 0 -11 2 -17 10l-71 85h-2l-70 -85c-7 -8 -10 -10 -17 -10h-25c-6 0 -8 5 -4 10l90 123c5 7 9 9 16 9zM53 680h106c6 0 10 -4 10 -10v-260h1c23 47 72 77 138 77c105 0 165 -66 165 -182v-249
c0 -4 2 -6 6 -6h55c6 0 10 -4 10 -10v-30c0 -6 -4 -10 -10 -10h-177c-6 0 -10 4 -10 10v30c0 6 4 10 10 10h56c4 0 6 2 6 6v236c0 96 -41 143 -123 143c-72 0 -127 -50 -127 -133v-246c0 -4 2 -6 6 -6h56c6 0 10 -4 10 -10v-30c0 -6 -4 -10 -10 -10h-178c-6 0 -10 4 -10 10
v30c0 6 4 10 10 10h56c4 0 6 2 6 6v568c0 4 -2 6 -6 6h-56c-6 0 -10 4 -10 10v30c0 6 4 10 10 10z" />
    <glyph glyph-name="uni0069" unicode="i" horiz-adv-x="281" 
d="M120 680h44c6 0 10 -4 10 -10v-56c0 -6 -4 -10 -10 -10h-44c-6 0 -10 4 -10 10v56c0 6 4 10 10 10zM53 477h106c6 0 10 -4 10 -10v-411c0 -4 2 -6 6 -6h56c6 0 10 -4 10 -10v-30c0 -6 -4 -10 -10 -10h-178c-6 0 -10 4 -10 10v30c0 6 4 10 10 10h56c4 0 6 2 6 6v365
c0 4 -2 6 -6 6h-56c-6 0 -10 4 -10 10v30c0 6 4 10 10 10z" />
    <glyph glyph-name="dotlessi" unicode="&#x131;" horiz-adv-x="281" 
d="M53 477h106c6 0 10 -4 10 -10v-411c0 -4 2 -6 6 -6h56c6 0 10 -4 10 -10v-30c0 -6 -4 -10 -10 -10h-178c-6 0 -10 4 -10 10v30c0 6 4 10 10 10h56c4 0 6 2 6 6v365c0 4 -2 6 -6 6h-56c-6 0 -10 4 -10 10v30c0 6 4 10 10 10z" />
    <glyph glyph-name="iacute" unicode="&#xed;" horiz-adv-x="281" 
d="M211 700h38c6 0 9 -5 5 -10l-88 -122c-6 -7 -10 -10 -18 -10h-25c-6 0 -9 4 -6 10l77 122c4 7 9 10 17 10zM53 477h106c6 0 10 -4 10 -10v-411c0 -4 2 -6 6 -6h56c6 0 10 -4 10 -10v-30c0 -6 -4 -10 -10 -10h-178c-6 0 -10 4 -10 10v30c0 6 4 10 10 10h56c4 0 6 2 6 6
v365c0 4 -2 6 -6 6h-56c-6 0 -10 4 -10 10v30c0 6 4 10 10 10z" />
    <glyph glyph-name="ibreve" unicode="&#x12d;" horiz-adv-x="281" 
d="M232 684h19c6 0 10 -4 9 -10c-9 -61 -56 -104 -125 -104c-68 0 -116 43 -124 104c-1 6 3 10 9 10h19c7 0 10 -4 12 -10c11 -39 40 -60 84 -60c45 0 74 21 86 60c2 6 4 10 11 10zM53 477h106c6 0 10 -4 10 -10v-411c0 -4 2 -6 6 -6h56c6 0 10 -4 10 -10v-30
c0 -6 -4 -10 -10 -10h-178c-6 0 -10 4 -10 10v30c0 6 4 10 10 10h56c4 0 6 2 6 6v365c0 4 -2 6 -6 6h-56c-6 0 -10 4 -10 10v30c0 6 4 10 10 10z" />
    <glyph glyph-name="icircumflex" unicode="&#xee;" horiz-adv-x="281" 
d="M124 700h23c7 0 10 -2 15 -9l91 -123c4 -5 2 -10 -4 -10h-25c-8 0 -11 2 -17 10l-71 85h-2l-70 -85c-7 -8 -10 -10 -17 -10h-25c-6 0 -8 5 -4 10l90 123c5 7 9 9 16 9zM53 477h106c6 0 10 -4 10 -10v-411c0 -4 2 -6 6 -6h56c6 0 10 -4 10 -10v-30c0 -6 -4 -10 -10 -10
h-178c-6 0 -10 4 -10 10v30c0 6 4 10 10 10h56c4 0 6 2 6 6v365c0 4 -2 6 -6 6h-56c-6 0 -10 4 -10 10v30c0 6 4 10 10 10z" />
    <glyph glyph-name="idieresis" unicode="&#xef;" horiz-adv-x="281" 
d="M16 680h40c6 0 10 -4 10 -10v-56c0 -6 -4 -10 -10 -10h-40c-6 0 -10 4 -10 10v56c0 6 4 10 10 10zM215 680h40c6 0 10 -4 10 -10v-56c0 -6 -4 -10 -10 -10h-40c-6 0 -10 4 -10 10v56c0 6 4 10 10 10zM53 477h106c6 0 10 -4 10 -10v-411c0 -4 2 -6 6 -6h56
c6 0 10 -4 10 -10v-30c0 -6 -4 -10 -10 -10h-178c-6 0 -10 4 -10 10v30c0 6 4 10 10 10h56c4 0 6 2 6 6v365c0 4 -2 6 -6 6h-56c-6 0 -10 4 -10 10v30c0 6 4 10 10 10z" />
    <glyph glyph-name="igrave" unicode="&#xec;" horiz-adv-x="281" 
d="M34 700h38c8 0 12 -3 16 -10l77 -122c4 -6 1 -10 -5 -10h-25c-8 0 -13 3 -18 10l-88 122c-4 5 -1 10 5 10zM53 477h106c6 0 10 -4 10 -10v-411c0 -4 2 -6 6 -6h56c6 0 10 -4 10 -10v-30c0 -6 -4 -10 -10 -10h-178c-6 0 -10 4 -10 10v30c0 6 4 10 10 10h56c4 0 6 2 6 6
v365c0 4 -2 6 -6 6h-56c-6 0 -10 4 -10 10v30c0 6 4 10 10 10z" />
    <glyph glyph-name="ij" unicode="&#x133;" horiz-adv-x="557" 
d="M120 680h44c6 0 10 -4 10 -10v-56c0 -6 -4 -10 -10 -10h-44c-6 0 -10 4 -10 10v56c0 6 4 10 10 10zM401 680h44c6 0 10 -4 10 -10v-56c0 -6 -4 -10 -10 -10h-44c-6 0 -10 4 -10 10v56c0 6 4 10 10 10zM53 477h106c6 0 10 -4 10 -10v-411c0 -4 2 -6 6 -6h56
c6 0 10 -4 10 -10v-30c0 -6 -4 -10 -10 -10h-178c-6 0 -10 4 -10 10v30c0 6 4 10 10 10h56c4 0 6 2 6 6v365c0 4 -2 6 -6 6h-56c-6 0 -10 4 -10 10v30c0 6 4 10 10 10zM334 477h106c6 0 10 -4 10 -10v-522c0 -92 -35 -125 -123 -125h-11c-6 0 -10 4 -10 10v30
c0 6 4 10 10 10h9c54 0 71 15 71 74v477c0 4 -2 6 -6 6h-56c-6 0 -10 4 -10 10v30c0 6 4 10 10 10z" />
    <glyph glyph-name="imacron" unicode="&#x12b;" horiz-adv-x="281" 
d="M16 664h240c6 0 10 -4 10 -10v-26c0 -6 -4 -10 -10 -10h-240c-6 0 -10 4 -10 10v26c0 6 4 10 10 10zM53 477h106c6 0 10 -4 10 -10v-411c0 -4 2 -6 6 -6h56c6 0 10 -4 10 -10v-30c0 -6 -4 -10 -10 -10h-178c-6 0 -10 4 -10 10v30c0 6 4 10 10 10h56c4 0 6 2 6 6v365
c0 4 -2 6 -6 6h-56c-6 0 -10 4 -10 10v30c0 6 4 10 10 10z" />
    <glyph glyph-name="uni012F" unicode="&#x12f;" horiz-adv-x="281" 
d="M120 680h44c6 0 10 -4 10 -10v-56c0 -6 -4 -10 -10 -10h-44c-6 0 -10 4 -10 10v56c0 6 4 10 10 10zM53 477h106c6 0 10 -4 10 -10v-411c0 -4 2 -6 6 -6h56c6 0 10 -4 10 -10v-30c0 -6 -4 -10 -10 -10h-63c-53 -55 -60 -76 -60 -97c0 -18 11 -28 29 -28c9 0 18 3 28 9
c5 3 10 2 13 -3l11 -21c2 -5 1 -9 -4 -13c-13 -10 -35 -19 -56 -19c-42 0 -70 25 -70 68c0 29 11 57 55 104h-61c-6 0 -10 4 -10 10v30c0 6 4 10 10 10h56c4 0 6 2 6 6v365c0 4 -2 6 -6 6h-56c-6 0 -10 4 -10 10v30c0 6 4 10 10 10z" />
    <glyph glyph-name="itilde" unicode="&#x129;" horiz-adv-x="281" 
d="M82 680c24 0 43 -9 60 -20c16 -10 31 -18 49 -18c23 0 40 13 59 33c4 4 8 2 8 -3v-30c0 -6 -1 -9 -7 -16c-17 -17 -37 -30 -62 -30c-24 0 -42 10 -60 21c-16 10 -31 18 -49 18c-23 0 -39 -14 -58 -33c-5 -4 -9 -2 -9 3v30c0 6 2 9 8 15c16 18 36 30 61 30zM53 477h106
c6 0 10 -4 10 -10v-411c0 -4 2 -6 6 -6h56c6 0 10 -4 10 -10v-30c0 -6 -4 -10 -10 -10h-178c-6 0 -10 4 -10 10v30c0 6 4 10 10 10h56c4 0 6 2 6 6v365c0 4 -2 6 -6 6h-56c-6 0 -10 4 -10 10v30c0 6 4 10 10 10z" />
    <glyph glyph-name="j" unicode="j" horiz-adv-x="276" 
d="M120 680h44c6 0 10 -4 10 -10v-56c0 -6 -4 -10 -10 -10h-44c-6 0 -10 4 -10 10v56c0 6 4 10 10 10zM53 477h106c6 0 10 -4 10 -10v-522c0 -92 -35 -125 -123 -125h-11c-6 0 -10 4 -10 10v30c0 6 4 10 10 10h9c54 0 71 15 71 74v477c0 4 -2 6 -6 6h-56c-6 0 -10 4 -10 10
v30c0 6 4 10 10 10z" />
    <glyph glyph-name="dotlessj" unicode="&#x237;" horiz-adv-x="276" 
d="M53 477h106c6 0 10 -4 10 -10v-522c0 -92 -35 -125 -123 -125h-11c-6 0 -10 4 -10 10v30c0 6 4 10 10 10h9c54 0 71 15 71 74v477c0 4 -2 6 -6 6h-56c-6 0 -10 4 -10 10v30c0 6 4 10 10 10z" />
    <glyph glyph-name="jcircumflex" unicode="&#x135;" horiz-adv-x="276" 
d="M115 700h23c7 0 10 -2 15 -9l91 -123c4 -5 2 -10 -4 -10h-25c-8 0 -11 2 -17 10l-71 85h-2l-70 -85c-7 -8 -10 -10 -17 -10h-25c-6 0 -8 5 -4 10l90 123c5 7 9 9 16 9zM53 477h106c6 0 10 -4 10 -10v-522c0 -92 -35 -125 -123 -125h-11c-6 0 -10 4 -10 10v30
c0 6 4 10 10 10h9c54 0 71 15 71 74v477c0 4 -2 6 -6 6h-56c-6 0 -10 4 -10 10v30c0 6 4 10 10 10z" />
    <glyph glyph-name="k" unicode="k" horiz-adv-x="537" 
d="M53 680h106c6 0 10 -4 10 -10v-454l214 252c5 6 10 9 17 9h76c6 0 10 -4 10 -10v-30c0 -6 -4 -10 -10 -10h-58c-4 0 -7 -1 -11 -6l-101 -120l146 -245c3 -5 6 -6 11 -6h52c6 0 10 -4 10 -10v-30c0 -6 -4 -10 -10 -10h-81c-8 0 -13 4 -17 10l-147 249l-101 -119v-84
c0 -4 2 -6 6 -6h56c6 0 10 -4 10 -10v-30c0 -6 -4 -10 -10 -10h-178c-6 0 -10 4 -10 10v30c0 6 4 10 10 10h56c4 0 6 2 6 6v568c0 4 -2 6 -6 6h-56c-6 0 -10 4 -10 10v30c0 6 4 10 10 10z" />
    <glyph glyph-name="kcommaaccent" unicode="&#x137;" horiz-adv-x="537" 
d="M53 680h106c6 0 10 -4 10 -10v-454l214 252c5 6 10 9 17 9h76c6 0 10 -4 10 -10v-30c0 -6 -4 -10 -10 -10h-58c-4 0 -7 -1 -11 -6l-101 -120l146 -245c3 -5 6 -6 11 -6h52c6 0 10 -4 10 -10v-30c0 -6 -4 -10 -10 -10h-81c-8 0 -13 4 -17 10l-147 249l-101 -119v-84
c0 -4 2 -6 6 -6h56c6 0 10 -4 10 -10v-30c0 -6 -4 -10 -10 -10h-178c-6 0 -10 4 -10 10v30c0 6 4 10 10 10h56c4 0 6 2 6 6v568c0 4 -2 6 -6 6h-56c-6 0 -10 4 -10 10v30c0 6 4 10 10 10zM252 -56h37c6 0 10 -4 10 -10v-42c0 -10 -1 -14 -5 -22l-32 -57c-3 -6 -6 -8 -11 -8
c-6 0 -9 3 -9 9v120c0 6 4 10 10 10z" />
    <glyph glyph-name="kgreenlandic" unicode="&#x138;" horiz-adv-x="537" 
d="M400 477h76c6 0 10 -4 10 -10v-30c0 -6 -4 -10 -10 -10h-58c-4 0 -7 -1 -11 -6l-101 -120l146 -245c3 -5 6 -6 11 -6h52c6 0 10 -4 10 -10v-30c0 -6 -4 -10 -10 -10h-81c-8 0 -13 4 -17 10l-147 249l-101 -119v-84c0 -4 2 -6 6 -6h56c6 0 10 -4 10 -10v-30
c0 -6 -4 -10 -10 -10h-178c-6 0 -10 4 -10 10v30c0 6 4 10 10 10h56c4 0 6 2 6 6v365c0 4 -2 6 -6 6h-56c-6 0 -10 4 -10 10v30c0 6 4 10 10 10h106c6 0 10 -4 10 -10v-251l214 252c5 6 10 9 17 9z" />
    <glyph glyph-name="l" unicode="l" horiz-adv-x="275" 
d="M38 680h106c6 0 10 -4 10 -10v-559c0 -47 14 -62 51 -62h17c6 0 10 -4 10 -10v-31c0 -6 -4 -10 -10 -10h-23c-72 0 -99 34 -99 112v514c0 4 -2 6 -6 6h-56c-6 0 -10 4 -10 10v30c0 6 4 10 10 10z" />
    <glyph glyph-name="lacute" unicode="&#x13a;" horiz-adv-x="275" 
d="M213 888h40c6 0 8 -5 4 -10l-96 -105c-7 -8 -10 -9 -18 -9h-26c-6 0 -9 4 -4 10l82 104c5 7 10 10 18 10zM38 680h106c6 0 10 -4 10 -10v-559c0 -47 14 -62 51 -62h17c6 0 10 -4 10 -10v-31c0 -6 -4 -10 -10 -10h-23c-72 0 -99 34 -99 112v514c0 4 -2 6 -6 6h-56
c-6 0 -10 4 -10 10v30c0 6 4 10 10 10z" />
    <glyph glyph-name="lcaron" unicode="&#x13e;" horiz-adv-x="275" 
d="M38 680h106c6 0 10 -4 10 -10v-559c0 -47 14 -62 51 -62h17c6 0 10 -4 10 -10v-31c0 -6 -4 -10 -10 -10h-23c-72 0 -99 34 -99 112v514c0 4 -2 6 -6 6h-56c-6 0 -10 4 -10 10v30c0 6 4 10 10 10zM206 680h37c6 0 10 -4 10 -10v-48c0 -9 -1 -13 -5 -21l-32 -57
c-3 -6 -6 -9 -11 -9c-6 0 -9 4 -9 10v125c0 6 4 10 10 10z" />
    <glyph glyph-name="lcommaaccent" unicode="&#x13c;" horiz-adv-x="275" 
d="M38 680h106c6 0 10 -4 10 -10v-559c0 -47 14 -62 51 -62h17c6 0 10 -4 10 -10v-31c0 -6 -4 -10 -10 -10h-23c-72 0 -99 34 -99 112v514c0 4 -2 6 -6 6h-56c-6 0 -10 4 -10 10v30c0 6 4 10 10 10zM146 -56h37c6 0 10 -4 10 -10v-42c0 -10 -1 -14 -5 -22l-32 -57
c-3 -6 -6 -8 -11 -8c-6 0 -9 3 -9 9v120c0 6 4 10 10 10z" />
    <glyph glyph-name="ldot" unicode="&#x140;" horiz-adv-x="275" 
d="M38 680h106c6 0 10 -4 10 -10v-559c0 -47 14 -62 51 -62h17c6 0 10 -4 10 -10v-31c0 -6 -4 -10 -10 -10h-23c-72 0 -99 34 -99 112v514c0 4 -2 6 -6 6h-56c-6 0 -10 4 -10 10v30c0 6 4 10 10 10zM255 373h49c6 0 10 -4 10 -10v-67c0 -6 -4 -10 -10 -10h-49
c-6 0 -10 4 -10 10v67c0 6 4 10 10 10z" />
    <glyph glyph-name="lslash" unicode="&#x142;" horiz-adv-x="275" 
d="M38 680h106c6 0 10 -4 10 -10v-270l68 36c6 3 10 0 10 -6v-33c0 -6 -2 -10 -10 -14l-68 -36v-236c0 -47 14 -62 51 -62h17c6 0 10 -4 10 -10v-31c0 -6 -4 -10 -10 -10h-23c-72 0 -99 34 -99 112v212l-39 -20c-6 -3 -10 0 -10 6v33c0 6 2 10 10 14l39 20v249
c0 4 -2 6 -6 6h-56c-6 0 -10 4 -10 10v30c0 6 4 10 10 10z" />
    <glyph glyph-name="m" unicode="m" horiz-adv-x="885" 
d="M610 487c108 0 167 -66 167 -182v-249c0 -4 2 -6 6 -6h55c6 0 10 -4 10 -10v-30c0 -6 -4 -10 -10 -10h-177c-6 0 -10 4 -10 10v30c0 6 4 10 10 10h56c4 0 6 2 6 6v236c0 96 -40 143 -123 143c-72 0 -127 -50 -127 -133v-246c0 -4 2 -6 6 -6h56c6 0 10 -4 10 -10v-30
c0 -6 -4 -10 -10 -10h-178c-6 0 -10 4 -10 10v30c0 6 4 10 10 10h56c4 0 6 2 6 6v236c0 96 -41 143 -123 143c-72 0 -127 -50 -127 -133v-246c0 -4 2 -6 6 -6h56c6 0 10 -4 10 -10v-30c0 -6 -4 -10 -10 -10h-178c-6 0 -10 4 -10 10v30c0 6 4 10 10 10h56c4 0 6 2 6 6v365
c0 4 -2 6 -6 6h-56c-6 0 -10 4 -10 10v30c0 6 4 10 10 10h106c6 0 10 -4 10 -10v-57h1c23 47 72 77 138 77c72 0 123 -31 147 -90h1c28 56 77 90 154 90z" />
    <glyph glyph-name="n" unicode="n" horiz-adv-x="581" 
d="M308 487c105 0 165 -66 165 -182v-249c0 -4 2 -6 6 -6h55c6 0 10 -4 10 -10v-30c0 -6 -4 -10 -10 -10h-177c-6 0 -10 4 -10 10v30c0 6 4 10 10 10h56c4 0 6 2 6 6v236c0 96 -41 143 -123 143c-72 0 -127 -50 -127 -133v-246c0 -4 2 -6 6 -6h56c6 0 10 -4 10 -10v-30
c0 -6 -4 -10 -10 -10h-178c-6 0 -10 4 -10 10v30c0 6 4 10 10 10h56c4 0 6 2 6 6v365c0 4 -2 6 -6 6h-56c-6 0 -10 4 -10 10v30c0 6 4 10 10 10h106c6 0 10 -4 10 -10v-57h1c23 47 72 77 138 77z" />
    <glyph glyph-name="nacute" unicode="&#x144;" horiz-adv-x="581" 
d="M335 700h38c6 0 9 -5 5 -10l-88 -122c-6 -7 -10 -10 -18 -10h-25c-6 0 -9 4 -6 10l77 122c4 7 9 10 17 10zM308 487c105 0 165 -66 165 -182v-249c0 -4 2 -6 6 -6h55c6 0 10 -4 10 -10v-30c0 -6 -4 -10 -10 -10h-177c-6 0 -10 4 -10 10v30c0 6 4 10 10 10h56c4 0 6 2 6 6
v236c0 96 -41 143 -123 143c-72 0 -127 -50 -127 -133v-246c0 -4 2 -6 6 -6h56c6 0 10 -4 10 -10v-30c0 -6 -4 -10 -10 -10h-178c-6 0 -10 4 -10 10v30c0 6 4 10 10 10h56c4 0 6 2 6 6v365c0 4 -2 6 -6 6h-56c-6 0 -10 4 -10 10v30c0 6 4 10 10 10h106c6 0 10 -4 10 -10v-57
h1c23 47 72 77 138 77z" />
    <glyph glyph-name="uni0149" unicode="&#x149;" horiz-adv-x="581" 
d="M39 680h37c6 0 10 -4 10 -10v-48c0 -9 -1 -13 -5 -21l-32 -57c-3 -6 -6 -9 -11 -9c-6 0 -9 4 -9 10v125c0 6 4 10 10 10zM308 487c105 0 165 -66 165 -182v-249c0 -4 2 -6 6 -6h55c6 0 10 -4 10 -10v-30c0 -6 -4 -10 -10 -10h-177c-6 0 -10 4 -10 10v30c0 6 4 10 10 10
h56c4 0 6 2 6 6v236c0 96 -41 143 -123 143c-72 0 -127 -50 -127 -133v-246c0 -4 2 -6 6 -6h56c6 0 10 -4 10 -10v-30c0 -6 -4 -10 -10 -10h-178c-6 0 -10 4 -10 10v30c0 6 4 10 10 10h56c4 0 6 2 6 6v365c0 4 -2 6 -6 6h-56c-6 0 -10 4 -10 10v30c0 6 4 10 10 10h106
c6 0 10 -4 10 -10v-57h1c23 47 72 77 138 77z" />
    <glyph glyph-name="ncaron" unicode="&#x148;" horiz-adv-x="581" 
d="M380 699h25c6 0 8 -5 4 -10l-91 -122c-5 -7 -8 -9 -15 -9h-23c-7 0 -11 2 -16 9l-90 122c-4 5 -2 10 4 10h25c7 0 10 -2 17 -10l70 -85h2l71 85c6 8 9 10 17 10zM308 487c105 0 165 -66 165 -182v-249c0 -4 2 -6 6 -6h55c6 0 10 -4 10 -10v-30c0 -6 -4 -10 -10 -10h-177
c-6 0 -10 4 -10 10v30c0 6 4 10 10 10h56c4 0 6 2 6 6v236c0 96 -41 143 -123 143c-72 0 -127 -50 -127 -133v-246c0 -4 2 -6 6 -6h56c6 0 10 -4 10 -10v-30c0 -6 -4 -10 -10 -10h-178c-6 0 -10 4 -10 10v30c0 6 4 10 10 10h56c4 0 6 2 6 6v365c0 4 -2 6 -6 6h-56
c-6 0 -10 4 -10 10v30c0 6 4 10 10 10h106c6 0 10 -4 10 -10v-57h1c23 47 72 77 138 77z" />
    <glyph glyph-name="ncommaaccent" unicode="&#x146;" horiz-adv-x="581" 
d="M308 487c105 0 165 -66 165 -182v-249c0 -4 2 -6 6 -6h55c6 0 10 -4 10 -10v-30c0 -6 -4 -10 -10 -10h-177c-6 0 -10 4 -10 10v30c0 6 4 10 10 10h56c4 0 6 2 6 6v236c0 96 -41 143 -123 143c-72 0 -127 -50 -127 -133v-246c0 -4 2 -6 6 -6h56c6 0 10 -4 10 -10v-30
c0 -6 -4 -10 -10 -10h-178c-6 0 -10 4 -10 10v30c0 6 4 10 10 10h56c4 0 6 2 6 6v365c0 4 -2 6 -6 6h-56c-6 0 -10 4 -10 10v30c0 6 4 10 10 10h106c6 0 10 -4 10 -10v-57h1c23 47 72 77 138 77zM272 -56h37c6 0 10 -4 10 -10v-42c0 -10 -1 -14 -5 -22l-32 -57
c-3 -6 -6 -8 -11 -8c-6 0 -9 3 -9 9v120c0 6 4 10 10 10z" />
    <glyph glyph-name="eng" unicode="&#x14b;" horiz-adv-x="572" 
d="M310 487c105 0 165 -66 165 -182v-360c0 -92 -35 -125 -123 -125h-12c-6 0 -10 4 -10 10v30c0 6 4 10 10 10h10c54 0 71 14 71 73v349c0 96 -41 143 -124 143c-72 0 -127 -50 -127 -133v-246c0 -4 2 -6 6 -6h56c6 0 10 -4 10 -10v-30c0 -6 -4 -10 -10 -10h-178
c-6 0 -10 4 -10 10v30c0 6 4 10 10 10h56c4 0 6 2 6 6v365c0 4 -2 6 -6 6h-56c-6 0 -10 4 -10 10v30c0 6 4 10 10 10h106c6 0 10 -4 10 -10v-57h1c23 47 72 77 139 77z" />
    <glyph glyph-name="ntilde" unicode="&#xf1;" horiz-adv-x="581" 
d="M237 680c24 0 43 -9 60 -20c16 -10 31 -18 49 -18c23 0 40 13 59 33c4 4 8 2 8 -3v-30c0 -6 -1 -9 -7 -16c-17 -17 -37 -30 -62 -30c-24 0 -42 10 -60 21c-16 10 -31 18 -49 18c-23 0 -39 -14 -58 -33c-5 -4 -9 -2 -9 3v30c0 6 2 9 8 15c16 18 36 30 61 30zM308 487
c105 0 165 -66 165 -182v-249c0 -4 2 -6 6 -6h55c6 0 10 -4 10 -10v-30c0 -6 -4 -10 -10 -10h-177c-6 0 -10 4 -10 10v30c0 6 4 10 10 10h56c4 0 6 2 6 6v236c0 96 -41 143 -123 143c-72 0 -127 -50 -127 -133v-246c0 -4 2 -6 6 -6h56c6 0 10 -4 10 -10v-30
c0 -6 -4 -10 -10 -10h-178c-6 0 -10 4 -10 10v30c0 6 4 10 10 10h56c4 0 6 2 6 6v365c0 4 -2 6 -6 6h-56c-6 0 -10 4 -10 10v30c0 6 4 10 10 10h106c6 0 10 -4 10 -10v-57h1c23 47 72 77 138 77z" />
    <glyph glyph-name="o" unicode="o" horiz-adv-x="503" 
d="M251 487c88 0 153 -45 179 -124c10 -32 16 -67 16 -124c0 -58 -6 -93 -16 -125c-26 -79 -91 -124 -179 -124c-87 0 -152 45 -178 124c-10 32 -16 67 -16 125c0 57 6 92 16 124c26 79 91 124 178 124zM251 435c-61 0 -107 -32 -126 -89c-9 -27 -13 -56 -13 -107
c0 -52 4 -81 13 -108c19 -57 65 -89 126 -89c62 0 108 32 127 89c9 27 13 56 13 108c0 51 -4 80 -13 107c-19 57 -65 89 -127 89z" />
    <glyph glyph-name="oacute" unicode="&#xf3;" horiz-adv-x="503" 
d="M313 700h38c6 0 9 -5 5 -10l-88 -122c-6 -7 -10 -10 -18 -10h-25c-6 0 -9 4 -6 10l77 122c4 7 9 10 17 10zM251 487c88 0 153 -45 179 -124c10 -32 16 -67 16 -124c0 -58 -6 -93 -16 -125c-26 -79 -91 -124 -179 -124c-87 0 -152 45 -178 124c-10 32 -16 67 -16 125
c0 57 6 92 16 124c26 79 91 124 178 124zM251 435c-61 0 -107 -32 -126 -89c-9 -27 -13 -56 -13 -107c0 -52 4 -81 13 -108c19 -57 65 -89 126 -89c62 0 108 32 127 89c9 27 13 56 13 108c0 51 -4 80 -13 107c-19 57 -65 89 -127 89z" />
    <glyph glyph-name="obreve" unicode="&#x14f;" horiz-adv-x="503" 
d="M347 684h19c6 0 10 -4 9 -10c-9 -61 -56 -104 -125 -104c-68 0 -116 43 -124 104c-1 6 3 10 9 10h19c7 0 10 -4 12 -10c11 -39 40 -60 84 -60c45 0 74 21 86 60c2 6 4 10 11 10zM251 487c88 0 153 -45 179 -124c10 -32 16 -67 16 -124c0 -58 -6 -93 -16 -125
c-26 -79 -91 -124 -179 -124c-87 0 -152 45 -178 124c-10 32 -16 67 -16 125c0 57 6 92 16 124c26 79 91 124 178 124zM251 435c-61 0 -107 -32 -126 -89c-9 -27 -13 -56 -13 -107c0 -52 4 -81 13 -108c19 -57 65 -89 126 -89c62 0 108 32 127 89c9 27 13 56 13 108
c0 51 -4 80 -13 107c-19 57 -65 89 -127 89z" />
    <glyph glyph-name="ocircumflex" unicode="&#xf4;" horiz-adv-x="503" 
d="M239 700h23c7 0 10 -2 15 -9l91 -123c4 -5 2 -10 -4 -10h-25c-8 0 -11 2 -17 10l-71 85h-2l-70 -85c-7 -8 -10 -10 -17 -10h-25c-6 0 -8 5 -4 10l90 123c5 7 9 9 16 9zM251 487c88 0 153 -45 179 -124c10 -32 16 -67 16 -124c0 -58 -6 -93 -16 -125
c-26 -79 -91 -124 -179 -124c-87 0 -152 45 -178 124c-10 32 -16 67 -16 125c0 57 6 92 16 124c26 79 91 124 178 124zM251 435c-61 0 -107 -32 -126 -89c-9 -27 -13 -56 -13 -107c0 -52 4 -81 13 -108c19 -57 65 -89 126 -89c62 0 108 32 127 89c9 27 13 56 13 108
c0 51 -4 80 -13 107c-19 57 -65 89 -127 89z" />
    <glyph glyph-name="odieresis" unicode="&#xf6;" horiz-adv-x="503" 
d="M131 680h40c6 0 10 -4 10 -10v-56c0 -6 -4 -10 -10 -10h-40c-6 0 -10 4 -10 10v56c0 6 4 10 10 10zM330 680h40c6 0 10 -4 10 -10v-56c0 -6 -4 -10 -10 -10h-40c-6 0 -10 4 -10 10v56c0 6 4 10 10 10zM251 487c88 0 153 -45 179 -124c10 -32 16 -67 16 -124
c0 -58 -6 -93 -16 -125c-26 -79 -91 -124 -179 -124c-87 0 -152 45 -178 124c-10 32 -16 67 -16 125c0 57 6 92 16 124c26 79 91 124 178 124zM251 435c-61 0 -107 -32 -126 -89c-9 -27 -13 -56 -13 -107c0 -52 4 -81 13 -108c19 -57 65 -89 126 -89c62 0 108 32 127 89
c9 27 13 56 13 108c0 51 -4 80 -13 107c-19 57 -65 89 -127 89z" />
    <glyph glyph-name="ograve" unicode="&#xf2;" horiz-adv-x="503" 
d="M151 700h38c8 0 12 -3 16 -10l77 -122c4 -6 1 -10 -5 -10h-25c-8 0 -13 3 -18 10l-88 122c-4 5 -1 10 5 10zM251 487c88 0 153 -45 179 -124c10 -32 16 -67 16 -124c0 -58 -6 -93 -16 -125c-26 -79 -91 -124 -179 -124c-87 0 -152 45 -178 124c-10 32 -16 67 -16 125
c0 57 6 92 16 124c26 79 91 124 178 124zM251 435c-61 0 -107 -32 -126 -89c-9 -27 -13 -56 -13 -107c0 -52 4 -81 13 -108c19 -57 65 -89 126 -89c62 0 108 32 127 89c9 27 13 56 13 108c0 51 -4 80 -13 107c-19 57 -65 89 -127 89z" />
    <glyph glyph-name="ohungarumlaut" unicode="&#x151;" horiz-adv-x="503" 
d="M254 700h33c6 0 8 -5 5 -10l-76 -123c-4 -6 -7 -9 -15 -9h-24c-6 0 -9 4 -6 10l67 122c4 7 8 10 16 10zM379 700h32c6 0 8 -5 5 -10l-76 -123c-4 -6 -7 -9 -15 -9h-24c-6 0 -8 4 -5 10l67 122c4 7 8 10 16 10zM251 487c88 0 153 -45 179 -124c10 -32 16 -67 16 -124
c0 -58 -6 -93 -16 -125c-26 -79 -91 -124 -179 -124c-87 0 -152 45 -178 124c-10 32 -16 67 -16 125c0 57 6 92 16 124c26 79 91 124 178 124zM251 435c-61 0 -107 -32 -126 -89c-9 -27 -13 -56 -13 -107c0 -52 4 -81 13 -108c19 -57 65 -89 126 -89c62 0 108 32 127 89
c9 27 13 56 13 108c0 51 -4 80 -13 107c-19 57 -65 89 -127 89z" />
    <glyph glyph-name="omacron" unicode="&#x14d;" horiz-adv-x="503" 
d="M131 664h240c6 0 10 -4 10 -10v-26c0 -6 -4 -10 -10 -10h-240c-6 0 -10 4 -10 10v26c0 6 4 10 10 10zM251 487c88 0 153 -45 179 -124c10 -32 16 -67 16 -124c0 -58 -6 -93 -16 -125c-26 -79 -91 -124 -179 -124c-87 0 -152 45 -178 124c-10 32 -16 67 -16 125
c0 57 6 92 16 124c26 79 91 124 178 124zM251 435c-61 0 -107 -32 -126 -89c-9 -27 -13 -56 -13 -107c0 -52 4 -81 13 -108c19 -57 65 -89 126 -89c62 0 108 32 127 89c9 27 13 56 13 108c0 51 -4 80 -13 107c-19 57 -65 89 -127 89z" />
    <glyph glyph-name="oslash" unicode="&#xf8;" horiz-adv-x="503" 
d="M422 507h17c6 0 8 -5 5 -10l-48 -73c15 -17 26 -38 34 -61c10 -32 16 -67 16 -124c0 -58 -6 -93 -16 -125c-26 -79 -91 -124 -179 -124c-48 0 -88 13 -120 39l-33 -49c-5 -7 -9 -10 -17 -10h-17c-6 0 -8 5 -5 10l47 72c-14 18 -25 38 -33 62c-10 32 -16 67 -16 125
c0 57 6 92 16 124c26 79 91 124 178 124c48 0 89 -14 121 -39l33 49c5 7 9 10 17 10zM251 435c-61 0 -107 -32 -126 -89c-9 -27 -13 -56 -13 -107c0 -52 4 -81 13 -108c4 -12 8 -21 14 -31l203 303c-23 21 -55 32 -91 32zM364 377l-203 -303c23 -21 54 -32 90 -32
c62 0 108 32 127 89c9 27 13 56 13 108c0 51 -4 80 -13 107c-4 11 -8 21 -14 31z" />
    <glyph glyph-name="otilde" unicode="&#xf5;" horiz-adv-x="503" 
d="M197 680c24 0 43 -9 60 -20c16 -10 31 -18 49 -18c23 0 40 13 59 33c4 4 8 2 8 -3v-30c0 -6 -1 -9 -7 -16c-17 -17 -37 -30 -62 -30c-24 0 -42 10 -60 21c-16 10 -31 18 -49 18c-23 0 -39 -14 -58 -33c-5 -4 -9 -2 -9 3v30c0 6 2 9 8 15c16 18 36 30 61 30zM251 487
c88 0 153 -45 179 -124c10 -32 16 -67 16 -124c0 -58 -6 -93 -16 -125c-26 -79 -91 -124 -179 -124c-87 0 -152 45 -178 124c-10 32 -16 67 -16 125c0 57 6 92 16 124c26 79 91 124 178 124zM251 435c-61 0 -107 -32 -126 -89c-9 -27 -13 -56 -13 -107c0 -52 4 -81 13 -108
c19 -57 65 -89 126 -89c62 0 108 32 127 89c9 27 13 56 13 108c0 51 -4 80 -13 107c-19 57 -65 89 -127 89z" />
    <glyph glyph-name="oe" unicode="&#x153;" horiz-adv-x="830" 
d="M582 487c86 0 151 -44 177 -124c10 -30 14 -61 14 -127c0 -6 -4 -10 -11 -10h-311c-4 0 -6 -3 -6 -7c1 -40 4 -62 11 -84c21 -64 69 -93 134 -93c63 0 105 27 134 61c5 6 11 6 16 1l20 -20c5 -5 5 -9 1 -14c-35 -47 -95 -80 -174 -80c-80 0 -138 33 -168 100h-2
c-29 -66 -88 -100 -166 -100c-88 0 -153 45 -178 124c-11 32 -16 67 -16 124c0 58 5 93 16 125c25 78 90 124 178 124c77 0 137 -35 166 -100h1c30 66 89 100 164 100zM582 437c-62 0 -108 -31 -127 -90c-6 -19 -10 -40 -10 -69c0 -4 2 -6 6 -6h261c4 0 6 2 6 6
c0 29 -3 50 -9 69c-20 59 -65 90 -127 90zM251 435c-61 0 -107 -32 -126 -89c-9 -27 -13 -56 -13 -107c0 -52 4 -81 13 -108c19 -57 65 -89 126 -89c62 0 108 32 127 89c9 27 13 56 13 108c0 51 -4 80 -13 107c-19 57 -65 89 -127 89z" />
    <glyph glyph-name="p" unicode="p" horiz-adv-x="551" 
d="M314 487c84 0 138 -38 163 -114c12 -39 17 -81 17 -135c0 -53 -5 -95 -17 -134c-25 -76 -79 -114 -163 -114c-78 0 -121 33 -144 78h-1v-192c0 -4 2 -6 6 -6h56c6 0 10 -4 10 -10v-30c0 -6 -4 -10 -10 -10h-178c-6 0 -10 4 -10 10v30c0 6 4 10 10 10h56c4 0 6 2 6 6v545
c0 4 -2 6 -6 6h-56c-6 0 -10 4 -10 10v30c0 6 4 10 10 10h106c6 0 10 -4 10 -10v-58h1c23 44 65 78 144 78zM304 435c-60 0 -104 -28 -122 -84c-9 -26 -13 -61 -13 -113s4 -86 13 -112c18 -56 62 -84 122 -84c63 0 104 30 122 84c10 30 13 70 13 112c0 43 -3 83 -13 113
c-18 54 -59 84 -122 84z" />
    <glyph glyph-name="thorn" unicode="&#xfe;" horiz-adv-x="551" 
d="M53 680h106c6 0 10 -4 10 -10v-261h1c23 44 65 78 144 78c84 0 138 -38 163 -114c12 -39 17 -81 17 -135c0 -53 -5 -95 -17 -134c-25 -76 -79 -114 -163 -114c-78 0 -121 33 -144 78h-1v-192c0 -4 2 -6 6 -6h56c6 0 10 -4 10 -10v-30c0 -6 -4 -10 -10 -10h-178
c-6 0 -10 4 -10 10v30c0 6 4 10 10 10h56c4 0 6 2 6 6v748c0 4 -2 6 -6 6h-56c-6 0 -10 4 -10 10v30c0 6 4 10 10 10zM304 435c-60 0 -104 -28 -122 -84c-9 -26 -13 -61 -13 -113s4 -86 13 -112c18 -56 62 -84 122 -84c63 0 104 30 122 84c10 30 13 70 13 112
c0 43 -3 83 -13 113c-18 54 -59 84 -122 84z" />
    <glyph glyph-name="q" unicode="q" horiz-adv-x="551" 
d="M236 487c79 0 122 -33 145 -78h1v58c0 6 4 10 10 10h106c6 0 10 -4 10 -10v-30c0 -6 -4 -10 -10 -10h-56c-4 0 -6 -2 -6 -6v-545c0 -4 2 -6 6 -6h56c6 0 10 -4 10 -10v-30c0 -6 -4 -10 -10 -10h-178c-6 0 -10 4 -10 10v30c0 6 4 10 10 10h56c4 0 6 2 6 6v192h-1
c-23 -45 -66 -78 -145 -78c-84 0 -138 39 -162 115c-13 39 -17 80 -17 133c0 54 4 96 17 135c24 76 78 114 162 114zM247 435c-63 0 -104 -30 -122 -84c-10 -30 -13 -70 -13 -113c0 -42 3 -82 13 -112c18 -54 59 -84 122 -84c60 0 104 28 122 84c9 26 13 60 13 112
s-4 87 -13 113c-18 56 -62 84 -122 84z" />
    <glyph glyph-name="r" unicode="r" horiz-adv-x="398" 
d="M301 484c28 0 46 -3 57 -7c6 -2 9 -5 9 -11v-33c0 -6 -3 -11 -11 -9c-14 3 -36 7 -60 7c-72 0 -127 -52 -127 -163v-212c0 -4 2 -6 6 -6h64c6 0 10 -4 10 -10v-30c0 -6 -4 -10 -10 -10h-186c-6 0 -10 4 -10 10v30c0 6 4 10 10 10h56c4 0 6 2 6 6v365c0 4 -2 6 -6 6h-56
c-6 0 -10 4 -10 10v30c0 6 4 10 10 10h106c6 0 10 -4 10 -10v-71h1c20 49 64 88 131 88z" />
    <glyph glyph-name="racute" unicode="&#x155;" horiz-adv-x="398" 
d="M271 700h38c6 0 9 -5 5 -10l-88 -122c-6 -7 -10 -10 -18 -10h-25c-6 0 -9 4 -6 10l77 122c4 7 9 10 17 10zM301 484c28 0 46 -3 57 -7c6 -2 9 -5 9 -11v-33c0 -6 -3 -11 -11 -9c-14 3 -36 7 -60 7c-72 0 -127 -52 -127 -163v-212c0 -4 2 -6 6 -6h64c6 0 10 -4 10 -10v-30
c0 -6 -4 -10 -10 -10h-186c-6 0 -10 4 -10 10v30c0 6 4 10 10 10h56c4 0 6 2 6 6v365c0 4 -2 6 -6 6h-56c-6 0 -10 4 -10 10v30c0 6 4 10 10 10h106c6 0 10 -4 10 -10v-71h1c20 49 64 88 131 88z" />
    <glyph glyph-name="rcaron" unicode="&#x159;" horiz-adv-x="398" 
d="M319 699h25c6 0 8 -5 4 -10l-91 -122c-5 -7 -8 -9 -15 -9h-23c-7 0 -11 2 -16 9l-90 122c-4 5 -2 10 4 10h25c7 0 10 -2 17 -10l70 -85h2l71 85c6 8 9 10 17 10zM301 484c28 0 46 -3 57 -7c6 -2 9 -5 9 -11v-33c0 -6 -3 -11 -11 -9c-14 3 -36 7 -60 7
c-72 0 -127 -52 -127 -163v-212c0 -4 2 -6 6 -6h64c6 0 10 -4 10 -10v-30c0 -6 -4 -10 -10 -10h-186c-6 0 -10 4 -10 10v30c0 6 4 10 10 10h56c4 0 6 2 6 6v365c0 4 -2 6 -6 6h-56c-6 0 -10 4 -10 10v30c0 6 4 10 10 10h106c6 0 10 -4 10 -10v-71h1c20 49 64 88 131 88z" />
    <glyph glyph-name="rcommaaccent" unicode="&#x157;" horiz-adv-x="398" 
d="M301 484c28 0 46 -3 57 -7c6 -2 9 -5 9 -11v-33c0 -6 -3 -11 -11 -9c-14 3 -36 7 -60 7c-72 0 -127 -52 -127 -163v-212c0 -4 2 -6 6 -6h64c6 0 10 -4 10 -10v-30c0 -6 -4 -10 -10 -10h-186c-6 0 -10 4 -10 10v30c0 6 4 10 10 10h56c4 0 6 2 6 6v365c0 4 -2 6 -6 6h-56
c-6 0 -10 4 -10 10v30c0 6 4 10 10 10h106c6 0 10 -4 10 -10v-71h1c20 49 64 88 131 88zM121 -56h37c6 0 10 -4 10 -10v-42c0 -10 -1 -14 -5 -22l-32 -57c-3 -6 -6 -8 -11 -8c-6 0 -9 3 -9 9v120c0 6 4 10 10 10z" />
    <glyph glyph-name="s" unicode="s" horiz-adv-x="473" 
d="M235 487c60 0 110 -13 147 -31c6 -3 8 -7 8 -12v-88c0 -6 -4 -10 -10 -10h-32c-6 0 -10 4 -10 10v56c0 4 -1 6 -5 8c-20 9 -57 18 -99 18c-76 0 -115 -30 -115 -82c0 -47 27 -72 108 -82l50 -6c98 -12 140 -56 140 -132c0 -91 -66 -146 -185 -146c-66 0 -119 15 -164 40
c-4 2 -6 6 -6 12v92c0 6 4 10 10 10h32c6 0 10 -4 10 -10v-61c0 -5 1 -7 4 -9c31 -15 74 -25 120 -25c82 0 125 35 125 91c0 50 -23 77 -110 87l-50 6c-90 11 -138 54 -138 128c0 86 64 136 170 136z" />
    <glyph glyph-name="sacute" unicode="&#x15b;" horiz-adv-x="473" 
d="M286 700h38c6 0 9 -5 5 -10l-88 -122c-6 -7 -10 -10 -18 -10h-25c-6 0 -9 4 -6 10l77 122c4 7 9 10 17 10zM235 487c60 0 110 -13 147 -31c6 -3 8 -7 8 -12v-88c0 -6 -4 -10 -10 -10h-32c-6 0 -10 4 -10 10v56c0 4 -1 6 -5 8c-20 9 -57 18 -99 18
c-76 0 -115 -30 -115 -82c0 -47 27 -72 108 -82l50 -6c98 -12 140 -56 140 -132c0 -91 -66 -146 -185 -146c-66 0 -119 15 -164 40c-4 2 -6 6 -6 12v92c0 6 4 10 10 10h32c6 0 10 -4 10 -10v-61c0 -5 1 -7 4 -9c31 -15 74 -25 120 -25c82 0 125 35 125 91
c0 50 -23 77 -110 87l-50 6c-90 11 -138 54 -138 128c0 86 64 136 170 136z" />
    <glyph glyph-name="scaron" unicode="&#x161;" horiz-adv-x="473" 
d="M316 699h25c6 0 8 -5 4 -10l-91 -122c-5 -7 -8 -9 -15 -9h-23c-7 0 -11 2 -16 9l-90 122c-4 5 -2 10 4 10h25c7 0 10 -2 17 -10l70 -85h2l71 85c6 8 9 10 17 10zM235 487c60 0 110 -13 147 -31c6 -3 8 -7 8 -12v-88c0 -6 -4 -10 -10 -10h-32c-6 0 -10 4 -10 10v56
c0 4 -1 6 -5 8c-20 9 -57 18 -99 18c-76 0 -115 -30 -115 -82c0 -47 27 -72 108 -82l50 -6c98 -12 140 -56 140 -132c0 -91 -66 -146 -185 -146c-66 0 -119 15 -164 40c-4 2 -6 6 -6 12v92c0 6 4 10 10 10h32c6 0 10 -4 10 -10v-61c0 -5 1 -7 4 -9c31 -15 74 -25 120 -25
c82 0 125 35 125 91c0 50 -23 77 -110 87l-50 6c-90 11 -138 54 -138 128c0 86 64 136 170 136z" />
    <glyph glyph-name="scedilla" unicode="&#x15f;" horiz-adv-x="473" 
d="M235 487c60 0 110 -13 147 -31c6 -3 8 -7 8 -12v-88c0 -6 -4 -10 -10 -10h-32c-6 0 -10 4 -10 10v56c0 4 -1 6 -5 8c-20 9 -57 18 -99 18c-76 0 -115 -30 -115 -82c0 -47 27 -72 108 -82l50 -6c98 -12 140 -56 140 -132c0 -83 -55 -136 -154 -144l-43 -130
c-3 -8 -7 -10 -16 -10h-31c-6 0 -9 4 -7 10l50 128c-59 2 -107 17 -148 40c-4 2 -6 6 -6 12v92c0 6 4 10 10 10h32c6 0 10 -4 10 -10v-61c0 -5 1 -7 4 -9c31 -15 74 -25 120 -25c82 0 125 35 125 91c0 50 -23 77 -110 87l-50 6c-90 11 -138 54 -138 128c0 86 64 136 170 136
z" />
    <glyph glyph-name="scircumflex" unicode="&#x15d;" horiz-adv-x="473" 
d="M217 700h23c7 0 10 -2 15 -9l91 -123c4 -5 2 -10 -4 -10h-25c-8 0 -11 2 -17 10l-71 85h-2l-70 -85c-7 -8 -10 -10 -17 -10h-25c-6 0 -8 5 -4 10l90 123c5 7 9 9 16 9zM235 487c60 0 110 -13 147 -31c6 -3 8 -7 8 -12v-88c0 -6 -4 -10 -10 -10h-32c-6 0 -10 4 -10 10v56
c0 4 -1 6 -5 8c-20 9 -57 18 -99 18c-76 0 -115 -30 -115 -82c0 -47 27 -72 108 -82l50 -6c98 -12 140 -56 140 -132c0 -91 -66 -146 -185 -146c-66 0 -119 15 -164 40c-4 2 -6 6 -6 12v92c0 6 4 10 10 10h32c6 0 10 -4 10 -10v-61c0 -5 1 -7 4 -9c31 -15 74 -25 120 -25
c82 0 125 35 125 91c0 50 -23 77 -110 87l-50 6c-90 11 -138 54 -138 128c0 86 64 136 170 136z" />
    <glyph glyph-name="scommaaccent" unicode="&#x219;" horiz-adv-x="473" 
d="M235 487c60 0 110 -13 147 -31c6 -3 8 -7 8 -12v-88c0 -6 -4 -10 -10 -10h-32c-6 0 -10 4 -10 10v56c0 4 -1 6 -5 8c-20 9 -57 18 -99 18c-76 0 -115 -30 -115 -82c0 -47 27 -72 108 -82l50 -6c98 -12 140 -56 140 -132c0 -91 -66 -146 -185 -146c-66 0 -119 15 -164 40
c-4 2 -6 6 -6 12v92c0 6 4 10 10 10h32c6 0 10 -4 10 -10v-61c0 -5 1 -7 4 -9c31 -15 74 -25 120 -25c82 0 125 35 125 91c0 50 -23 77 -110 87l-50 6c-90 11 -138 54 -138 128c0 86 64 136 170 136zM219 -56h37c6 0 10 -4 10 -10v-42c0 -10 -1 -14 -5 -22l-32 -57
c-3 -6 -6 -8 -11 -8c-6 0 -9 3 -9 9v120c0 6 4 10 10 10z" />
    <glyph glyph-name="germandbls" unicode="&#xdf;" horiz-adv-x="559" 
d="M294 690c119 0 180 -56 180 -147c0 -61 -27 -97 -72 -116v-2c33 -12 57 -35 71 -74c8 -25 11 -49 11 -129s-5 -107 -12 -129c-22 -69 -79 -94 -162 -94h-15c-6 0 -10 4 -10 10v30c0 6 4 10 10 10h13c61 0 97 18 112 65c6 18 10 36 10 108s-4 93 -10 112
c-15 48 -54 64 -114 65h-11c-6 0 -10 4 -10 10v32c0 6 4 10 10 10h15c76 0 110 28 110 92c0 62 -43 96 -125 96c-98 0 -136 -41 -136 -143v-440c0 -4 2 -6 6 -6h52c6 0 10 -4 10 -10v-30c0 -6 -4 -10 -10 -10h-174c-6 0 -10 4 -10 10v30c0 6 4 10 10 10h56c4 0 6 2 6 6v440
c0 125 51 194 189 194z" />
    <glyph glyph-name="t" unicode="t" horiz-adv-x="313" 
d="M117 630h34c6 0 10 -4 10 -10v-137c0 -4 2 -6 6 -6h90c6 0 10 -4 10 -10v-30c0 -6 -4 -10 -10 -10h-90c-4 0 -6 -2 -6 -6v-291c0 -64 22 -81 78 -81h18c6 0 10 -4 10 -10v-31c0 -6 -4 -10 -10 -10h-26c-89 0 -124 35 -124 129v294c0 4 -2 6 -6 6h-50c-6 0 -10 4 -10 10
v30c0 6 4 10 10 10h50c4 0 6 2 6 6v137c0 6 4 10 10 10z" />
    <glyph glyph-name="tbar" unicode="&#x167;" horiz-adv-x="313" 
d="M117 630h34c6 0 10 -4 10 -10v-137c0 -4 2 -6 6 -6h90c6 0 10 -4 10 -10v-30c0 -6 -4 -10 -10 -10h-90c-4 0 -6 -2 -6 -6v-71c0 -4 2 -6 6 -6h77c6 0 10 -4 10 -10v-26c0 -6 -4 -10 -10 -10h-77c-4 0 -6 -2 -6 -6v-161c0 -64 21 -82 77 -82h19c6 0 10 -4 10 -10v-31
c0 -6 -4 -10 -10 -10h-27c-89 0 -123 35 -123 129v165c0 4 -2 6 -6 6h-40c-6 0 -10 4 -10 10v26c0 6 4 10 10 10h40c4 0 6 2 6 6v71c0 4 -2 6 -6 6h-50c-6 0 -10 4 -10 10v30c0 6 4 10 10 10h50c4 0 6 2 6 6v137c0 6 4 10 10 10z" />
    <glyph glyph-name="tcaron" unicode="&#x165;" horiz-adv-x="313" 
d="M240 680h37c6 0 10 -4 10 -10v-48c0 -9 -1 -13 -5 -21l-32 -57c-3 -6 -6 -9 -11 -9c-6 0 -9 4 -9 10v125c0 6 4 10 10 10zM117 630h34c6 0 10 -4 10 -10v-137c0 -4 2 -6 6 -6h90c6 0 10 -4 10 -10v-30c0 -6 -4 -10 -10 -10h-90c-4 0 -6 -2 -6 -6v-291
c0 -64 22 -81 78 -81h18c6 0 10 -4 10 -10v-31c0 -6 -4 -10 -10 -10h-26c-89 0 -124 35 -124 129v294c0 4 -2 6 -6 6h-50c-6 0 -10 4 -10 10v30c0 6 4 10 10 10h50c4 0 6 2 6 6v137c0 6 4 10 10 10z" />
    <glyph glyph-name="uni0163" unicode="&#x163;" horiz-adv-x="313" 
d="M117 630h34c6 0 10 -4 10 -10v-137c0 -4 2 -6 6 -6h90c6 0 10 -4 10 -10v-30c0 -6 -4 -10 -10 -10h-90c-4 0 -6 -2 -6 -6v-291c0 -64 22 -81 78 -81h18c6 0 10 -4 10 -10v-31c0 -6 -4 -10 -10 -10h-26c-89 0 -124 35 -124 129v294c0 4 -2 6 -6 6h-50c-6 0 -10 4 -10 10
v30c0 6 4 10 10 10h50c4 0 6 2 6 6v137c0 6 4 10 10 10zM162 -56h37c6 0 10 -4 10 -10v-42c0 -10 -1 -14 -5 -22l-32 -57c-3 -6 -6 -8 -11 -8c-6 0 -9 3 -9 9v120c0 6 4 10 10 10z" />
    <glyph glyph-name="uni021B" unicode="&#x21b;" horiz-adv-x="313" 
d="M117 630h34c6 0 10 -4 10 -10v-137c0 -4 2 -6 6 -6h90c6 0 10 -4 10 -10v-30c0 -6 -4 -10 -10 -10h-90c-4 0 -6 -2 -6 -6v-291c0 -64 22 -81 78 -81h18c6 0 10 -4 10 -10v-31c0 -6 -4 -10 -10 -10h-26c-89 0 -124 35 -124 129v294c0 4 -2 6 -6 6h-50c-6 0 -10 4 -10 10
v30c0 6 4 10 10 10h50c4 0 6 2 6 6v137c0 6 4 10 10 10zM162 -56h37c6 0 10 -4 10 -10v-42c0 -10 -1 -14 -5 -22l-32 -57c-3 -6 -6 -8 -11 -8c-6 0 -9 3 -9 9v120c0 6 4 10 10 10z" />
    <glyph glyph-name="u" unicode="u" horiz-adv-x="569" 
d="M341 477h106c6 0 10 -4 10 -10v-411c0 -4 2 -6 6 -6h56c6 0 10 -4 10 -10v-30c0 -6 -4 -10 -10 -10h-106c-6 0 -10 4 -10 10v56h-1c-24 -48 -74 -76 -137 -76c-105 0 -163 66 -163 181v250c0 4 -2 6 -6 6h-56c-6 0 -10 4 -10 10v30c0 6 4 10 10 10h106c6 0 10 -4 10 -10
v-282c0 -96 38 -143 121 -143c71 0 126 50 126 132v247c0 4 -2 6 -6 6h-56c-6 0 -10 4 -10 10v30c0 6 4 10 10 10z" />
    <glyph glyph-name="uacute" unicode="&#xfa;" horiz-adv-x="569" 
d="M334 700h38c6 0 9 -5 5 -10l-88 -122c-6 -7 -10 -10 -18 -10h-25c-6 0 -9 4 -6 10l77 122c4 7 9 10 17 10zM341 477h106c6 0 10 -4 10 -10v-411c0 -4 2 -6 6 -6h56c6 0 10 -4 10 -10v-30c0 -6 -4 -10 -10 -10h-106c-6 0 -10 4 -10 10v56h-1c-24 -48 -74 -76 -137 -76
c-105 0 -163 66 -163 181v250c0 4 -2 6 -6 6h-56c-6 0 -10 4 -10 10v30c0 6 4 10 10 10h106c6 0 10 -4 10 -10v-282c0 -96 38 -143 121 -143c71 0 126 50 126 132v247c0 4 -2 6 -6 6h-56c-6 0 -10 4 -10 10v30c0 6 4 10 10 10z" />
    <glyph glyph-name="ubreve" unicode="&#x16d;" horiz-adv-x="569" 
d="M370 684h19c6 0 10 -4 9 -10c-9 -61 -56 -104 -125 -104c-68 0 -116 43 -124 104c-1 6 3 10 9 10h19c7 0 10 -4 12 -10c11 -39 40 -60 84 -60c45 0 74 21 86 60c2 6 4 10 11 10zM341 477h106c6 0 10 -4 10 -10v-411c0 -4 2 -6 6 -6h56c6 0 10 -4 10 -10v-30
c0 -6 -4 -10 -10 -10h-106c-6 0 -10 4 -10 10v56h-1c-24 -48 -74 -76 -137 -76c-105 0 -163 66 -163 181v250c0 4 -2 6 -6 6h-56c-6 0 -10 4 -10 10v30c0 6 4 10 10 10h106c6 0 10 -4 10 -10v-282c0 -96 38 -143 121 -143c71 0 126 50 126 132v247c0 4 -2 6 -6 6h-56
c-6 0 -10 4 -10 10v30c0 6 4 10 10 10z" />
    <glyph glyph-name="ucircumflex" unicode="&#xfb;" horiz-adv-x="569" 
d="M262 700h23c7 0 10 -2 15 -9l91 -123c4 -5 2 -10 -4 -10h-25c-8 0 -11 2 -17 10l-71 85h-2l-70 -85c-7 -8 -10 -10 -17 -10h-25c-6 0 -8 5 -4 10l90 123c5 7 9 9 16 9zM341 477h106c6 0 10 -4 10 -10v-411c0 -4 2 -6 6 -6h56c6 0 10 -4 10 -10v-30c0 -6 -4 -10 -10 -10
h-106c-6 0 -10 4 -10 10v56h-1c-24 -48 -74 -76 -137 -76c-105 0 -163 66 -163 181v250c0 4 -2 6 -6 6h-56c-6 0 -10 4 -10 10v30c0 6 4 10 10 10h106c6 0 10 -4 10 -10v-282c0 -96 38 -143 121 -143c71 0 126 50 126 132v247c0 4 -2 6 -6 6h-56c-6 0 -10 4 -10 10v30
c0 6 4 10 10 10z" />
    <glyph glyph-name="udieresis" unicode="&#xfc;" horiz-adv-x="569" 
d="M154 680h40c6 0 10 -4 10 -10v-56c0 -6 -4 -10 -10 -10h-40c-6 0 -10 4 -10 10v56c0 6 4 10 10 10zM353 680h40c6 0 10 -4 10 -10v-56c0 -6 -4 -10 -10 -10h-40c-6 0 -10 4 -10 10v56c0 6 4 10 10 10zM341 477h106c6 0 10 -4 10 -10v-411c0 -4 2 -6 6 -6h56
c6 0 10 -4 10 -10v-30c0 -6 -4 -10 -10 -10h-106c-6 0 -10 4 -10 10v56h-1c-24 -48 -74 -76 -137 -76c-105 0 -163 66 -163 181v250c0 4 -2 6 -6 6h-56c-6 0 -10 4 -10 10v30c0 6 4 10 10 10h106c6 0 10 -4 10 -10v-282c0 -96 38 -143 121 -143c71 0 126 50 126 132v247
c0 4 -2 6 -6 6h-56c-6 0 -10 4 -10 10v30c0 6 4 10 10 10z" />
    <glyph glyph-name="ugrave" unicode="&#xf9;" horiz-adv-x="569" 
d="M177 700h38c8 0 12 -3 16 -10l77 -122c4 -6 1 -10 -5 -10h-25c-8 0 -13 3 -18 10l-88 122c-4 5 -1 10 5 10zM341 477h106c6 0 10 -4 10 -10v-411c0 -4 2 -6 6 -6h56c6 0 10 -4 10 -10v-30c0 -6 -4 -10 -10 -10h-106c-6 0 -10 4 -10 10v56h-1c-24 -48 -74 -76 -137 -76
c-105 0 -163 66 -163 181v250c0 4 -2 6 -6 6h-56c-6 0 -10 4 -10 10v30c0 6 4 10 10 10h106c6 0 10 -4 10 -10v-282c0 -96 38 -143 121 -143c71 0 126 50 126 132v247c0 4 -2 6 -6 6h-56c-6 0 -10 4 -10 10v30c0 6 4 10 10 10z" />
    <glyph glyph-name="uhungarumlaut" unicode="&#x171;" horiz-adv-x="569" 
d="M266 700h33c6 0 8 -5 5 -10l-76 -123c-4 -6 -7 -9 -15 -9h-24c-6 0 -9 4 -6 10l67 122c4 7 8 10 16 10zM391 700h32c6 0 8 -5 5 -10l-76 -123c-4 -6 -7 -9 -15 -9h-24c-6 0 -8 4 -5 10l67 122c4 7 8 10 16 10zM341 477h106c6 0 10 -4 10 -10v-411c0 -4 2 -6 6 -6h56
c6 0 10 -4 10 -10v-30c0 -6 -4 -10 -10 -10h-106c-6 0 -10 4 -10 10v56h-1c-24 -48 -74 -76 -137 -76c-105 0 -163 66 -163 181v250c0 4 -2 6 -6 6h-56c-6 0 -10 4 -10 10v30c0 6 4 10 10 10h106c6 0 10 -4 10 -10v-282c0 -96 38 -143 121 -143c71 0 126 50 126 132v247
c0 4 -2 6 -6 6h-56c-6 0 -10 4 -10 10v30c0 6 4 10 10 10z" />
    <glyph glyph-name="umacron" unicode="&#x16b;" horiz-adv-x="569" 
d="M153 664h240c6 0 10 -4 10 -10v-26c0 -6 -4 -10 -10 -10h-240c-6 0 -10 4 -10 10v26c0 6 4 10 10 10zM341 477h106c6 0 10 -4 10 -10v-411c0 -4 2 -6 6 -6h56c6 0 10 -4 10 -10v-30c0 -6 -4 -10 -10 -10h-106c-6 0 -10 4 -10 10v56h-1c-24 -48 -74 -76 -137 -76
c-105 0 -163 66 -163 181v250c0 4 -2 6 -6 6h-56c-6 0 -10 4 -10 10v30c0 6 4 10 10 10h106c6 0 10 -4 10 -10v-282c0 -96 38 -143 121 -143c71 0 126 50 126 132v247c0 4 -2 6 -6 6h-56c-6 0 -10 4 -10 10v30c0 6 4 10 10 10z" />
    <glyph glyph-name="uogonek" unicode="&#x173;" horiz-adv-x="569" 
d="M341 477h106c6 0 10 -4 10 -10v-411c0 -4 2 -6 6 -6h56c6 0 10 -4 10 -10v-30c0 -6 -4 -10 -10 -10h-65c-70 -51 -83 -76 -83 -97c0 -18 11 -28 29 -28c9 0 18 3 28 9c5 3 10 2 13 -3l11 -21c2 -5 1 -9 -4 -13c-13 -10 -35 -19 -56 -19c-42 0 -70 25 -70 68
c0 41 30 75 81 110v60h-1c-24 -48 -74 -76 -137 -76c-105 0 -163 66 -163 181v250c0 4 -2 6 -6 6h-56c-6 0 -10 4 -10 10v30c0 6 4 10 10 10h106c6 0 10 -4 10 -10v-282c0 -96 38 -143 121 -143c71 0 126 50 126 132v247c0 4 -2 6 -6 6h-56c-6 0 -10 4 -10 10v30
c0 6 4 10 10 10z" />
    <glyph glyph-name="uring" unicode="&#x16f;" horiz-adv-x="569" 
d="M273 717c51 0 88 -37 88 -88s-37 -88 -88 -88s-88 37 -88 88s37 88 88 88zM273 685c-32 0 -53 -24 -53 -56s21 -56 53 -56s53 24 53 56s-21 56 -53 56zM341 477h106c6 0 10 -4 10 -10v-411c0 -4 2 -6 6 -6h56c6 0 10 -4 10 -10v-30c0 -6 -4 -10 -10 -10h-106
c-6 0 -10 4 -10 10v56h-1c-24 -48 -74 -76 -137 -76c-105 0 -163 66 -163 181v250c0 4 -2 6 -6 6h-56c-6 0 -10 4 -10 10v30c0 6 4 10 10 10h106c6 0 10 -4 10 -10v-282c0 -96 38 -143 121 -143c71 0 126 50 126 132v247c0 4 -2 6 -6 6h-56c-6 0 -10 4 -10 10v30
c0 6 4 10 10 10z" />
    <glyph glyph-name="utilde" unicode="&#x169;" horiz-adv-x="569" 
d="M220 680c24 0 43 -9 60 -20c16 -10 31 -18 49 -18c23 0 40 13 59 33c4 4 8 2 8 -3v-30c0 -6 -1 -9 -7 -16c-17 -17 -37 -30 -62 -30c-24 0 -42 10 -60 21c-16 10 -31 18 -49 18c-23 0 -39 -14 -58 -33c-5 -4 -9 -2 -9 3v30c0 6 2 9 8 15c16 18 36 30 61 30zM341 477h106
c6 0 10 -4 10 -10v-411c0 -4 2 -6 6 -6h56c6 0 10 -4 10 -10v-30c0 -6 -4 -10 -10 -10h-106c-6 0 -10 4 -10 10v56h-1c-24 -48 -74 -76 -137 -76c-105 0 -163 66 -163 181v250c0 4 -2 6 -6 6h-56c-6 0 -10 4 -10 10v30c0 6 4 10 10 10h106c6 0 10 -4 10 -10v-282
c0 -96 38 -143 121 -143c71 0 126 50 126 132v247c0 4 -2 6 -6 6h-56c-6 0 -10 4 -10 10v30c0 6 4 10 10 10z" />
    <glyph glyph-name="v" unicode="v" horiz-adv-x="491" 
d="M321 477h148c6 0 10 -4 10 -10v-30c0 -6 -4 -10 -10 -10h-32c-4 0 -6 -1 -8 -6l-154 -411c-2 -6 -5 -10 -11 -10h-37c-6 0 -9 4 -11 10l-155 411c-1 4 -3 6 -7 6h-32c-6 0 -10 4 -10 10v30c0 6 4 10 10 10h152c6 0 10 -4 10 -10v-30c0 -6 -4 -10 -10 -10h-48
c-4 0 -6 -3 -4 -7l125 -343h1l124 343c1 4 0 7 -5 7h-46c-6 0 -10 4 -10 10v30c0 6 4 10 10 10z" />
    <glyph glyph-name="w" unicode="w" horiz-adv-x="751" 
d="M581 477h149c6 0 10 -4 10 -10v-30c0 -6 -4 -10 -10 -10h-32c-4 0 -6 -1 -8 -6l-134 -411c-2 -7 -5 -10 -12 -10h-30c-7 0 -10 3 -12 10l-125 379h-2l-126 -379c-2 -7 -5 -10 -12 -10h-30c-7 0 -10 3 -12 10l-134 411c-1 4 -4 6 -8 6h-32c-6 0 -10 4 -10 10v30
c0 6 4 10 10 10h153c6 0 10 -4 10 -10v-30c0 -6 -4 -10 -10 -10h-51c-5 0 -6 -3 -5 -7l106 -336h1l123 383c2 6 5 10 12 10h31c6 0 10 -4 12 -10l126 -382h2l105 335c1 4 -1 7 -5 7h-50c-6 0 -10 4 -10 10v30c0 6 4 10 10 10z" />
    <glyph glyph-name="wacute" unicode="&#x1e83;" horiz-adv-x="751" 
d="M452 700h38c6 0 9 -5 5 -10l-88 -122c-6 -7 -10 -10 -18 -10h-25c-6 0 -9 4 -6 10l77 122c4 7 9 10 17 10zM581 477h149c6 0 10 -4 10 -10v-30c0 -6 -4 -10 -10 -10h-32c-4 0 -6 -1 -8 -6l-134 -411c-2 -7 -5 -10 -12 -10h-30c-7 0 -10 3 -12 10l-125 379h-2l-126 -379
c-2 -7 -5 -10 -12 -10h-30c-7 0 -10 3 -12 10l-134 411c-1 4 -4 6 -8 6h-32c-6 0 -10 4 -10 10v30c0 6 4 10 10 10h153c6 0 10 -4 10 -10v-30c0 -6 -4 -10 -10 -10h-51c-5 0 -6 -3 -5 -7l106 -336h1l123 383c2 6 5 10 12 10h31c6 0 10 -4 12 -10l126 -382h2l105 335
c1 4 -1 7 -5 7h-50c-6 0 -10 4 -10 10v30c0 6 4 10 10 10z" />
    <glyph glyph-name="wcircumflex" unicode="&#x175;" horiz-adv-x="751" 
d="M364 700h23c7 0 10 -2 15 -9l91 -123c4 -5 2 -10 -4 -10h-25c-8 0 -11 2 -17 10l-71 85h-2l-70 -85c-7 -8 -10 -10 -17 -10h-25c-6 0 -8 5 -4 10l90 123c5 7 9 9 16 9zM581 477h149c6 0 10 -4 10 -10v-30c0 -6 -4 -10 -10 -10h-32c-4 0 -6 -1 -8 -6l-134 -411
c-2 -7 -5 -10 -12 -10h-30c-7 0 -10 3 -12 10l-125 379h-2l-126 -379c-2 -7 -5 -10 -12 -10h-30c-7 0 -10 3 -12 10l-134 411c-1 4 -4 6 -8 6h-32c-6 0 -10 4 -10 10v30c0 6 4 10 10 10h153c6 0 10 -4 10 -10v-30c0 -6 -4 -10 -10 -10h-51c-5 0 -6 -3 -5 -7l106 -336h1
l123 383c2 6 5 10 12 10h31c6 0 10 -4 12 -10l126 -382h2l105 335c1 4 -1 7 -5 7h-50c-6 0 -10 4 -10 10v30c0 6 4 10 10 10z" />
    <glyph glyph-name="wdieresis" unicode="&#x1e85;" horiz-adv-x="751" 
d="M255 680h40c6 0 10 -4 10 -10v-56c0 -6 -4 -10 -10 -10h-40c-6 0 -10 4 -10 10v56c0 6 4 10 10 10zM454 680h40c6 0 10 -4 10 -10v-56c0 -6 -4 -10 -10 -10h-40c-6 0 -10 4 -10 10v56c0 6 4 10 10 10zM581 477h149c6 0 10 -4 10 -10v-30c0 -6 -4 -10 -10 -10h-32
c-4 0 -6 -1 -8 -6l-134 -411c-2 -7 -5 -10 -12 -10h-30c-7 0 -10 3 -12 10l-125 379h-2l-126 -379c-2 -7 -5 -10 -12 -10h-30c-7 0 -10 3 -12 10l-134 411c-1 4 -4 6 -8 6h-32c-6 0 -10 4 -10 10v30c0 6 4 10 10 10h153c6 0 10 -4 10 -10v-30c0 -6 -4 -10 -10 -10h-51
c-5 0 -6 -3 -5 -7l106 -336h1l123 383c2 6 5 10 12 10h31c6 0 10 -4 12 -10l126 -382h2l105 335c1 4 -1 7 -5 7h-50c-6 0 -10 4 -10 10v30c0 6 4 10 10 10z" />
    <glyph glyph-name="wgrave" unicode="&#x1e81;" horiz-adv-x="751" 
d="M260 700h38c8 0 12 -3 16 -10l77 -122c4 -6 1 -10 -5 -10h-25c-8 0 -13 3 -18 10l-88 122c-4 5 -1 10 5 10zM581 477h149c6 0 10 -4 10 -10v-30c0 -6 -4 -10 -10 -10h-32c-4 0 -6 -1 -8 -6l-134 -411c-2 -7 -5 -10 -12 -10h-30c-7 0 -10 3 -12 10l-125 379h-2l-126 -379
c-2 -7 -5 -10 -12 -10h-30c-7 0 -10 3 -12 10l-134 411c-1 4 -4 6 -8 6h-32c-6 0 -10 4 -10 10v30c0 6 4 10 10 10h153c6 0 10 -4 10 -10v-30c0 -6 -4 -10 -10 -10h-51c-5 0 -6 -3 -5 -7l106 -336h1l123 383c2 6 5 10 12 10h31c6 0 10 -4 12 -10l126 -382h2l105 335
c1 4 -1 7 -5 7h-50c-6 0 -10 4 -10 10v30c0 6 4 10 10 10z" />
    <glyph glyph-name="x" unicode="x" horiz-adv-x="471" 
d="M356 477h72c6 0 10 -4 10 -10v-30c0 -6 -4 -10 -10 -10h-45c-4 0 -7 -1 -10 -6l-108 -171l125 -195c3 -4 5 -5 10 -5h45c6 0 10 -4 10 -10v-30c0 -6 -4 -10 -10 -10h-73c-8 0 -12 3 -16 10l-120 191h-1l-123 -193c-4 -6 -7 -8 -14 -8h-71c-6 0 -10 4 -10 10v30
c0 6 4 10 10 10h44c5 0 8 2 10 5l124 195l-108 172c-2 3 -5 5 -9 5h-46c-6 0 -10 4 -10 10v30c0 6 4 10 10 10h73c7 0 10 -2 14 -8l106 -170h1l106 169c4 6 8 9 14 9z" />
    <glyph glyph-name="y" unicode="y" horiz-adv-x="484" 
d="M319 477h148c6 0 10 -4 10 -10v-30c0 -6 -4 -10 -10 -10h-31c-4 0 -6 -1 -8 -6l-179 -468c-41 -109 -76 -133 -137 -133h-21c-6 0 -10 4 -10 10v32c0 6 4 10 10 10h18c41 0 63 17 90 89l19 49l-160 411c-2 5 -4 6 -8 6h-31c-6 0 -10 4 -10 10v30c0 6 4 10 10 10h152
c6 0 10 -4 10 -10v-30c0 -6 -4 -10 -10 -10h-50c-4 0 -6 -3 -4 -8l127 -338h2l126 338c2 5 0 8 -4 8h-49c-6 0 -10 4 -10 10v30c0 6 4 10 10 10z" />
    <glyph glyph-name="yacute" unicode="&#xfd;" horiz-adv-x="484" 
d="M307 700h38c6 0 9 -5 5 -10l-88 -122c-6 -7 -10 -10 -18 -10h-25c-6 0 -9 4 -6 10l77 122c4 7 9 10 17 10zM319 477h148c6 0 10 -4 10 -10v-30c0 -6 -4 -10 -10 -10h-31c-4 0 -6 -1 -8 -6l-179 -468c-41 -109 -76 -133 -137 -133h-21c-6 0 -10 4 -10 10v32
c0 6 4 10 10 10h18c41 0 63 17 90 89l19 49l-160 411c-2 5 -4 6 -8 6h-31c-6 0 -10 4 -10 10v30c0 6 4 10 10 10h152c6 0 10 -4 10 -10v-30c0 -6 -4 -10 -10 -10h-50c-4 0 -6 -3 -4 -8l127 -338h2l126 338c2 5 0 8 -4 8h-49c-6 0 -10 4 -10 10v30c0 6 4 10 10 10z" />
    <glyph glyph-name="ycircumflex" unicode="&#x177;" horiz-adv-x="484" 
d="M232 700h23c7 0 10 -2 15 -9l91 -123c4 -5 2 -10 -4 -10h-25c-8 0 -11 2 -17 10l-71 85h-2l-70 -85c-7 -8 -10 -10 -17 -10h-25c-6 0 -8 5 -4 10l90 123c5 7 9 9 16 9zM319 477h148c6 0 10 -4 10 -10v-30c0 -6 -4 -10 -10 -10h-31c-4 0 -6 -1 -8 -6l-179 -468
c-41 -109 -76 -133 -137 -133h-21c-6 0 -10 4 -10 10v32c0 6 4 10 10 10h18c41 0 63 17 90 89l19 49l-160 411c-2 5 -4 6 -8 6h-31c-6 0 -10 4 -10 10v30c0 6 4 10 10 10h152c6 0 10 -4 10 -10v-30c0 -6 -4 -10 -10 -10h-50c-4 0 -6 -3 -4 -8l127 -338h2l126 338
c2 5 0 8 -4 8h-49c-6 0 -10 4 -10 10v30c0 6 4 10 10 10z" />
    <glyph glyph-name="ydieresis" unicode="&#xff;" horiz-adv-x="484" 
d="M124 680h40c6 0 10 -4 10 -10v-56c0 -6 -4 -10 -10 -10h-40c-6 0 -10 4 -10 10v56c0 6 4 10 10 10zM323 680h40c6 0 10 -4 10 -10v-56c0 -6 -4 -10 -10 -10h-40c-6 0 -10 4 -10 10v56c0 6 4 10 10 10zM319 477h148c6 0 10 -4 10 -10v-30c0 -6 -4 -10 -10 -10h-31
c-4 0 -6 -1 -8 -6l-179 -468c-41 -109 -76 -133 -137 -133h-21c-6 0 -10 4 -10 10v32c0 6 4 10 10 10h18c41 0 63 17 90 89l19 49l-160 411c-2 5 -4 6 -8 6h-31c-6 0 -10 4 -10 10v30c0 6 4 10 10 10h152c6 0 10 -4 10 -10v-30c0 -6 -4 -10 -10 -10h-50c-4 0 -6 -3 -4 -8
l127 -338h2l126 338c2 5 0 8 -4 8h-49c-6 0 -10 4 -10 10v30c0 6 4 10 10 10z" />
    <glyph glyph-name="ygrave" unicode="&#x1ef3;" horiz-adv-x="484" 
d="M152 700h38c8 0 12 -3 16 -10l77 -122c4 -6 1 -10 -5 -10h-25c-8 0 -13 3 -18 10l-88 122c-4 5 -1 10 5 10zM319 477h148c6 0 10 -4 10 -10v-30c0 -6 -4 -10 -10 -10h-31c-4 0 -6 -1 -8 -6l-179 -468c-41 -109 -76 -133 -137 -133h-21c-6 0 -10 4 -10 10v32
c0 6 4 10 10 10h18c41 0 63 17 90 89l19 49l-160 411c-2 5 -4 6 -8 6h-31c-6 0 -10 4 -10 10v30c0 6 4 10 10 10h152c6 0 10 -4 10 -10v-30c0 -6 -4 -10 -10 -10h-50c-4 0 -6 -3 -4 -8l127 -338h2l126 338c2 5 0 8 -4 8h-49c-6 0 -10 4 -10 10v30c0 6 4 10 10 10z" />
    <glyph glyph-name="z" unicode="z" horiz-adv-x="485" 
d="M78 477h332c6 0 10 -4 10 -10v-31c0 -5 -2 -8 -5 -13l-292 -372v-1h243c4 0 6 2 6 6v65c0 6 4 10 10 10h33c6 0 10 -4 10 -10v-111c0 -6 -4 -10 -10 -10h-350c-6 0 -10 4 -10 10v29c0 5 2 9 5 14l293 373v1h-227c-4 0 -6 -2 -6 -6v-64c0 -6 -4 -10 -10 -10h-32
c-6 0 -10 4 -10 10v110c0 6 4 10 10 10z" />
    <glyph glyph-name="zacute" unicode="&#x17a;" horiz-adv-x="485" 
d="M298 700h38c6 0 9 -5 5 -10l-88 -122c-6 -7 -10 -10 -18 -10h-25c-6 0 -9 4 -6 10l77 122c4 7 9 10 17 10zM78 477h332c6 0 10 -4 10 -10v-31c0 -5 -2 -8 -5 -13l-292 -372v-1h243c4 0 6 2 6 6v65c0 6 4 10 10 10h33c6 0 10 -4 10 -10v-111c0 -6 -4 -10 -10 -10h-350
c-6 0 -10 4 -10 10v29c0 5 2 9 5 14l293 373v1h-227c-4 0 -6 -2 -6 -6v-64c0 -6 -4 -10 -10 -10h-32c-6 0 -10 4 -10 10v110c0 6 4 10 10 10z" />
    <glyph glyph-name="zcaron" unicode="&#x17e;" horiz-adv-x="485" 
d="M327 699h25c6 0 8 -5 4 -10l-91 -122c-5 -7 -8 -9 -15 -9h-23c-7 0 -11 2 -16 9l-90 122c-4 5 -2 10 4 10h25c7 0 10 -2 17 -10l70 -85h2l71 85c6 8 9 10 17 10zM78 477h332c6 0 10 -4 10 -10v-31c0 -5 -2 -8 -5 -13l-292 -372v-1h243c4 0 6 2 6 6v65c0 6 4 10 10 10h33
c6 0 10 -4 10 -10v-111c0 -6 -4 -10 -10 -10h-350c-6 0 -10 4 -10 10v29c0 5 2 9 5 14l293 373v1h-227c-4 0 -6 -2 -6 -6v-64c0 -6 -4 -10 -10 -10h-32c-6 0 -10 4 -10 10v110c0 6 4 10 10 10z" />
    <glyph glyph-name="zdotaccent" unicode="&#x17c;" horiz-adv-x="485" 
d="M218 680h44c6 0 10 -4 10 -10v-56c0 -6 -4 -10 -10 -10h-44c-6 0 -10 4 -10 10v56c0 6 4 10 10 10zM78 477h332c6 0 10 -4 10 -10v-31c0 -5 -2 -8 -5 -13l-292 -372v-1h243c4 0 6 2 6 6v65c0 6 4 10 10 10h33c6 0 10 -4 10 -10v-111c0 -6 -4 -10 -10 -10h-350
c-6 0 -10 4 -10 10v29c0 5 2 9 5 14l293 373v1h-227c-4 0 -6 -2 -6 -6v-64c0 -6 -4 -10 -10 -10h-32c-6 0 -10 4 -10 10v110c0 6 4 10 10 10z" />
    <glyph glyph-name="a.alt01" horiz-adv-x="551" 
d="M237 487c79 0 121 -33 144 -79h1v59c0 6 4 10 10 10h106c6 0 10 -4 10 -10v-30c0 -6 -4 -10 -10 -10h-56c-4 0 -6 -2 -6 -6v-365c0 -4 2 -6 6 -6h56c6 0 10 -4 10 -10v-30c0 -6 -4 -10 -10 -10h-106c-6 0 -10 4 -10 10v58h-1c-23 -45 -65 -78 -144 -78
c-84 0 -139 38 -163 114c-13 39 -17 81 -17 134c0 54 4 96 17 135c24 76 79 114 163 114zM247 435c-62 0 -104 -30 -122 -84c-10 -30 -13 -70 -13 -113c0 -42 3 -82 13 -112c18 -54 60 -84 122 -84c60 0 104 28 122 84c9 26 13 60 13 112s-4 87 -13 113
c-18 56 -62 84 -122 84z" />
    <glyph glyph-name="aacute.alt01" horiz-adv-x="551" 
d="M308 700h38c6 0 9 -5 5 -10l-88 -122c-6 -7 -10 -10 -18 -10h-25c-6 0 -9 4 -6 10l77 122c4 7 9 10 17 10zM237 487c79 0 121 -33 144 -79h1v59c0 6 4 10 10 10h106c6 0 10 -4 10 -10v-30c0 -6 -4 -10 -10 -10h-56c-4 0 -6 -2 -6 -6v-365c0 -4 2 -6 6 -6h56
c6 0 10 -4 10 -10v-30c0 -6 -4 -10 -10 -10h-106c-6 0 -10 4 -10 10v58h-1c-23 -45 -65 -78 -144 -78c-84 0 -139 38 -163 114c-13 39 -17 81 -17 134c0 54 4 96 17 135c24 76 79 114 163 114zM247 435c-62 0 -104 -30 -122 -84c-10 -30 -13 -70 -13 -113
c0 -42 3 -82 13 -112c18 -54 60 -84 122 -84c60 0 104 28 122 84c9 26 13 60 13 112s-4 87 -13 113c-18 56 -62 84 -122 84z" />
    <glyph glyph-name="abreve.alt01" horiz-adv-x="551" 
d="M353 684h19c6 0 10 -4 9 -10c-9 -61 -56 -104 -125 -104c-68 0 -116 43 -124 104c-1 6 3 10 9 10h19c7 0 10 -4 12 -10c11 -39 40 -60 84 -60c45 0 74 21 86 60c2 6 4 10 11 10zM237 487c79 0 121 -33 144 -79h1v59c0 6 4 10 10 10h106c6 0 10 -4 10 -10v-30
c0 -6 -4 -10 -10 -10h-56c-4 0 -6 -2 -6 -6v-365c0 -4 2 -6 6 -6h56c6 0 10 -4 10 -10v-30c0 -6 -4 -10 -10 -10h-106c-6 0 -10 4 -10 10v58h-1c-23 -45 -65 -78 -144 -78c-84 0 -139 38 -163 114c-13 39 -17 81 -17 134c0 54 4 96 17 135c24 76 79 114 163 114zM247 435
c-62 0 -104 -30 -122 -84c-10 -30 -13 -70 -13 -113c0 -42 3 -82 13 -112c18 -54 60 -84 122 -84c60 0 104 28 122 84c9 26 13 60 13 112s-4 87 -13 113c-18 56 -62 84 -122 84z" />
    <glyph glyph-name="acircumflex.alt01" horiz-adv-x="551" 
d="M248 700h23c7 0 10 -2 15 -9l91 -123c4 -5 2 -10 -4 -10h-25c-8 0 -11 2 -17 10l-71 85h-2l-70 -85c-7 -8 -10 -10 -17 -10h-25c-6 0 -8 5 -4 10l90 123c5 7 9 9 16 9zM237 487c79 0 121 -33 144 -79h1v59c0 6 4 10 10 10h106c6 0 10 -4 10 -10v-30c0 -6 -4 -10 -10 -10
h-56c-4 0 -6 -2 -6 -6v-365c0 -4 2 -6 6 -6h56c6 0 10 -4 10 -10v-30c0 -6 -4 -10 -10 -10h-106c-6 0 -10 4 -10 10v58h-1c-23 -45 -65 -78 -144 -78c-84 0 -139 38 -163 114c-13 39 -17 81 -17 134c0 54 4 96 17 135c24 76 79 114 163 114zM247 435
c-62 0 -104 -30 -122 -84c-10 -30 -13 -70 -13 -113c0 -42 3 -82 13 -112c18 -54 60 -84 122 -84c60 0 104 28 122 84c9 26 13 60 13 112s-4 87 -13 113c-18 56 -62 84 -122 84z" />
    <glyph glyph-name="adieresis.alt01" horiz-adv-x="551" 
d="M139 680h40c6 0 10 -4 10 -10v-56c0 -6 -4 -10 -10 -10h-40c-6 0 -10 4 -10 10v56c0 6 4 10 10 10zM338 680h40c6 0 10 -4 10 -10v-56c0 -6 -4 -10 -10 -10h-40c-6 0 -10 4 -10 10v56c0 6 4 10 10 10zM237 487c79 0 121 -33 144 -79h1v59c0 6 4 10 10 10h106
c6 0 10 -4 10 -10v-30c0 -6 -4 -10 -10 -10h-56c-4 0 -6 -2 -6 -6v-365c0 -4 2 -6 6 -6h56c6 0 10 -4 10 -10v-30c0 -6 -4 -10 -10 -10h-106c-6 0 -10 4 -10 10v58h-1c-23 -45 -65 -78 -144 -78c-84 0 -139 38 -163 114c-13 39 -17 81 -17 134c0 54 4 96 17 135
c24 76 79 114 163 114zM247 435c-62 0 -104 -30 -122 -84c-10 -30 -13 -70 -13 -113c0 -42 3 -82 13 -112c18 -54 60 -84 122 -84c60 0 104 28 122 84c9 26 13 60 13 112s-4 87 -13 113c-18 56 -62 84 -122 84z" />
    <glyph glyph-name="agrave.alt01" horiz-adv-x="551" 
d="M160 700h38c8 0 12 -3 16 -10l77 -122c4 -6 1 -10 -5 -10h-25c-8 0 -13 3 -18 10l-88 122c-4 5 -1 10 5 10zM237 487c79 0 121 -33 144 -79h1v59c0 6 4 10 10 10h106c6 0 10 -4 10 -10v-30c0 -6 -4 -10 -10 -10h-56c-4 0 -6 -2 -6 -6v-365c0 -4 2 -6 6 -6h56
c6 0 10 -4 10 -10v-30c0 -6 -4 -10 -10 -10h-106c-6 0 -10 4 -10 10v58h-1c-23 -45 -65 -78 -144 -78c-84 0 -139 38 -163 114c-13 39 -17 81 -17 134c0 54 4 96 17 135c24 76 79 114 163 114zM247 435c-62 0 -104 -30 -122 -84c-10 -30 -13 -70 -13 -113
c0 -42 3 -82 13 -112c18 -54 60 -84 122 -84c60 0 104 28 122 84c9 26 13 60 13 112s-4 87 -13 113c-18 56 -62 84 -122 84z" />
    <glyph glyph-name="amacron.alt01" horiz-adv-x="551" 
d="M135 664h240c6 0 10 -4 10 -10v-26c0 -6 -4 -10 -10 -10h-240c-6 0 -10 4 -10 10v26c0 6 4 10 10 10zM237 487c79 0 121 -33 144 -79h1v59c0 6 4 10 10 10h106c6 0 10 -4 10 -10v-30c0 -6 -4 -10 -10 -10h-56c-4 0 -6 -2 -6 -6v-365c0 -4 2 -6 6 -6h56c6 0 10 -4 10 -10
v-30c0 -6 -4 -10 -10 -10h-106c-6 0 -10 4 -10 10v58h-1c-23 -45 -65 -78 -144 -78c-84 0 -139 38 -163 114c-13 39 -17 81 -17 134c0 54 4 96 17 135c24 76 79 114 163 114zM247 435c-62 0 -104 -30 -122 -84c-10 -30 -13 -70 -13 -113c0 -42 3 -82 13 -112
c18 -54 60 -84 122 -84c60 0 104 28 122 84c9 26 13 60 13 112s-4 87 -13 113c-18 56 -62 84 -122 84z" />
    <glyph glyph-name="aogonek.alt01" horiz-adv-x="551" 
d="M237 487c79 0 121 -33 144 -79h1v59c0 6 4 10 10 10h106c6 0 10 -4 10 -10v-30c0 -6 -4 -10 -10 -10h-56c-4 0 -6 -2 -6 -6v-365c0 -4 2 -6 6 -6h56c6 0 10 -4 10 -10v-30c0 -6 -4 -10 -10 -10h-61c-70 -51 -83 -76 -83 -97c0 -18 11 -28 29 -28c9 0 18 3 28 9
c5 3 10 2 13 -3l11 -21c2 -5 1 -9 -4 -13c-13 -10 -35 -19 -56 -19c-42 0 -70 25 -70 68c0 33 17 64 77 108v64h-1c-23 -45 -65 -78 -144 -78c-84 0 -139 38 -163 114c-13 39 -17 81 -17 134c0 54 4 96 17 135c24 76 79 114 163 114zM247 435c-62 0 -104 -30 -122 -84
c-10 -30 -13 -70 -13 -113c0 -42 3 -82 13 -112c18 -54 60 -84 122 -84c60 0 104 28 122 84c9 26 13 60 13 112s-4 87 -13 113c-18 56 -62 84 -122 84z" />
    <glyph glyph-name="aring.alt01" horiz-adv-x="551" 
d="M258 717c51 0 88 -37 88 -88s-37 -88 -88 -88s-88 37 -88 88s37 88 88 88zM258 685c-32 0 -53 -24 -53 -56s21 -56 53 -56s53 24 53 56s-21 56 -53 56zM237 487c79 0 121 -33 144 -79h1v59c0 6 4 10 10 10h106c6 0 10 -4 10 -10v-30c0 -6 -4 -10 -10 -10h-56
c-4 0 -6 -2 -6 -6v-365c0 -4 2 -6 6 -6h56c6 0 10 -4 10 -10v-30c0 -6 -4 -10 -10 -10h-106c-6 0 -10 4 -10 10v58h-1c-23 -45 -65 -78 -144 -78c-84 0 -139 38 -163 114c-13 39 -17 81 -17 134c0 54 4 96 17 135c24 76 79 114 163 114zM247 435c-62 0 -104 -30 -122 -84
c-10 -30 -13 -70 -13 -113c0 -42 3 -82 13 -112c18 -54 60 -84 122 -84c60 0 104 28 122 84c9 26 13 60 13 112s-4 87 -13 113c-18 56 -62 84 -122 84z" />
    <glyph glyph-name="atilde.alt01" horiz-adv-x="551" 
d="M205 680c24 0 43 -9 60 -20c16 -10 31 -18 49 -18c23 0 40 13 59 33c4 4 8 2 8 -3v-30c0 -6 -1 -9 -7 -16c-17 -17 -37 -30 -62 -30c-24 0 -42 10 -60 21c-16 10 -31 18 -49 18c-23 0 -39 -14 -58 -33c-5 -4 -9 -2 -9 3v30c0 6 2 9 8 15c16 18 36 30 61 30zM237 487
c79 0 121 -33 144 -79h1v59c0 6 4 10 10 10h106c6 0 10 -4 10 -10v-30c0 -6 -4 -10 -10 -10h-56c-4 0 -6 -2 -6 -6v-365c0 -4 2 -6 6 -6h56c6 0 10 -4 10 -10v-30c0 -6 -4 -10 -10 -10h-106c-6 0 -10 4 -10 10v58h-1c-23 -45 -65 -78 -144 -78c-84 0 -139 38 -163 114
c-13 39 -17 81 -17 134c0 54 4 96 17 135c24 76 79 114 163 114zM247 435c-62 0 -104 -30 -122 -84c-10 -30 -13 -70 -13 -113c0 -42 3 -82 13 -112c18 -54 60 -84 122 -84c60 0 104 28 122 84c9 26 13 60 13 112s-4 87 -13 113c-18 56 -62 84 -122 84z" />
    <glyph glyph-name="germandbls.alt01" horiz-adv-x="560" 
d="M238 680h29c6 0 10 -4 10 -10v-31c0 -6 -4 -10 -10 -10h-22c-73 0 -86 -15 -86 -87v-59c0 -4 2 -6 6 -6h311c6 0 10 -4 10 -10v-31c0 -6 -1 -9 -5 -14l-126 -165v-2c88 -29 143 -98 143 -207c0 -134 -99 -229 -246 -229c-6 0 -10 4 -10 10v32c0 6 4 10 10 10
c114 0 191 72 191 176c0 91 -51 150 -139 167c-6 1 -10 4 -10 10v31c0 6 2 9 6 14l119 154v2h-254c-4 0 -6 -2 -6 -6v-363c0 -4 2 -6 6 -6h56c6 0 10 -4 10 -10v-30c0 -6 -4 -10 -10 -10h-178c-6 0 -10 4 -10 10v30c0 6 4 10 10 10h56c4 0 6 2 6 6v478c0 114 36 146 133 146
z" />
    <glyph glyph-name="f_i" horiz-adv-x="593" 
d="M246 680h28c6 0 10 -4 10 -10v-30c0 -6 -4 -10 -10 -10h-22c-72 0 -85 -15 -85 -88v-59c0 -4 2 -6 6 -6h101c6 0 10 -4 10 -10v-30c0 -6 -4 -10 -10 -10h-101c-4 0 -6 -2 -6 -6v-365c0 -4 2 -6 6 -6h61c6 0 10 -4 10 -10v-30c0 -6 -4 -10 -10 -10h-181c-6 0 -10 4 -10 10
v30c0 6 4 10 10 10h54c4 0 6 2 6 6v365c0 4 -2 6 -6 6h-51c-6 0 -10 4 -10 10v30c0 6 4 10 10 10h51c4 0 6 2 6 6v51c0 114 36 146 133 146zM432 680h44c6 0 10 -4 10 -10v-56c0 -6 -4 -10 -10 -10h-44c-6 0 -10 4 -10 10v56c0 6 4 10 10 10zM365 477h106c6 0 10 -4 10 -10
v-411c0 -4 2 -6 6 -6h56c6 0 10 -4 10 -10v-30c0 -6 -4 -10 -10 -10h-178c-6 0 -10 4 -10 10v30c0 6 4 10 10 10h56c4 0 6 2 6 6v365c0 4 -2 6 -6 6h-56c-6 0 -10 4 -10 10v30c0 6 4 10 10 10z" />
    <glyph glyph-name="f_l" horiz-adv-x="587" 
d="M246 680h28c6 0 10 -4 10 -10v-30c0 -6 -4 -10 -10 -10h-22c-72 0 -85 -15 -85 -88v-59c0 -4 2 -6 6 -6h101c6 0 10 -4 10 -10v-30c0 -6 -4 -10 -10 -10h-101c-4 0 -6 -2 -6 -6v-365c0 -4 2 -6 6 -6h61c6 0 10 -4 10 -10v-30c0 -6 -4 -10 -10 -10h-181c-6 0 -10 4 -10 10
v30c0 6 4 10 10 10h54c4 0 6 2 6 6v365c0 4 -2 6 -6 6h-51c-6 0 -10 4 -10 10v30c0 6 4 10 10 10h51c4 0 6 2 6 6v51c0 114 36 146 133 146zM350 680h106c6 0 10 -4 10 -10v-559c0 -47 14 -62 51 -62h17c6 0 10 -4 10 -10v-31c0 -6 -4 -10 -10 -10h-23c-72 0 -99 34 -99 112
v514c0 4 -2 6 -6 6h-56c-6 0 -10 4 -10 10v30c0 6 4 10 10 10z" />
    <glyph glyph-name="uni1E9E.sc" horiz-adv-x="567" 
d="M300 527c62 0 122 -17 165 -44c7 -4 9 -7 9 -14v-23c0 -6 -2 -11 -6 -15l-93 -97c91 -5 149 -52 149 -163c0 -109 -54 -175 -167 -175c-36 0 -60 3 -82 12c-5 2 -7 6 -5 13l10 31c2 5 5 8 13 5c24 -8 38 -10 62 -10c77 0 114 40 114 124c0 85 -43 117 -134 117h-19
c-6 0 -10 4 -10 11v23c0 7 2 11 5 15l101 111c-27 16 -67 27 -113 27c-84 0 -145 -47 -145 -131v-288c0 -4 2 -6 6 -6h53c6 0 10 -4 10 -10v-30c0 -6 -4 -10 -10 -10h-175c-6 0 -10 4 -10 10v30c0 6 4 10 10 10h56c4 0 6 2 6 6v288c0 112 79 183 200 183z" />
    <glyph glyph-name="a.sc" horiz-adv-x="533" 
d="M246 517h44c6 0 10 -4 12 -10l167 -450c2 -5 5 -7 9 -7h42c6 0 10 -4 10 -10v-30c0 -6 -4 -10 -10 -10h-174c-6 0 -10 4 -10 10v30c0 6 4 10 10 10h62c4 0 7 3 5 7l-38 104h-216l-38 -104c-2 -5 0 -7 4 -7h63c6 0 10 -4 10 -10v-30c0 -6 -4 -10 -10 -10h-175
c-6 0 -10 4 -10 10v30c0 6 4 10 10 10h43c4 0 7 2 9 7l169 450c2 6 6 10 12 10zM267 451l-89 -240h178l-87 240h-2z" />
    <glyph glyph-name="aacute.sc" horiz-adv-x="533" 
d="M339 740h38c6 0 9 -5 5 -10l-88 -122c-6 -7 -10 -10 -18 -10h-25c-6 0 -9 4 -6 10l77 122c4 7 9 10 17 10zM246 517h44c6 0 10 -4 12 -10l167 -450c2 -5 5 -7 9 -7h42c6 0 10 -4 10 -10v-30c0 -6 -4 -10 -10 -10h-174c-6 0 -10 4 -10 10v30c0 6 4 10 10 10h62
c4 0 7 3 5 7l-38 104h-216l-38 -104c-2 -5 0 -7 4 -7h63c6 0 10 -4 10 -10v-30c0 -6 -4 -10 -10 -10h-175c-6 0 -10 4 -10 10v30c0 6 4 10 10 10h43c4 0 7 2 9 7l169 450c2 6 6 10 12 10zM267 451l-89 -240h178l-87 240h-2z" />
    <glyph glyph-name="abreve.sc" horiz-adv-x="533" 
d="M363 724h19c6 0 10 -4 9 -10c-9 -61 -56 -104 -125 -104c-68 0 -116 43 -124 104c-1 6 3 10 9 10h19c7 0 10 -4 12 -10c11 -39 40 -60 84 -60c45 0 74 21 86 60c2 6 4 10 11 10zM246 517h44c6 0 10 -4 12 -10l167 -450c2 -5 5 -7 9 -7h42c6 0 10 -4 10 -10v-30
c0 -6 -4 -10 -10 -10h-174c-6 0 -10 4 -10 10v30c0 6 4 10 10 10h62c4 0 7 3 5 7l-38 104h-216l-38 -104c-2 -5 0 -7 4 -7h63c6 0 10 -4 10 -10v-30c0 -6 -4 -10 -10 -10h-175c-6 0 -10 4 -10 10v30c0 6 4 10 10 10h43c4 0 7 2 9 7l169 450c2 6 6 10 12 10zM267 451
l-89 -240h178l-87 240h-2z" />
    <glyph glyph-name="acircumflex.sc" horiz-adv-x="533" 
d="M255 740h23c7 0 10 -2 15 -9l91 -123c4 -5 2 -10 -4 -10h-25c-8 0 -11 2 -17 10l-71 85h-2l-70 -85c-7 -8 -10 -10 -17 -10h-25c-6 0 -8 5 -4 10l90 123c5 7 9 9 16 9zM246 517h44c6 0 10 -4 12 -10l167 -450c2 -5 5 -7 9 -7h42c6 0 10 -4 10 -10v-30
c0 -6 -4 -10 -10 -10h-174c-6 0 -10 4 -10 10v30c0 6 4 10 10 10h62c4 0 7 3 5 7l-38 104h-216l-38 -104c-2 -5 0 -7 4 -7h63c6 0 10 -4 10 -10v-30c0 -6 -4 -10 -10 -10h-175c-6 0 -10 4 -10 10v30c0 6 4 10 10 10h43c4 0 7 2 9 7l169 450c2 6 6 10 12 10zM267 451
l-89 -240h178l-87 240h-2z" />
    <glyph glyph-name="adieresis.sc" horiz-adv-x="533" 
d="M147 720h40c6 0 10 -4 10 -10v-56c0 -6 -4 -10 -10 -10h-40c-6 0 -10 4 -10 10v56c0 6 4 10 10 10zM346 720h40c6 0 10 -4 10 -10v-56c0 -6 -4 -10 -10 -10h-40c-6 0 -10 4 -10 10v56c0 6 4 10 10 10zM246 517h44c6 0 10 -4 12 -10l167 -450c2 -5 5 -7 9 -7h42
c6 0 10 -4 10 -10v-30c0 -6 -4 -10 -10 -10h-174c-6 0 -10 4 -10 10v30c0 6 4 10 10 10h62c4 0 7 3 5 7l-38 104h-216l-38 -104c-2 -5 0 -7 4 -7h63c6 0 10 -4 10 -10v-30c0 -6 -4 -10 -10 -10h-175c-6 0 -10 4 -10 10v30c0 6 4 10 10 10h43c4 0 7 2 9 7l169 450
c2 6 6 10 12 10zM267 451l-89 -240h178l-87 240h-2z" />
    <glyph glyph-name="agrave.sc" horiz-adv-x="533" 
d="M159 740h38c8 0 12 -3 16 -10l77 -122c4 -6 1 -10 -5 -10h-25c-8 0 -12 3 -18 10l-88 122c-4 5 -1 10 5 10zM246 517h44c6 0 10 -4 12 -10l167 -450c2 -5 5 -7 9 -7h42c6 0 10 -4 10 -10v-30c0 -6 -4 -10 -10 -10h-174c-6 0 -10 4 -10 10v30c0 6 4 10 10 10h62
c4 0 7 3 5 7l-38 104h-216l-38 -104c-2 -5 0 -7 4 -7h63c6 0 10 -4 10 -10v-30c0 -6 -4 -10 -10 -10h-175c-6 0 -10 4 -10 10v30c0 6 4 10 10 10h43c4 0 7 2 9 7l169 450c2 6 6 10 12 10zM267 451l-89 -240h178l-87 240h-2z" />
    <glyph glyph-name="amacron.sc" horiz-adv-x="533" 
d="M146 704h240c6 0 10 -4 10 -10v-26c0 -6 -4 -10 -10 -10h-240c-6 0 -10 4 -10 10v26c0 6 4 10 10 10zM246 517h44c6 0 10 -4 12 -10l167 -450c2 -5 5 -7 9 -7h42c6 0 10 -4 10 -10v-30c0 -6 -4 -10 -10 -10h-174c-6 0 -10 4 -10 10v30c0 6 4 10 10 10h62c4 0 7 3 5 7
l-38 104h-216l-38 -104c-2 -5 0 -7 4 -7h63c6 0 10 -4 10 -10v-30c0 -6 -4 -10 -10 -10h-175c-6 0 -10 4 -10 10v30c0 6 4 10 10 10h43c4 0 7 2 9 7l169 450c2 6 6 10 12 10zM267 451l-89 -240h178l-87 240h-2z" />
    <glyph glyph-name="aogonek.sc" horiz-adv-x="533" 
d="M246 517h44c6 0 10 -4 12 -10l167 -450c2 -5 5 -7 9 -7h42c6 0 10 -4 10 -10v-30c0 -6 -4 -10 -10 -10h-136c-70 -51 -83 -76 -83 -97c0 -18 11 -28 29 -28c9 0 18 3 28 9c5 3 10 2 13 -3l11 -21c2 -5 1 -9 -4 -13c-13 -10 -35 -19 -56 -19c-42 0 -70 25 -70 68
c0 33 17 67 84 112v32c0 6 4 10 10 10h62c4 0 7 3 5 7l-38 104h-216l-38 -104c-2 -5 0 -7 4 -7h63c6 0 10 -4 10 -10v-30c0 -6 -4 -10 -10 -10h-175c-6 0 -10 4 -10 10v30c0 6 4 10 10 10h43c4 0 7 2 9 7l169 450c2 6 6 10 12 10zM267 451l-89 -240h178l-87 240h-2z" />
    <glyph glyph-name="aring.sc" horiz-adv-x="533" 
d="M266 758c51 0 88 -38 88 -89s-37 -89 -88 -89c-50 0 -88 38 -88 89s38 89 88 89zM266 724c-31 0 -54 -23 -54 -55s23 -55 54 -55c32 0 54 23 54 55s-22 55 -54 55zM246 517h44c6 0 10 -4 12 -10l167 -450c2 -5 5 -7 9 -7h42c6 0 10 -4 10 -10v-30c0 -6 -4 -10 -10 -10
h-174c-6 0 -10 4 -10 10v30c0 6 4 10 10 10h62c4 0 7 3 5 7l-38 104h-216l-38 -104c-2 -5 0 -7 4 -7h63c6 0 10 -4 10 -10v-30c0 -6 -4 -10 -10 -10h-175c-6 0 -10 4 -10 10v30c0 6 4 10 10 10h43c4 0 7 2 9 7l169 450c2 6 6 10 12 10zM267 451l-89 -240h178l-87 240h-2z
" />
    <glyph glyph-name="atilde.sc" horiz-adv-x="533" 
d="M213 720c24 0 43 -10 60 -21c16 -10 31 -18 49 -18c23 0 40 14 59 33c4 4 8 2 8 -3v-30c0 -6 -1 -9 -7 -15c-17 -18 -37 -30 -62 -30c-24 0 -42 10 -60 20c-16 10 -31 18 -49 18c-23 0 -39 -13 -58 -33c-5 -4 -9 -2 -9 3v30c0 6 2 9 8 16c16 17 36 30 61 30zM246 517h44
c6 0 10 -4 12 -10l167 -450c2 -5 5 -7 9 -7h42c6 0 10 -4 10 -10v-30c0 -6 -4 -10 -10 -10h-174c-6 0 -10 4 -10 10v30c0 6 4 10 10 10h62c4 0 7 3 5 7l-38 104h-216l-38 -104c-2 -5 0 -7 4 -7h63c6 0 10 -4 10 -10v-30c0 -6 -4 -10 -10 -10h-175c-6 0 -10 4 -10 10v30
c0 6 4 10 10 10h43c4 0 7 2 9 7l169 450c2 6 6 10 12 10zM267 451l-89 -240h178l-87 240h-2z" />
    <glyph glyph-name="ae.sc" horiz-adv-x="760" 
d="M340 517h349c6 0 10 -4 10 -10v-105c0 -6 -4 -10 -10 -10h-31c-6 0 -10 4 -10 10v58c0 4 -2 6 -6 6h-219c-4 0 -6 -2 -6 -6v-167c0 -4 2 -6 6 -6h160c4 0 6 2 6 6v44c0 6 4 10 10 10h31c6 0 10 -4 10 -10v-150c0 -6 -4 -10 -10 -10h-31c-6 0 -10 4 -10 10v44
c0 4 -2 6 -6 6h-160c-4 0 -6 -2 -6 -6v-174c0 -4 2 -6 6 -6h220c4 0 6 2 6 6v61c0 6 4 10 10 10h31c6 0 10 -4 10 -10v-108c0 -6 -4 -10 -10 -10h-317c-6 0 -10 4 -10 10v125c0 4 -2 6 -6 6h-197l-51 -84c-3 -5 -1 -7 3 -7h58c6 0 10 -4 10 -10v-30c0 -6 -4 -10 -10 -10
h-159c-6 0 -10 4 -10 10v30c0 6 4 10 10 10h31c4 0 7 2 9 5l273 452c4 6 9 10 16 10zM360 466l-168 -274h165c4 0 6 2 6 6v268h-3z" />
    <glyph glyph-name="b.sc" horiz-adv-x="519" 
d="M53 517h249c106 0 163 -54 163 -135c0 -61 -33 -99 -84 -115v-2c40 -8 93 -47 93 -122c0 -90 -62 -143 -176 -143h-245c-6 0 -10 4 -10 10v30c0 6 4 10 10 10h56c4 0 6 2 6 6v405c0 4 -2 6 -6 6h-56c-6 0 -10 4 -10 10v30c0 6 4 10 10 10zM300 466h-125c-4 0 -6 -2 -6 -6
v-166c0 -4 2 -6 6 -6h125c72 0 110 36 110 89c0 56 -38 89 -110 89zM303 238h-128c-4 0 -6 -2 -6 -6v-175c0 -4 2 -6 6 -6h128c77 0 117 35 117 93c0 57 -40 94 -117 94z" />
    <glyph glyph-name="c.sc" horiz-adv-x="510" 
d="M272 527c61 0 112 -14 157 -41c7 -4 8 -10 8 -17v-96c0 -6 -4 -10 -10 -10h-32c-6 0 -10 4 -10 10v69c0 5 -1 6 -4 8c-27 15 -60 26 -110 26c-78 0 -125 -33 -146 -96c-8 -25 -13 -51 -13 -122c0 -70 4 -98 12 -123c21 -62 68 -94 148 -94c48 0 83 9 109 23c3 2 4 3 4 8
v71c0 6 4 10 10 10h32c6 0 10 -4 10 -10v-98c0 -7 -1 -12 -7 -16c-42 -26 -95 -39 -159 -39c-110 0 -172 44 -199 128c-9 28 -15 67 -15 140s7 110 16 138c27 85 93 131 199 131z" />
    <glyph glyph-name="cacute.sc" horiz-adv-x="510" 
d="M319 740h38c6 0 9 -5 5 -10l-88 -122c-6 -7 -10 -10 -18 -10h-25c-6 0 -9 4 -6 10l77 122c4 7 9 10 17 10zM272 527c61 0 112 -14 157 -41c7 -4 8 -10 8 -17v-96c0 -6 -4 -10 -10 -10h-32c-6 0 -10 4 -10 10v69c0 5 -1 6 -4 8c-27 15 -60 26 -110 26
c-78 0 -125 -33 -146 -96c-8 -25 -13 -51 -13 -122c0 -70 4 -98 12 -123c21 -62 68 -94 148 -94c48 0 83 9 109 23c3 2 4 3 4 8v71c0 6 4 10 10 10h32c6 0 10 -4 10 -10v-98c0 -7 -1 -12 -7 -16c-42 -26 -95 -39 -159 -39c-110 0 -172 44 -199 128c-9 28 -15 67 -15 140
s7 110 16 138c27 85 93 131 199 131z" />
    <glyph glyph-name="ccaron.sc" horiz-adv-x="510" 
d="M356 740h25c6 0 8 -5 4 -10l-91 -122c-5 -7 -8 -10 -15 -10h-23c-7 0 -11 3 -16 10l-90 122c-4 5 -2 10 4 10h25c7 0 10 -2 17 -10l70 -85h2l71 85c6 8 9 10 17 10zM272 527c61 0 112 -14 157 -41c7 -4 8 -10 8 -17v-96c0 -6 -4 -10 -10 -10h-32c-6 0 -10 4 -10 10v69
c0 5 -1 6 -4 8c-27 15 -60 26 -110 26c-78 0 -125 -33 -146 -96c-8 -25 -13 -51 -13 -122c0 -70 4 -98 12 -123c21 -62 68 -94 148 -94c48 0 83 9 109 23c3 2 4 3 4 8v71c0 6 4 10 10 10h32c6 0 10 -4 10 -10v-98c0 -7 -1 -12 -7 -16c-42 -26 -95 -39 -159 -39
c-110 0 -172 44 -199 128c-9 28 -15 67 -15 140s7 110 16 138c27 85 93 131 199 131z" />
    <glyph glyph-name="ccedilla.sc" horiz-adv-x="510" 
d="M272 527c61 0 112 -14 157 -41c7 -4 8 -10 8 -17v-96c0 -6 -4 -10 -10 -10h-32c-6 0 -10 4 -10 10v69c0 5 -1 6 -4 8c-27 15 -60 26 -110 26c-78 0 -125 -33 -146 -96c-8 -25 -13 -51 -13 -122c0 -70 4 -98 12 -123c21 -62 68 -94 148 -94c48 0 83 9 109 23c3 2 4 3 4 8
v71c0 6 4 10 10 10h32c6 0 10 -4 10 -10v-98c0 -7 -1 -12 -7 -16c-39 -24 -87 -37 -145 -39l-42 -128c-3 -8 -7 -10 -16 -10h-31c-6 0 -9 4 -7 10l50 129c-90 8 -143 51 -167 127c-9 28 -15 67 -15 140s7 110 16 138c27 85 93 131 199 131z" />
    <glyph glyph-name="ccircumflex.sc" horiz-adv-x="510" 
d="M257 740h23c7 0 10 -2 15 -9l91 -123c4 -5 2 -10 -4 -10h-25c-8 0 -11 2 -17 10l-71 85h-2l-70 -85c-7 -8 -10 -10 -17 -10h-25c-6 0 -8 5 -4 10l90 123c5 7 9 9 16 9zM272 527c61 0 112 -14 157 -41c7 -4 8 -10 8 -17v-96c0 -6 -4 -10 -10 -10h-32c-6 0 -10 4 -10 10v69
c0 5 -1 6 -4 8c-27 15 -60 26 -110 26c-78 0 -125 -33 -146 -96c-8 -25 -13 -51 -13 -122c0 -70 4 -98 12 -123c21 -62 68 -94 148 -94c48 0 83 9 109 23c3 2 4 3 4 8v71c0 6 4 10 10 10h32c6 0 10 -4 10 -10v-98c0 -7 -1 -12 -7 -16c-42 -26 -95 -39 -159 -39
c-110 0 -172 44 -199 128c-9 28 -15 67 -15 140s7 110 16 138c27 85 93 131 199 131z" />
    <glyph glyph-name="cdotaccent.sc" horiz-adv-x="510" 
d="M245 720h44c6 0 10 -4 10 -10v-56c0 -6 -4 -10 -10 -10h-44c-6 0 -10 4 -10 10v56c0 6 4 10 10 10zM272 527c61 0 112 -14 157 -41c7 -4 8 -10 8 -17v-96c0 -6 -4 -10 -10 -10h-32c-6 0 -10 4 -10 10v69c0 5 -1 6 -4 8c-27 15 -60 26 -110 26c-78 0 -125 -33 -146 -96
c-8 -25 -13 -51 -13 -122c0 -70 4 -98 12 -123c21 -62 68 -94 148 -94c48 0 83 9 109 23c3 2 4 3 4 8v71c0 6 4 10 10 10h32c6 0 10 -4 10 -10v-98c0 -7 -1 -12 -7 -16c-42 -26 -95 -39 -159 -39c-110 0 -172 44 -199 128c-9 28 -15 67 -15 140s7 110 16 138
c27 85 93 131 199 131z" />
    <glyph glyph-name="d.sc" horiz-adv-x="545" 
d="M53 517h237c98 0 160 -40 184 -114c8 -25 13 -56 13 -145c0 -88 -5 -118 -14 -145c-24 -73 -82 -113 -184 -113h-236c-6 0 -10 4 -10 10v30c0 6 4 10 10 10h56c4 0 6 2 6 6v405c0 4 -2 6 -6 6h-56c-6 0 -10 4 -10 10v30c0 6 4 10 10 10zM279 465h-104c-4 0 -6 -2 -6 -6
v-401c0 -4 2 -6 6 -6h104c73 0 122 21 142 80c8 22 11 49 11 126c0 78 -4 104 -12 127c-19 59 -68 80 -141 80z" />
    <glyph glyph-name="eth.sc" horiz-adv-x="545" 
d="M53 517h237c98 0 160 -40 184 -114c8 -25 13 -56 13 -145c0 -88 -6 -119 -14 -145c-24 -73 -82 -113 -184 -113h-236c-6 0 -10 4 -10 10v30c0 6 4 10 10 10h56c4 0 6 2 6 6v175c0 4 -3 6 -6 6h-33c-6 0 -10 4 -10 10v30c0 6 4 10 10 10h33c4 0 6 2 6 6v168c0 4 -2 6 -6 6
h-56c-6 0 -10 4 -10 10v30c0 6 4 10 10 10zM279 465h-104c-4 0 -6 -2 -6 -6v-166c0 -4 2 -6 6 -6h106c6 0 10 -4 10 -10v-30c0 -6 -4 -10 -10 -10h-106c-4 0 -6 -2 -6 -5v-174c0 -4 2 -6 6 -6h104c73 0 122 21 142 80c8 22 11 49 11 126c0 78 -4 104 -12 127
c-19 59 -68 80 -141 80z" />
    <glyph glyph-name="dcaron.sc" horiz-adv-x="545" 
d="M365 740h25c6 0 8 -5 4 -10l-91 -122c-5 -7 -8 -10 -15 -10h-23c-7 0 -11 3 -16 10l-90 122c-4 5 -2 10 4 10h25c7 0 10 -2 17 -10l70 -85h2l71 85c6 8 9 10 17 10zM53 517h237c98 0 160 -40 184 -114c8 -25 13 -56 13 -145c0 -88 -5 -118 -14 -145
c-24 -73 -82 -113 -184 -113h-236c-6 0 -10 4 -10 10v30c0 6 4 10 10 10h56c4 0 6 2 6 6v405c0 4 -2 6 -6 6h-56c-6 0 -10 4 -10 10v30c0 6 4 10 10 10zM279 465h-104c-4 0 -6 -2 -6 -6v-401c0 -4 2 -6 6 -6h104c73 0 122 21 142 80c8 22 11 49 11 126c0 78 -4 104 -12 127
c-19 59 -68 80 -141 80z" />
    <glyph glyph-name="dcroat.sc" horiz-adv-x="545" 
d="M53 517h237c98 0 160 -40 184 -114c8 -25 13 -56 13 -145c0 -88 -6 -119 -14 -145c-24 -73 -82 -113 -184 -113h-236c-6 0 -10 4 -10 10v30c0 6 4 10 10 10h56c4 0 6 2 6 6v175c0 4 -3 6 -6 6h-33c-6 0 -10 4 -10 10v30c0 6 4 10 10 10h33c4 0 6 2 6 6v168c0 4 -2 6 -6 6
h-56c-6 0 -10 4 -10 10v30c0 6 4 10 10 10zM279 465h-104c-4 0 -6 -2 -6 -6v-166c0 -4 2 -6 6 -6h106c6 0 10 -4 10 -10v-30c0 -6 -4 -10 -10 -10h-106c-4 0 -6 -2 -6 -5v-174c0 -4 2 -6 6 -6h104c73 0 122 21 142 80c8 22 11 49 11 126c0 78 -4 104 -12 127
c-19 59 -68 80 -141 80z" />
    <glyph glyph-name="e.sc" horiz-adv-x="510" 
d="M53 517h386c6 0 10 -4 10 -10v-105c0 -6 -4 -10 -10 -10h-31c-6 0 -10 4 -10 10v58c0 4 -2 6 -6 6h-217c-4 0 -6 -2 -6 -6v-167c0 -4 2 -6 6 -6h158c4 0 6 2 6 6v44c0 6 4 10 10 10h31c6 0 10 -4 10 -10v-150c0 -6 -4 -10 -10 -10h-31c-6 0 -10 4 -10 10v44
c0 4 -2 6 -6 6h-158c-4 0 -6 -2 -6 -6v-174c0 -4 2 -6 6 -6h218c4 0 6 2 6 6v61c0 6 4 10 10 10h31c6 0 10 -4 10 -10v-108c0 -6 -4 -10 -10 -10h-387c-6 0 -10 4 -10 10v30c0 6 4 10 10 10h56c4 0 6 2 6 6v405c0 4 -2 6 -6 6h-56c-6 0 -10 4 -10 10v30c0 6 4 10 10 10z" />
    <glyph glyph-name="eacute.sc" horiz-adv-x="510" 
d="M317 740h38c6 0 9 -5 5 -10l-88 -122c-6 -7 -10 -10 -18 -10h-25c-6 0 -9 4 -6 10l77 122c4 7 9 10 17 10zM53 517h386c6 0 10 -4 10 -10v-105c0 -6 -4 -10 -10 -10h-31c-6 0 -10 4 -10 10v58c0 4 -2 6 -6 6h-217c-4 0 -6 -2 -6 -6v-167c0 -4 2 -6 6 -6h158c4 0 6 2 6 6
v44c0 6 4 10 10 10h31c6 0 10 -4 10 -10v-150c0 -6 -4 -10 -10 -10h-31c-6 0 -10 4 -10 10v44c0 4 -2 6 -6 6h-158c-4 0 -6 -2 -6 -6v-174c0 -4 2 -6 6 -6h218c4 0 6 2 6 6v61c0 6 4 10 10 10h31c6 0 10 -4 10 -10v-108c0 -6 -4 -10 -10 -10h-387c-6 0 -10 4 -10 10v30
c0 6 4 10 10 10h56c4 0 6 2 6 6v405c0 4 -2 6 -6 6h-56c-6 0 -10 4 -10 10v30c0 6 4 10 10 10z" />
    <glyph glyph-name="ebreve.sc" horiz-adv-x="510" 
d="M363 724h19c6 0 10 -4 9 -10c-9 -61 -56 -104 -125 -104c-68 0 -116 43 -124 104c-1 6 3 10 9 10h19c7 0 10 -4 12 -10c11 -39 40 -60 84 -60c45 0 74 21 86 60c2 6 4 10 11 10zM53 517h386c6 0 10 -4 10 -10v-105c0 -6 -4 -10 -10 -10h-31c-6 0 -10 4 -10 10v58
c0 4 -2 6 -6 6h-217c-4 0 -6 -2 -6 -6v-167c0 -4 2 -6 6 -6h158c4 0 6 2 6 6v44c0 6 4 10 10 10h31c6 0 10 -4 10 -10v-150c0 -6 -4 -10 -10 -10h-31c-6 0 -10 4 -10 10v44c0 4 -2 6 -6 6h-158c-4 0 -6 -2 -6 -6v-174c0 -4 2 -6 6 -6h218c4 0 6 2 6 6v61c0 6 4 10 10 10h31
c6 0 10 -4 10 -10v-108c0 -6 -4 -10 -10 -10h-387c-6 0 -10 4 -10 10v30c0 6 4 10 10 10h56c4 0 6 2 6 6v405c0 4 -2 6 -6 6h-56c-6 0 -10 4 -10 10v30c0 6 4 10 10 10z" />
    <glyph glyph-name="ecaron.sc" horiz-adv-x="510" 
d="M357 740h25c6 0 8 -5 4 -10l-91 -122c-5 -7 -8 -10 -15 -10h-23c-7 0 -11 3 -16 10l-90 122c-4 5 -2 10 4 10h25c7 0 10 -2 17 -10l70 -85h2l71 85c6 8 9 10 17 10zM53 517h386c6 0 10 -4 10 -10v-105c0 -6 -4 -10 -10 -10h-31c-6 0 -10 4 -10 10v58c0 4 -2 6 -6 6h-217
c-4 0 -6 -2 -6 -6v-167c0 -4 2 -6 6 -6h158c4 0 6 2 6 6v44c0 6 4 10 10 10h31c6 0 10 -4 10 -10v-150c0 -6 -4 -10 -10 -10h-31c-6 0 -10 4 -10 10v44c0 4 -2 6 -6 6h-158c-4 0 -6 -2 -6 -6v-174c0 -4 2 -6 6 -6h218c4 0 6 2 6 6v61c0 6 4 10 10 10h31c6 0 10 -4 10 -10
v-108c0 -6 -4 -10 -10 -10h-387c-6 0 -10 4 -10 10v30c0 6 4 10 10 10h56c4 0 6 2 6 6v405c0 4 -2 6 -6 6h-56c-6 0 -10 4 -10 10v30c0 6 4 10 10 10z" />
    <glyph glyph-name="ecircumflex.sc" horiz-adv-x="510" 
d="M257 740h23c7 0 10 -2 15 -9l91 -123c4 -5 2 -10 -4 -10h-25c-8 0 -11 2 -17 10l-71 85h-2l-70 -85c-7 -8 -10 -10 -17 -10h-25c-6 0 -8 5 -4 10l90 123c5 7 9 9 16 9zM53 517h386c6 0 10 -4 10 -10v-105c0 -6 -4 -10 -10 -10h-31c-6 0 -10 4 -10 10v58c0 4 -2 6 -6 6
h-217c-4 0 -6 -2 -6 -6v-167c0 -4 2 -6 6 -6h158c4 0 6 2 6 6v44c0 6 4 10 10 10h31c6 0 10 -4 10 -10v-150c0 -6 -4 -10 -10 -10h-31c-6 0 -10 4 -10 10v44c0 4 -2 6 -6 6h-158c-4 0 -6 -2 -6 -6v-174c0 -4 2 -6 6 -6h218c4 0 6 2 6 6v61c0 6 4 10 10 10h31
c6 0 10 -4 10 -10v-108c0 -6 -4 -10 -10 -10h-387c-6 0 -10 4 -10 10v30c0 6 4 10 10 10h56c4 0 6 2 6 6v405c0 4 -2 6 -6 6h-56c-6 0 -10 4 -10 10v30c0 6 4 10 10 10z" />
    <glyph glyph-name="edieresis.sc" horiz-adv-x="510" 
d="M147 720h40c6 0 10 -4 10 -10v-56c0 -6 -4 -10 -10 -10h-40c-6 0 -10 4 -10 10v56c0 6 4 10 10 10zM346 720h40c6 0 10 -4 10 -10v-56c0 -6 -4 -10 -10 -10h-40c-6 0 -10 4 -10 10v56c0 6 4 10 10 10zM53 517h386c6 0 10 -4 10 -10v-105c0 -6 -4 -10 -10 -10h-31
c-6 0 -10 4 -10 10v58c0 4 -2 6 -6 6h-217c-4 0 -6 -2 -6 -6v-167c0 -4 2 -6 6 -6h158c4 0 6 2 6 6v44c0 6 4 10 10 10h31c6 0 10 -4 10 -10v-150c0 -6 -4 -10 -10 -10h-31c-6 0 -10 4 -10 10v44c0 4 -2 6 -6 6h-158c-4 0 -6 -2 -6 -6v-174c0 -4 2 -6 6 -6h218c4 0 6 2 6 6
v61c0 6 4 10 10 10h31c6 0 10 -4 10 -10v-108c0 -6 -4 -10 -10 -10h-387c-6 0 -10 4 -10 10v30c0 6 4 10 10 10h56c4 0 6 2 6 6v405c0 4 -2 6 -6 6h-56c-6 0 -10 4 -10 10v30c0 6 4 10 10 10z" />
    <glyph glyph-name="edotaccent.sc" horiz-adv-x="510" 
d="M241 720h44c6 0 10 -4 10 -10v-56c0 -6 -4 -10 -10 -10h-44c-6 0 -10 4 -10 10v56c0 6 4 10 10 10zM53 517h386c6 0 10 -4 10 -10v-105c0 -6 -4 -10 -10 -10h-31c-6 0 -10 4 -10 10v58c0 4 -2 6 -6 6h-217c-4 0 -6 -2 -6 -6v-167c0 -4 2 -6 6 -6h158c4 0 6 2 6 6v44
c0 6 4 10 10 10h31c6 0 10 -4 10 -10v-150c0 -6 -4 -10 -10 -10h-31c-6 0 -10 4 -10 10v44c0 4 -2 6 -6 6h-158c-4 0 -6 -2 -6 -6v-174c0 -4 2 -6 6 -6h218c4 0 6 2 6 6v61c0 6 4 10 10 10h31c6 0 10 -4 10 -10v-108c0 -6 -4 -10 -10 -10h-387c-6 0 -10 4 -10 10v30
c0 6 4 10 10 10h56c4 0 6 2 6 6v405c0 4 -2 6 -6 6h-56c-6 0 -10 4 -10 10v30c0 6 4 10 10 10z" />
    <glyph glyph-name="egrave.sc" horiz-adv-x="510" 
d="M177 740h38c8 0 12 -3 16 -10l77 -122c4 -6 1 -10 -5 -10h-25c-8 0 -12 3 -18 10l-88 122c-4 5 -1 10 5 10zM53 517h386c6 0 10 -4 10 -10v-105c0 -6 -4 -10 -10 -10h-31c-6 0 -10 4 -10 10v58c0 4 -2 6 -6 6h-217c-4 0 -6 -2 -6 -6v-167c0 -4 2 -6 6 -6h158c4 0 6 2 6 6
v44c0 6 4 10 10 10h31c6 0 10 -4 10 -10v-150c0 -6 -4 -10 -10 -10h-31c-6 0 -10 4 -10 10v44c0 4 -2 6 -6 6h-158c-4 0 -6 -2 -6 -6v-174c0 -4 2 -6 6 -6h218c4 0 6 2 6 6v61c0 6 4 10 10 10h31c6 0 10 -4 10 -10v-108c0 -6 -4 -10 -10 -10h-387c-6 0 -10 4 -10 10v30
c0 6 4 10 10 10h56c4 0 6 2 6 6v405c0 4 -2 6 -6 6h-56c-6 0 -10 4 -10 10v30c0 6 4 10 10 10z" />
    <glyph glyph-name="emacron.sc" horiz-adv-x="510" 
d="M148 704h240c6 0 10 -4 10 -10v-26c0 -6 -4 -10 -10 -10h-240c-6 0 -10 4 -10 10v26c0 6 4 10 10 10zM53 517h386c6 0 10 -4 10 -10v-105c0 -6 -4 -10 -10 -10h-31c-6 0 -10 4 -10 10v58c0 4 -2 6 -6 6h-217c-4 0 -6 -2 -6 -6v-167c0 -4 2 -6 6 -6h158c4 0 6 2 6 6v44
c0 6 4 10 10 10h31c6 0 10 -4 10 -10v-150c0 -6 -4 -10 -10 -10h-31c-6 0 -10 4 -10 10v44c0 4 -2 6 -6 6h-158c-4 0 -6 -2 -6 -6v-174c0 -4 2 -6 6 -6h218c4 0 6 2 6 6v61c0 6 4 10 10 10h31c6 0 10 -4 10 -10v-108c0 -6 -4 -10 -10 -10h-387c-6 0 -10 4 -10 10v30
c0 6 4 10 10 10h56c4 0 6 2 6 6v405c0 4 -2 6 -6 6h-56c-6 0 -10 4 -10 10v30c0 6 4 10 10 10z" />
    <glyph glyph-name="eogonek.sc" horiz-adv-x="510" 
d="M53 517h386c6 0 10 -4 10 -10v-105c0 -6 -4 -10 -10 -10h-31c-6 0 -10 4 -10 10v58c0 4 -2 6 -6 6h-217c-4 0 -6 -2 -6 -6v-167c0 -4 2 -6 6 -6h158c4 0 6 2 6 6v44c0 6 4 10 10 10h31c6 0 10 -4 10 -10v-150c0 -6 -4 -10 -10 -10h-31c-6 0 -10 4 -10 10v44
c0 4 -2 6 -6 6h-158c-4 0 -6 -2 -6 -6v-174c0 -4 2 -6 6 -6h218c4 0 6 2 6 6v61c0 6 4 10 10 10h31c6 0 10 -4 10 -10v-108c0 -6 -4 -10 -10 -10h-9c-70 -51 -83 -76 -83 -97c0 -18 11 -28 29 -28c9 0 18 3 28 9c5 3 10 2 13 -3l11 -21c2 -5 1 -9 -4 -13
c-13 -10 -35 -19 -56 -19c-42 0 -70 25 -70 68c0 33 17 63 72 104h-318c-6 0 -10 4 -10 10v30c0 6 4 10 10 10h56c4 0 6 2 6 6v405c0 4 -2 6 -6 6h-56c-6 0 -10 4 -10 10v30c0 6 4 10 10 10z" />
    <glyph glyph-name="f.sc" horiz-adv-x="494" 
d="M53 517h386c6 0 10 -4 10 -10v-106c0 -6 -4 -10 -10 -10h-31c-6 0 -10 4 -10 10v60c0 4 -2 6 -6 6h-217c-4 0 -6 -2 -6 -6v-174c0 -4 2 -6 6 -6h158c4 0 6 2 6 6v44c0 6 4 10 10 10h31c6 0 10 -4 10 -10v-150c0 -6 -4 -10 -10 -10h-31c-6 0 -10 4 -10 10v44
c0 4 -2 6 -6 6h-158c-4 0 -6 -2 -6 -6v-169c0 -4 2 -6 6 -6h57c6 0 10 -4 10 -10v-30c0 -6 -4 -10 -10 -10h-179c-6 0 -10 4 -10 10v30c0 6 4 10 10 10h56c4 0 6 2 6 6v405c0 4 -2 6 -6 6h-56c-6 0 -10 4 -10 10v30c0 6 4 10 10 10z" />
    <glyph glyph-name="fi.sc" horiz-adv-x="778" 
d="M53 517h386c6 0 10 -4 10 -10v-106c0 -6 -4 -10 -10 -10h-31c-6 0 -10 4 -10 10v60c0 4 -2 6 -6 6h-217c-4 0 -6 -2 -6 -6v-174c0 -4 2 -6 6 -6h158c4 0 6 2 6 6v44c0 6 4 10 10 10h31c6 0 10 -4 10 -10v-150c0 -6 -4 -10 -10 -10h-31c-6 0 -10 4 -10 10v44
c0 4 -2 6 -6 6h-158c-4 0 -6 -2 -6 -6v-169c0 -4 2 -6 6 -6h57c6 0 10 -4 10 -10v-30c0 -6 -4 -10 -10 -10h-179c-6 0 -10 4 -10 10v30c0 6 4 10 10 10h56c4 0 6 2 6 6v405c0 4 -2 6 -6 6h-56c-6 0 -10 4 -10 10v30c0 6 4 10 10 10zM547 517h178c6 0 10 -4 10 -10v-30
c0 -6 -4 -10 -10 -10h-56c-4 0 -6 -2 -6 -6v-405c0 -4 2 -6 6 -6h56c6 0 10 -4 10 -10v-30c0 -6 -4 -10 -10 -10h-178c-6 0 -10 4 -10 10v30c0 6 4 10 10 10h56c4 0 6 2 6 6v405c0 4 -2 6 -6 6h-56c-6 0 -10 4 -10 10v30c0 6 4 10 10 10z" />
    <glyph glyph-name="fl.sc" horiz-adv-x="971" 
d="M53 517h386c6 0 10 -4 10 -10v-106c0 -6 -4 -10 -10 -10h-31c-6 0 -10 4 -10 10v60c0 4 -2 6 -6 6h-217c-4 0 -6 -2 -6 -6v-174c0 -4 2 -6 6 -6h158c4 0 6 2 6 6v44c0 6 4 10 10 10h31c6 0 10 -4 10 -10v-150c0 -6 -4 -10 -10 -10h-31c-6 0 -10 4 -10 10v44
c0 4 -2 6 -6 6h-158c-4 0 -6 -2 -6 -6v-169c0 -4 2 -6 6 -6h57c6 0 10 -4 10 -10v-30c0 -6 -4 -10 -10 -10h-179c-6 0 -10 4 -10 10v30c0 6 4 10 10 10h56c4 0 6 2 6 6v405c0 4 -2 6 -6 6h-56c-6 0 -10 4 -10 10v30c0 6 4 10 10 10zM547 517h178c6 0 10 -4 10 -10v-30
c0 -6 -4 -10 -10 -10h-56c-4 0 -6 -2 -6 -6v-404c0 -4 2 -6 6 -6h211c4 0 6 2 6 6v64c0 6 4 10 10 10h32c6 0 10 -4 10 -10v-111c0 -6 -4 -10 -10 -10h-381c-6 0 -10 4 -10 10v30c0 6 4 10 10 10h56c4 0 6 2 6 6v405c0 4 -2 6 -6 6h-56c-6 0 -10 4 -10 10v30c0 6 4 10 10 10
z" />
    <glyph glyph-name="g.sc" horiz-adv-x="534" 
d="M275 527c68 0 121 -17 165 -45c7 -5 8 -9 8 -16v-93c0 -6 -4 -10 -10 -10h-32c-6 0 -10 4 -10 10v64c0 5 0 7 -4 10c-28 18 -71 29 -117 29c-81 0 -129 -33 -150 -96c-8 -24 -13 -52 -13 -123c0 -70 4 -95 12 -120c21 -62 65 -96 151 -96c59 0 95 11 118 25c4 3 5 4 5 9
v138c0 3 -1 5 -5 5h-101c-5 0 -9 3 -9 9v31c0 5 4 9 9 9h151c5 0 8 -4 8 -9v-212c0 -5 -2 -9 -6 -12c-36 -25 -91 -44 -170 -44c-115 0 -177 46 -204 130c-9 28 -14 64 -14 137s7 111 16 139c27 85 94 131 202 131z" />
    <glyph glyph-name="gbreve.sc" horiz-adv-x="534" 
d="M364 724h19c6 0 10 -4 9 -10c-9 -61 -56 -104 -125 -104c-68 0 -116 43 -124 104c-1 6 3 10 9 10h19c7 0 10 -4 12 -10c11 -39 40 -60 84 -60c45 0 74 21 86 60c2 6 4 10 11 10zM275 527c68 0 121 -17 165 -45c7 -5 8 -9 8 -16v-93c0 -6 -4 -10 -10 -10h-32
c-6 0 -10 4 -10 10v64c0 5 0 7 -4 10c-28 18 -71 29 -117 29c-81 0 -129 -33 -150 -96c-8 -24 -13 -52 -13 -123c0 -70 4 -95 12 -120c21 -62 65 -96 151 -96c59 0 95 11 118 25c4 3 5 4 5 9v138c0 3 -1 5 -5 5h-101c-5 0 -9 3 -9 9v31c0 5 4 9 9 9h151c5 0 8 -4 8 -9v-212
c0 -5 -2 -9 -6 -12c-36 -25 -91 -44 -170 -44c-115 0 -177 46 -204 130c-9 28 -14 64 -14 137s7 111 16 139c27 85 94 131 202 131z" />
    <glyph glyph-name="gcircumflex.sc" horiz-adv-x="534" 
d="M256 740h23c7 0 10 -2 15 -9l91 -123c4 -5 2 -10 -4 -10h-25c-8 0 -11 2 -17 10l-71 85h-2l-70 -85c-7 -8 -10 -10 -17 -10h-25c-6 0 -8 5 -4 10l90 123c5 7 9 9 16 9zM275 527c68 0 121 -17 165 -45c7 -5 8 -9 8 -16v-93c0 -6 -4 -10 -10 -10h-32c-6 0 -10 4 -10 10v64
c0 5 0 7 -4 10c-28 18 -71 29 -117 29c-81 0 -129 -33 -150 -96c-8 -24 -13 -52 -13 -123c0 -70 4 -95 12 -120c21 -62 65 -96 151 -96c59 0 95 11 118 25c4 3 5 4 5 9v138c0 3 -1 5 -5 5h-101c-5 0 -9 3 -9 9v31c0 5 4 9 9 9h151c5 0 8 -4 8 -9v-212c0 -5 -2 -9 -6 -12
c-36 -25 -91 -44 -170 -44c-115 0 -177 46 -204 130c-9 28 -14 64 -14 137s7 111 16 139c27 85 94 131 202 131z" />
    <glyph glyph-name="gcommaaccent.sc" horiz-adv-x="534" 
d="M275 527c68 0 121 -17 165 -45c7 -5 8 -9 8 -16v-93c0 -6 -4 -10 -10 -10h-32c-6 0 -10 4 -10 10v64c0 5 0 7 -4 10c-28 18 -71 29 -117 29c-81 0 -129 -33 -150 -96c-8 -24 -13 -52 -13 -123c0 -70 4 -95 12 -120c21 -62 65 -96 151 -96c59 0 95 11 118 25c4 3 5 4 5 9
v138c0 3 -1 5 -5 5h-101c-5 0 -9 3 -9 9v31c0 5 4 9 9 9h151c5 0 8 -4 8 -9v-212c0 -5 -2 -9 -6 -12c-36 -25 -91 -44 -170 -44c-115 0 -177 46 -204 130c-9 28 -14 64 -14 137s7 111 16 139c27 85 94 131 202 131zM249 -56h37c6 0 10 -4 10 -10v-42c0 -10 -1 -14 -5 -22
l-32 -57c-3 -6 -6 -8 -11 -8c-6 0 -9 3 -9 9v120c0 6 4 10 10 10z" />
    <glyph glyph-name="gdotaccent.sc" horiz-adv-x="534" 
d="M245 720h44c6 0 10 -4 10 -10v-56c0 -6 -4 -10 -10 -10h-44c-6 0 -10 4 -10 10v56c0 6 4 10 10 10zM275 527c68 0 121 -17 165 -45c7 -5 8 -9 8 -16v-93c0 -6 -4 -10 -10 -10h-32c-6 0 -10 4 -10 10v64c0 5 0 7 -4 10c-28 18 -71 29 -117 29c-81 0 -129 -33 -150 -96
c-8 -24 -13 -52 -13 -123c0 -70 4 -95 12 -120c21 -62 65 -96 151 -96c59 0 95 11 118 25c4 3 5 4 5 9v138c0 3 -1 5 -5 5h-101c-5 0 -9 3 -9 9v31c0 5 4 9 9 9h151c5 0 8 -4 8 -9v-212c0 -5 -2 -9 -6 -12c-36 -25 -91 -44 -170 -44c-115 0 -177 46 -204 130
c-9 28 -14 64 -14 137s7 111 16 139c27 85 94 131 202 131z" />
    <glyph glyph-name="h.sc" horiz-adv-x="605" 
d="M374 517h178c6 0 10 -4 10 -10v-30c0 -6 -4 -10 -10 -10h-56c-4 0 -6 -2 -6 -6v-405c0 -4 2 -6 6 -6h56c6 0 10 -4 10 -10v-30c0 -6 -4 -10 -10 -10h-178c-6 0 -10 4 -10 10v30c0 6 4 10 10 10h56c4 0 6 2 6 6v174c0 4 -2 6 -6 6h-255c-4 0 -6 -2 -6 -6v-174
c0 -4 2 -6 6 -6h56c6 0 10 -4 10 -10v-30c0 -6 -4 -10 -10 -10h-178c-6 0 -10 4 -10 10v30c0 6 4 10 10 10h56c4 0 6 2 6 6v405c0 4 -2 6 -6 6h-56c-6 0 -10 4 -10 10v30c0 6 4 10 10 10h178c6 0 10 -4 10 -10v-30c0 -6 -4 -10 -10 -10h-56c-4 0 -6 -2 -6 -6v-168
c0 -4 2 -6 6 -6h255c4 0 6 2 6 6v168c0 4 -2 6 -6 6h-56c-6 0 -10 4 -10 10v30c0 6 4 10 10 10z" />
    <glyph glyph-name="hbar.sc" horiz-adv-x="605" 
d="M374 517h178c6 0 10 -4 10 -10v-30c0 -6 -4 -10 -10 -10h-56c-4 0 -6 -2 -6 -6v-58c0 -4 2 -6 6 -6h36c6 0 10 -4 10 -10v-24c0 -6 -4 -10 -10 -10h-36c-4 0 -6 -2 -6 -6v-291c0 -4 2 -6 6 -6h56c6 0 10 -4 10 -10v-30c0 -6 -4 -10 -10 -10h-178c-6 0 -10 4 -10 10v30
c0 6 4 10 10 10h56c4 0 6 2 6 6v172c0 4 -2 6 -6 6h-255c-4 0 -6 -2 -6 -6v-172c0 -4 2 -6 6 -6h56c6 0 10 -4 10 -10v-30c0 -6 -4 -10 -10 -10h-178c-6 0 -10 4 -10 10v30c0 6 4 10 10 10h56c4 0 6 2 6 6v291c0 4 -2 6 -6 6h-36c-6 0 -10 4 -10 10v24c0 6 4 10 10 10h36
c4 0 6 2 6 6v58c0 4 -2 6 -6 6h-56c-6 0 -10 4 -10 10v30c0 6 4 10 10 10h178c6 0 10 -4 10 -10v-30c0 -6 -4 -10 -10 -10h-56c-4 0 -6 -2 -6 -6v-58c0 -4 2 -6 6 -6h255c4 0 6 2 6 6v58c0 4 -2 6 -6 6h-56c-6 0 -10 4 -10 10v30c0 6 4 10 10 10zM430 353h-255
c-4 0 -6 -2 -6 -6v-56c0 -4 2 -6 6 -6h255c4 0 6 2 6 6v56c0 4 -2 6 -6 6z" />
    <glyph glyph-name="uni0125.sc" horiz-adv-x="605" 
d="M291 740h23c7 0 10 -2 15 -9l91 -123c4 -5 2 -10 -4 -10h-25c-8 0 -11 2 -17 10l-71 85h-2l-70 -85c-7 -8 -10 -10 -17 -10h-25c-6 0 -8 5 -4 10l90 123c5 7 9 9 16 9zM374 517h178c6 0 10 -4 10 -10v-30c0 -6 -4 -10 -10 -10h-56c-4 0 -6 -2 -6 -6v-405c0 -4 2 -6 6 -6
h56c6 0 10 -4 10 -10v-30c0 -6 -4 -10 -10 -10h-178c-6 0 -10 4 -10 10v30c0 6 4 10 10 10h56c4 0 6 2 6 6v174c0 4 -2 6 -6 6h-255c-4 0 -6 -2 -6 -6v-174c0 -4 2 -6 6 -6h56c6 0 10 -4 10 -10v-30c0 -6 -4 -10 -10 -10h-178c-6 0 -10 4 -10 10v30c0 6 4 10 10 10h56
c4 0 6 2 6 6v405c0 4 -2 6 -6 6h-56c-6 0 -10 4 -10 10v30c0 6 4 10 10 10h178c6 0 10 -4 10 -10v-30c0 -6 -4 -10 -10 -10h-56c-4 0 -6 -2 -6 -6v-168c0 -4 2 -6 6 -6h255c4 0 6 2 6 6v168c0 4 -2 6 -6 6h-56c-6 0 -10 4 -10 10v30c0 6 4 10 10 10z" />
    <glyph glyph-name="i.sc" horiz-adv-x="284" 
d="M53 517h178c6 0 10 -4 10 -10v-30c0 -6 -4 -10 -10 -10h-56c-4 0 -6 -2 -6 -6v-405c0 -4 2 -6 6 -6h56c6 0 10 -4 10 -10v-30c0 -6 -4 -10 -10 -10h-178c-6 0 -10 4 -10 10v30c0 6 4 10 10 10h56c4 0 6 2 6 6v405c0 4 -2 6 -6 6h-56c-6 0 -10 4 -10 10v30c0 6 4 10 10 10
z" />
    <glyph glyph-name="iacute.sc" horiz-adv-x="284" 
d="M215 740h38c6 0 9 -5 5 -10l-88 -122c-6 -7 -10 -10 -18 -10h-25c-6 0 -9 4 -6 10l77 122c4 7 9 10 17 10zM53 517h178c6 0 10 -4 10 -10v-30c0 -6 -4 -10 -10 -10h-56c-4 0 -6 -2 -6 -6v-405c0 -4 2 -6 6 -6h56c6 0 10 -4 10 -10v-30c0 -6 -4 -10 -10 -10h-178
c-6 0 -10 4 -10 10v30c0 6 4 10 10 10h56c4 0 6 2 6 6v405c0 4 -2 6 -6 6h-56c-6 0 -10 4 -10 10v30c0 6 4 10 10 10z" />
    <glyph glyph-name="ibreve.sc" horiz-adv-x="284" 
d="M239 724h19c6 0 10 -4 9 -10c-9 -61 -56 -104 -125 -104c-68 0 -116 43 -124 104c-1 6 3 10 9 10h19c7 0 10 -4 12 -10c11 -39 40 -60 84 -60c45 0 74 21 86 60c2 6 4 10 11 10zM53 517h178c6 0 10 -4 10 -10v-30c0 -6 -4 -10 -10 -10h-56c-4 0 -6 -2 -6 -6v-405
c0 -4 2 -6 6 -6h56c6 0 10 -4 10 -10v-30c0 -6 -4 -10 -10 -10h-178c-6 0 -10 4 -10 10v30c0 6 4 10 10 10h56c4 0 6 2 6 6v405c0 4 -2 6 -6 6h-56c-6 0 -10 4 -10 10v30c0 6 4 10 10 10z" />
    <glyph glyph-name="icircumflex.sc" horiz-adv-x="284" 
d="M131 740h23c7 0 10 -2 15 -9l91 -123c4 -5 2 -10 -4 -10h-25c-8 0 -11 2 -17 10l-71 85h-2l-70 -85c-7 -8 -10 -10 -17 -10h-25c-6 0 -8 5 -4 10l90 123c5 7 9 9 16 9zM53 517h178c6 0 10 -4 10 -10v-30c0 -6 -4 -10 -10 -10h-56c-4 0 -6 -2 -6 -6v-405c0 -4 2 -6 6 -6
h56c6 0 10 -4 10 -10v-30c0 -6 -4 -10 -10 -10h-178c-6 0 -10 4 -10 10v30c0 6 4 10 10 10h56c4 0 6 2 6 6v405c0 4 -2 6 -6 6h-56c-6 0 -10 4 -10 10v30c0 6 4 10 10 10z" />
    <glyph glyph-name="idieresis.sc" horiz-adv-x="284" 
d="M23 720h40c6 0 10 -4 10 -10v-56c0 -6 -4 -10 -10 -10h-40c-6 0 -10 4 -10 10v56c0 6 4 10 10 10zM222 720h40c6 0 10 -4 10 -10v-56c0 -6 -4 -10 -10 -10h-40c-6 0 -10 4 -10 10v56c0 6 4 10 10 10zM53 517h178c6 0 10 -4 10 -10v-30c0 -6 -4 -10 -10 -10h-56
c-4 0 -6 -2 -6 -6v-405c0 -4 2 -6 6 -6h56c6 0 10 -4 10 -10v-30c0 -6 -4 -10 -10 -10h-178c-6 0 -10 4 -10 10v30c0 6 4 10 10 10h56c4 0 6 2 6 6v405c0 4 -2 6 -6 6h-56c-6 0 -10 4 -10 10v30c0 6 4 10 10 10z" />
    <glyph glyph-name="i.sc.loclTRK" horiz-adv-x="284" 
d="M121 720h44c6 0 10 -4 10 -10v-56c0 -6 -4 -10 -10 -10h-44c-6 0 -10 4 -10 10v56c0 6 4 10 10 10zM53 517h178c6 0 10 -4 10 -10v-30c0 -6 -4 -10 -10 -10h-56c-4 0 -6 -2 -6 -6v-405c0 -4 2 -6 6 -6h56c6 0 10 -4 10 -10v-30c0 -6 -4 -10 -10 -10h-178
c-6 0 -10 4 -10 10v30c0 6 4 10 10 10h56c4 0 6 2 6 6v405c0 4 -2 6 -6 6h-56c-6 0 -10 4 -10 10v30c0 6 4 10 10 10z" />
    <glyph glyph-name="igrave.sc" horiz-adv-x="284" 
d="M38 740h38c8 0 12 -3 16 -10l77 -122c4 -6 1 -10 -5 -10h-25c-8 0 -12 3 -18 10l-88 122c-4 5 -1 10 5 10zM53 517h178c6 0 10 -4 10 -10v-30c0 -6 -4 -10 -10 -10h-56c-4 0 -6 -2 -6 -6v-405c0 -4 2 -6 6 -6h56c6 0 10 -4 10 -10v-30c0 -6 -4 -10 -10 -10h-178
c-6 0 -10 4 -10 10v30c0 6 4 10 10 10h56c4 0 6 2 6 6v405c0 4 -2 6 -6 6h-56c-6 0 -10 4 -10 10v30c0 6 4 10 10 10z" />
    <glyph glyph-name="ij.sc" horiz-adv-x="732" 
d="M53 517h178c6 0 10 -4 10 -10v-30c0 -6 -4 -10 -10 -10h-56c-4 0 -6 -2 -6 -6v-405c0 -4 2 -6 6 -6h56c6 0 10 -4 10 -10v-30c0 -6 -4 -10 -10 -10h-178c-6 0 -10 4 -10 10v30c0 6 4 10 10 10h56c4 0 6 2 6 6v405c0 4 -2 6 -6 6h-56c-6 0 -10 4 -10 10v30c0 6 4 10 10 10
zM497 517h185c6 0 10 -4 10 -10v-30c0 -6 -4 -10 -10 -10h-55c-4 0 -6 -2 -6 -6v-299c0 -112 -58 -172 -165 -172c-52 0 -93 13 -126 33c-4 3 -6 6 -6 11v104c0 6 4 10 10 10h32c6 0 10 -4 10 -10v-71c0 -4 1 -6 5 -8c21 -10 44 -17 76 -17c72 0 110 38 110 120v299
c0 4 -2 6 -6 6h-64c-6 0 -10 4 -10 10v30c0 6 4 10 10 10z" />
    <glyph glyph-name="imacron.sc" horiz-adv-x="284" 
d="M23 704h240c6 0 10 -4 10 -10v-26c0 -6 -4 -10 -10 -10h-240c-6 0 -10 4 -10 10v26c0 6 4 10 10 10zM53 517h178c6 0 10 -4 10 -10v-30c0 -6 -4 -10 -10 -10h-56c-4 0 -6 -2 -6 -6v-405c0 -4 2 -6 6 -6h56c6 0 10 -4 10 -10v-30c0 -6 -4 -10 -10 -10h-178
c-6 0 -10 4 -10 10v30c0 6 4 10 10 10h56c4 0 6 2 6 6v405c0 4 -2 6 -6 6h-56c-6 0 -10 4 -10 10v30c0 6 4 10 10 10z" />
    <glyph glyph-name="uni012F.sc" horiz-adv-x="284" 
d="M53 517h178c6 0 10 -4 10 -10v-30c0 -6 -4 -10 -10 -10h-56c-4 0 -6 -2 -6 -6v-405c0 -4 2 -6 6 -6h56c6 0 10 -4 10 -10v-30c0 -6 -4 -10 -10 -10h-62c-53 -55 -60 -76 -60 -97c0 -18 11 -28 29 -28c9 0 18 3 28 9c5 3 10 2 13 -3l11 -21c2 -5 1 -9 -4 -13
c-13 -10 -35 -19 -56 -19c-42 0 -70 25 -70 68c0 29 11 57 55 104h-62c-6 0 -10 4 -10 10v30c0 6 4 10 10 10h56c4 0 6 2 6 6v405c0 4 -2 6 -6 6h-56c-6 0 -10 4 -10 10v30c0 6 4 10 10 10z" />
    <glyph glyph-name="itilde.sc" horiz-adv-x="284" 
d="M89 720c24 0 43 -10 60 -21c16 -10 31 -18 49 -18c23 0 40 14 59 33c4 4 8 2 8 -3v-30c0 -6 -1 -9 -7 -15c-17 -18 -37 -30 -62 -30c-24 0 -42 10 -60 20c-16 10 -31 18 -49 18c-23 0 -39 -13 -58 -33c-5 -4 -9 -2 -9 3v30c0 6 2 9 8 16c16 17 36 30 61 30zM53 517h178
c6 0 10 -4 10 -10v-30c0 -6 -4 -10 -10 -10h-56c-4 0 -6 -2 -6 -6v-405c0 -4 2 -6 6 -6h56c6 0 10 -4 10 -10v-30c0 -6 -4 -10 -10 -10h-178c-6 0 -10 4 -10 10v30c0 6 4 10 10 10h56c4 0 6 2 6 6v405c0 4 -2 6 -6 6h-56c-6 0 -10 4 -10 10v30c0 6 4 10 10 10z" />
    <glyph glyph-name="j.sc" horiz-adv-x="448" 
d="M213 517h185c6 0 10 -4 10 -10v-30c0 -6 -4 -10 -10 -10h-55c-4 0 -6 -2 -6 -6v-299c0 -112 -58 -172 -165 -172c-52 0 -93 13 -126 33c-4 3 -6 6 -6 11v104c0 6 4 10 10 10h32c6 0 10 -4 10 -10v-71c0 -4 1 -6 5 -8c21 -10 44 -17 76 -17c72 0 110 38 110 120v299
c0 4 -2 6 -6 6h-64c-6 0 -10 4 -10 10v30c0 6 4 10 10 10z" />
    <glyph glyph-name="jcircumflex.sc" horiz-adv-x="448" 
d="M295 740h23c7 0 10 -2 15 -9l91 -123c4 -5 2 -10 -4 -10h-25c-8 0 -11 2 -17 10l-71 85h-2l-70 -85c-7 -8 -10 -10 -17 -10h-25c-6 0 -8 5 -4 10l90 123c5 7 9 9 16 9zM213 517h185c6 0 10 -4 10 -10v-30c0 -6 -4 -10 -10 -10h-55c-4 0 -6 -2 -6 -6v-299
c0 -112 -58 -172 -165 -172c-52 0 -93 13 -126 33c-4 3 -6 6 -6 11v104c0 6 4 10 10 10h32c6 0 10 -4 10 -10v-71c0 -4 1 -6 5 -8c21 -10 44 -17 76 -17c72 0 110 38 110 120v299c0 4 -2 6 -6 6h-64c-6 0 -10 4 -10 10v30c0 6 4 10 10 10z" />
    <glyph glyph-name="k.sc" horiz-adv-x="554" 
d="M342 517h167c6 0 10 -4 10 -10v-30c0 -6 -4 -10 -10 -10h-45c-5 0 -6 -1 -11 -6l-143 -153l145 -252c3 -5 5 -6 9 -6h57c6 0 10 -4 10 -10v-30c0 -6 -4 -10 -10 -10h-89c-7 0 -10 2 -14 8l-147 258l-102 -109v-101c0 -4 2 -6 6 -6h56c6 0 10 -4 10 -10v-30
c0 -6 -4 -10 -10 -10h-178c-6 0 -10 4 -10 10v30c0 6 4 10 10 10h56c4 0 6 2 6 6v405c0 4 -2 6 -6 6h-56c-6 0 -10 4 -10 10v30c0 6 4 10 10 10h178c6 0 10 -4 10 -10v-30c0 -6 -4 -10 -10 -10h-56c-4 0 -6 -2 -6 -6v-233l217 232c3 3 2 7 -2 7h-42c-6 0 -10 4 -10 10v30
c0 6 4 10 10 10z" />
    <glyph glyph-name="kcommaaccent.sc" horiz-adv-x="554" 
d="M342 517h167c6 0 10 -4 10 -10v-30c0 -6 -4 -10 -10 -10h-45c-5 0 -6 -1 -11 -6l-143 -153l145 -252c3 -5 5 -6 9 -6h57c6 0 10 -4 10 -10v-30c0 -6 -4 -10 -10 -10h-89c-7 0 -10 2 -14 8l-147 258l-102 -109v-101c0 -4 2 -6 6 -6h56c6 0 10 -4 10 -10v-30
c0 -6 -4 -10 -10 -10h-178c-6 0 -10 4 -10 10v30c0 6 4 10 10 10h56c4 0 6 2 6 6v405c0 4 -2 6 -6 6h-56c-6 0 -10 4 -10 10v30c0 6 4 10 10 10h178c6 0 10 -4 10 -10v-30c0 -6 -4 -10 -10 -10h-56c-4 0 -6 -2 -6 -6v-233l217 232c3 3 2 7 -2 7h-42c-6 0 -10 4 -10 10v30
c0 6 4 10 10 10zM272 -56h37c6 0 10 -4 10 -10v-42c0 -10 -1 -14 -5 -22l-32 -57c-3 -6 -6 -8 -11 -8c-6 0 -9 3 -9 9v120c0 6 4 10 10 10z" />
    <glyph glyph-name="l.sc" horiz-adv-x="477" 
d="M53 517h178c6 0 10 -4 10 -10v-30c0 -6 -4 -10 -10 -10h-56c-4 0 -6 -2 -6 -6v-404c0 -4 2 -6 6 -6h211c4 0 6 2 6 6v64c0 6 4 10 10 10h32c6 0 10 -4 10 -10v-111c0 -6 -4 -10 -10 -10h-381c-6 0 -10 4 -10 10v30c0 6 4 10 10 10h56c4 0 6 2 6 6v405c0 4 -2 6 -6 6h-56
c-6 0 -10 4 -10 10v30c0 6 4 10 10 10z" />
    <glyph glyph-name="lacute.sc" horiz-adv-x="477" 
d="M230 740h38c6 0 9 -5 5 -10l-88 -122c-6 -7 -10 -10 -18 -10h-25c-6 0 -9 4 -6 10l77 122c4 7 9 10 17 10zM53 517h178c6 0 10 -4 10 -10v-30c0 -6 -4 -10 -10 -10h-56c-4 0 -6 -2 -6 -6v-404c0 -4 2 -6 6 -6h211c4 0 6 2 6 6v64c0 6 4 10 10 10h32c6 0 10 -4 10 -10
v-111c0 -6 -4 -10 -10 -10h-381c-6 0 -10 4 -10 10v30c0 6 4 10 10 10h56c4 0 6 2 6 6v405c0 4 -2 6 -6 6h-56c-6 0 -10 4 -10 10v30c0 6 4 10 10 10z" />
    <glyph glyph-name="lcaron.sc" horiz-adv-x="477" 
d="M53 517h178c6 0 10 -4 10 -10v-30c0 -6 -4 -10 -10 -10h-56c-4 0 -6 -2 -6 -6v-404c0 -4 2 -6 6 -6h211c4 0 6 2 6 6v64c0 6 4 10 10 10h32c6 0 10 -4 10 -10v-111c0 -6 -4 -10 -10 -10h-381c-6 0 -10 4 -10 10v30c0 6 4 10 10 10h56c4 0 6 2 6 6v405c0 4 -2 6 -6 6h-56
c-6 0 -10 4 -10 10v30c0 6 4 10 10 10zM279 517h37c6 0 10 -4 10 -10v-48c0 -9 -1 -13 -5 -21l-32 -57c-3 -6 -6 -9 -11 -9c-6 0 -9 4 -9 10v125c0 6 4 10 10 10z" />
    <glyph glyph-name="lcommaaccent.sc" horiz-adv-x="477" 
d="M53 517h178c6 0 10 -4 10 -10v-30c0 -6 -4 -10 -10 -10h-56c-4 0 -6 -2 -6 -6v-404c0 -4 2 -6 6 -6h211c4 0 6 2 6 6v64c0 6 4 10 10 10h32c6 0 10 -4 10 -10v-111c0 -6 -4 -10 -10 -10h-381c-6 0 -10 4 -10 10v30c0 6 4 10 10 10h56c4 0 6 2 6 6v405c0 4 -2 6 -6 6h-56
c-6 0 -10 4 -10 10v30c0 6 4 10 10 10zM259 -56h37c6 0 10 -4 10 -10v-42c0 -10 -1 -14 -5 -22l-32 -57c-3 -6 -6 -8 -11 -8c-6 0 -9 3 -9 9v120c0 6 4 10 10 10z" />
    <glyph glyph-name="ldot.sc" horiz-adv-x="477" 
d="M53 517h178c6 0 10 -4 10 -10v-30c0 -6 -4 -10 -10 -10h-56c-4 0 -6 -2 -6 -6v-404c0 -4 2 -6 6 -6h211c4 0 6 2 6 6v64c0 6 4 10 10 10h32c6 0 10 -4 10 -10v-111c0 -6 -4 -10 -10 -10h-381c-6 0 -10 4 -10 10v30c0 6 4 10 10 10h56c4 0 6 2 6 6v405c0 4 -2 6 -6 6h-56
c-6 0 -10 4 -10 10v30c0 6 4 10 10 10zM357 315h49c6 0 10 -4 10 -10v-67c0 -6 -4 -10 -10 -10h-49c-6 0 -10 4 -10 10v67c0 6 4 10 10 10z" />
    <glyph glyph-name="lslash.sc" horiz-adv-x="477" 
d="M53 517h178c6 0 10 -4 10 -10v-30c0 -6 -4 -10 -10 -10h-56c-4 0 -6 -2 -6 -6v-168l114 59c6 3 10 0 10 -6v-33c0 -6 -2 -10 -10 -14l-114 -59v-183c0 -4 2 -6 6 -6h211c4 0 6 2 6 6v64c0 6 4 10 10 10h32c6 0 10 -4 10 -10v-111c0 -6 -4 -10 -10 -10h-381
c-6 0 -10 4 -10 10v30c0 6 4 10 10 10h56c4 0 6 2 6 6v158l-45 -23c-6 -3 -10 0 -10 6v33c0 6 2 10 10 14l45 23v194c0 4 -2 6 -6 6h-56c-6 0 -10 4 -10 10v30c0 6 4 10 10 10z" />
    <glyph glyph-name="m.sc" horiz-adv-x="698" 
d="M541 517h104c6 0 10 -4 10 -10v-30c0 -6 -4 -10 -10 -10h-56c-4 0 -6 -2 -6 -6v-405c0 -4 2 -6 6 -6h56c6 0 10 -4 10 -10v-30c0 -6 -4 -10 -10 -10h-176c-6 0 -10 4 -10 10v30c0 6 4 10 10 10h56c4 0 6 2 6 6v338h-3l-153 -306c-4 -8 -8 -11 -17 -11h-19
c-9 0 -12 3 -16 11l-153 306h-3v-338c0 -4 2 -6 6 -6h56c6 0 10 -4 10 -10v-30c0 -6 -4 -10 -10 -10h-176c-6 0 -10 4 -10 10v30c0 6 4 10 10 10h56c4 0 6 2 6 6v405c0 4 -2 6 -6 6h-56c-6 0 -10 4 -10 10v30c0 6 4 10 10 10h104c7 0 12 -3 15 -10l177 -359h3l175 359
c3 7 8 10 14 10z" />
    </font>
</defs>
</svg>
